<?xml version="1.0" encoding="UTF-8"?>
<svg id="Layer_1" data-name="Layer 1" xmlns="http://www.w3.org/2000/svg" viewBox="0 0 8343 2175">
  <path d="m8343,1123.48c-7.2.96-14.39,2.7-21.59,2.76-34.65.29-69.29.16-103.94.09-5.32,0-10.67-.23-15.96-.71-13.35-1.22-15.42-3.49-16.35-17.45-.18-2.65-.13-5.33-.13-7.99,0-58.62-.04-117.23.03-175.84,0-7.24-.97-14.73,4.05-22.21,3.06-.69,6.83-2.18,10.65-2.3,26.34-.86,27.46.99,27.32,26.01-.25,43.29-.08,86.59-.06,129.89,0,5.33-.19,10.68.27,15.98.9,10.28,4.95,14.39,14.88,15.28,4.63.41,9.32.24,13.98.25,23.32.01,46.64.04,69.96-.04,6.05-.02,12.06-.24,16.89,4.31v31.99Z"/>
  <path d="m939.89,0c4.47,2.66,8.93,5.35,13.41,7.98,11.09,6.51,19.95,15.18,26.22,26.49,4.71,8.5,6.21,17.53,3.92,26.88-4.47,18.28-14.64,32.59-31.58,41.23-15.23,7.77-30.6,7.47-45.49-1.46-.57-.34-1.16-.65-1.71-1.02-32.07-21.38-40.92-59.47-2.78-88.52C907.55,7.27,913.87,3.84,919.89,0c6.67,0,13.33,0,20,0Z"/>
  <path d="m0,671.69c6.29-3.68,7.63-10.56,10.62-16.38,7.68-14.94,19.24-25.25,35.72-29.6,19.78-5.22,42.83,4.83,55.36,23.11,8.52,12.43,9.82,40.68-3.79,56.13-15.22,17.26-34.9,23.19-55.58,15.19-14.77-5.71-26.59-15-33.91-29.32-1.87-3.66-3.47-7.26-8.42-7.13v-11.99Z"/>
  <path d="m919.89,2175c-4.65-3.66-9.63-6.96-13.88-11.04-13.6-13.04-15.11-33.51-3.79-46.92,11.26-13.34,32.53-16.54,47.26-7.1,17.34,11.1,20.17,36.4,5.47,52.39-4.41,4.79-10.01,8.48-15.06,12.67h-20Z"/>
  <path d="m3376.34,1113.29c0-206.48,0-412.97,0-619.45,0-6.66-.06-13.33.23-19.98.41-9.52,4.74-16.43,14.03-19.78,9.39-3.39,18.64-7.18,28.14-10.22,41.34-13.23,83.87-21.19,126.65-27.86,96.54-15.04,193.69-16.38,291.01-11.54,18.55.92,37.18,3.58,55.39,7.29,46.35,9.45,92.3,20.56,135.28,41.18,101.68,48.77,170.91,127.38,211.57,231.67,20.18,51.77,31.74,105.76,36.97,161.03,2.51,26.5,4.63,53.08,5.69,79.67,1.83,46.01-1.13,91.88-7.93,137.4-10.18,68.16-27.84,134.25-58.47,196.31-35.88,72.69-86.55,132.44-156.54,174.58-39.14,23.56-81.03,40.69-126.37,47.43-24.3,3.61-49.04,5.19-73.62,5.78-41.29.99-82.61.45-123.92.6-5.99.02-12.01-.02-17.97.54-6.44.6-9.65,3.45-10.5,10.02-.94,7.23-1.18,14.58-1.19,21.88-.08,73.93-.03,147.87-.06,221.8q0,29.91-29.59,29.94c-89.95.02-179.9,0-269.85,0-5.33,0-10.68.13-15.98-.3-8.26-.67-11.78-4.04-12.57-12.59-.61-6.61-.4-13.31-.4-19.96-.02-208.48-.01-416.96-.01-625.44Zm332.72,127.89c2.33.77,3.58,1.55,4.83,1.55,31.94,0,63.9.55,95.82-.35,24.6-.69,46.68-9.69,66.23-24.79,16.06-12.41,28.69-27.67,38.42-45.38,9.34-17,15.78-35.16,21.13-53.73,7.96-27.64,11.03-55.99,13.35-84.58,5.83-71.91,4.56-143.59-5.2-215.08-4.44-32.48-12.99-63.84-27.64-93.32-19.41-39.05-50.6-62.75-93.61-70.07-13.71-2.33-27.74-3.38-41.66-3.69-20.62-.45-41.27.05-61.89.61-8.96.24-11.86,2.97-12.96,11.95-.97,7.89-1.08,15.91-1.09,23.88-.06,145.08-.04,290.16-.04,435.24,0,31.94-.05,63.89.04,95.83.02,7.24-.96,14.73,4.27,21.93Z"/>
  <path d="m4840.26,411.54c52.65,0,105.3,0,157.94,0,4.66,0,9.33.16,13.99,0,15.07-.48,25.25,6.46,31.56,19.96,11.56,24.72,24.16,49,34.81,74.11,16.11,37.99,31.52,76.31,46.14,114.91,15.55,41.07,29.79,82.64,44.67,123.96,4.51,12.52,9.29,24.95,13.84,37.45,2.96,8.13,5.94,16.25,8.57,24.49,17,53.27,33.88,106.57,50.84,159.85,33.32,104.66,65.1,209.76,92.69,316.1,8.69,33.5,17.42,67.01,27.23,100.19,8.68,29.33,8.54,59.17,7.83,89.15-.23,9.76-4.78,14.37-14.57,15.99-5.22.86-10.61.9-15.93.91-89.97.05-179.94.02-269.92.03-22.72,0-29.97-.54-35.56-27.61-4.98-24.11-9.9-48.24-14.8-72.36-6.75-33.27-13.45-66.55-20.21-99.82-.53-2.6-1.1-5.22-2.04-7.69-2.37-6.22-6.96-9.57-13.68-9.78-4.66-.14-9.33-.23-13.99-.23-93.97-.01-187.94,0-281.91,0-3.33,0-6.67-.1-9.99.09-12.58.7-16.11,3.05-19.17,16.03-6.73,28.5-12.81,57.16-19.14,85.75-6.76,30.55-13.49,61.11-20.28,91.65-.72,3.24-1.63,6.45-2.59,9.63-2.6,8.66-8.55,13.24-17.49,13.86-4.65.32-9.32.46-13.98.46-82.64.03-165.28.02-247.92.02-2.67,0-5.33.06-8-.06-18.71-.79-23.11-4.74-24.49-23.93-1.84-25.49,1.39-50.7,7.99-75.19,20.44-75.82,41.03-151.6,62.69-227.08,13.03-45.4,28.23-90.18,42.3-135.28,7.53-24.14,14.4-48.49,22.17-72.55,18.41-57.01,36.35-114.18,55.97-170.78,34.44-99.37,68.85-198.8,111.17-295.22,7.49-17.06,16.15-33.62,23.38-50.79,7.96-18.9,20.75-26.99,41.9-26.59,55.96,1.08,111.95.36,167.93.36Zm104.03,626.16c-3.82-15.17-7.4-29.95-11.28-44.64-14.45-54.66-29.18-109.21-46.05-163.22-14.48-46.34-26.54-93.43-39.77-140.15-2.35-8.31-4.93-16.58-7.99-24.65-.75-1.99-3.8-4.29-5.79-4.3-2.06,0-5.02,2.18-6.01,4.18-2.64,5.33-4.76,10.99-6.5,16.69-6.61,21.64-13.02,43.33-19.43,65.03-27.33,92.53-54.63,185.07-81.91,277.61-1.29,4.36-2.17,8.84-3.08,12.61,5.32,7.48,12.44,5.97,18.91,5.98,63.29.09,126.58.07,189.87.02,3.97,0,8.04-.11,11.89-.95,2.37-.52,4.41-2.53,7.14-4.21Z"/>
  <path d="m3231.6,606.17c0,32.64.02,65.28-.02,97.92,0,5.32.11,10.69-.49,15.96-.8,7.01-4.62,10.46-11.77,11.35-2.63.33-5.32.31-7.98.31-24.65.02-49.31-.23-73.96.12-10.54.15-19.56-2.84-27.77-9.23-6.83-5.32-13.81-10.45-20.91-15.41-47.1-32.91-99.75-49.92-156.78-53.46-11.16-.69-22.58,1.12-33.75,2.69-11.19,1.57-22.22,4.23-33.31,6.52-55.71,11.49-98.72,41.74-130.17,88.71-22.54,33.66-36.01,71.07-44.76,110.4-15.37,69.05-13.03,137.62,6.44,205.44,12.13,42.23,32.76,80.06,63.92,111.52,38.61,38.98,85.71,60.31,140.14,64.93,73.62,6.25,139.59-14.21,198.27-58.75,3.71-2.82,7.29-5.83,11.07-8.55,8.88-6.39,18.64-9.92,29.8-9.81,22.65.22,45.31.04,67.97.09,3.32,0,6.68.14,9.96.66,8.47,1.36,12.62,5.75,13.68,14.6.47,3.95.4,7.98.4,11.97.13,66.61.24,133.22.34,199.83,0,3.33-.02,6.66-.16,9.99-.51,11.71-6.36,20.16-16.45,25.6-4.66,2.51-9.74,4.29-14.69,6.24-69.07,27.26-140.57,44.61-213.98,55.9-51.8,7.97-103.57,7.19-155.47,6.61-24.67-.27-48.73-6.7-72.95-11.25-42.07-7.9-82.81-19.69-121.72-37.76-117.29-54.47-199.54-142.4-248.59-261.4-31.84-77.25-47.78-157.81-44.96-241.64.94-27.94,2.3-55.88,4.03-83.79.66-10.58,2.23-21.21,4.54-31.56,10.27-46.13,20.79-92.17,40.56-135.53,39.32-86.25,95.75-157.99,176.18-209.6,65.49-42.03,136.99-67.67,214.02-78.21,63.76-8.73,127.54-7.54,191.31-.38,71.09,7.98,140.44,23.58,207.66,48.19,10.62,3.89,21.06,8.32,31.33,13.06,13.41,6.19,19.68,16.63,19.48,31.83-.47,35.3-.15,70.6-.15,105.91-.1,0-.21,0-.31,0Z"/>
  <path d="m498.04,1102.47c-7.42-2.94-13.04-4.93-18.46-7.35-25.92-11.6-41.9-31.81-51.25-58.21-14.22-40.15,15.06-108.21,77.62-112.72,19.72-1.42,38.61,1.97,55.84,11.95,25.62,14.84,38.42,38.09,41.9,66.78,4.45,36.74-9.67,65.01-40.42,85.12-7.2,4.71-14.84,8.76-23.21,13.66,2.61,2.08,4.37,4.05,6.56,5.1,4.19,2.01,8.59,3.62,12.98,5.18,22.32,7.91,39.18,22.06,50.58,42.95,3.06,5.61,4.87,12.62,11.92,15.33,16.33-31.52,8.67-34.16,61.65-76.03-1.4-6.72-7.49-8.83-12.29-12.05-24.18-16.2-37.57-39.06-41.88-67.5-6.78-44.77,25.75-90.94,70.26-99.56,35.08-6.79,66.09.97,91.85,26.59,7.16,7.12,13.2,14.93,16.42,24.73,1.2,3.66,3.3,7.03,5.71,12.04,3.28-4.21,6.7-6.85,7.74-10.23,7.74-25.23,23.21-44.63,43.89-60.42,2.53-1.93,4.33-4.81,6.62-7.44-1.63-8.57-8.83-11.98-13.8-16.96-20.37-20.41-30.06-45.04-30.4-73.7-.18-15.1,3.84-29.01,11.14-41.98,11-19.54,25.61-35.64,45.77-46.19,4.69-2.46,9.33-5.01,15.25-8.2-2.21-3.08-3.51-6.11-5.8-7.85-5.28-4.03-11.21-7.21-16.56-11.16-31.81-23.46-41.97-56.6-31.81-97.87,8.45-34.33,40.75-58.34,77.97-61.5,66.11-5.61,107.62,60.54,92.47,112.06-5.49,18.66-15.66,33.75-31.3,45.03-8.61,6.21-17.79,11.65-27.94,18.24,3.14,2.45,5.76,4.94,8.77,6.78,8.51,5.2,17.52,9.66,25.75,15.27,46.63,31.77,56.99,107.97,11.05,150.34-4.86,4.49-9.41,9.32-14.05,14.04-.4.41-.4,1.22-1,3.25,1.44,1.8,2.95,4.91,5.42,6.61,22.76,15.71,37.89,37.08,47.49,62.72.86,2.3,2.84,4.18,5.22,7.56,3.1-4.98,5.66-8.66,7.78-12.57,13.61-25.12,32.8-43.33,61.3-50.41,7.93-1.97,7.84-2.31,15.68-9.07-2.04-1.7-3.73-3.78-5.92-4.79-3.6-1.66-7.56-2.54-11.31-3.91-55.75-20.36-67.85-85.62-43.09-126.02,11.8-19.25,29.24-33.28,50.51-40.48,21.73-7.36,43.32-4.6,62.9,8.5,4.43,2.96,9.05,5.64,13.34,8.78,41.17,30.09,47.28,87.14,12.96,124.7-7.12,7.79-15.83,14.2-24.23,20.7-6.44,4.97-14.07,7.46-22.38,7.41-4.27-.03-8.01,1.32-9.68,5.59-1.19,3.03,2.65,6.72,9.02,8.87,2.52.85,5.18,1.28,7.71,2.08,60.17,18.84,88.69,107.25,30.66,157.5-5.53,4.79-11.5,9.09-17.07,13.84-1.94,1.66-3.3,4-5.76,7.07,8.58,6.82,17.44,12.67,24.78,20.03,7.93,7.95,15.22,16.8,21.32,26.21,5.6,8.64,9.24,18.56,14.6,29.67,4.51-5.84,8.81-10.04,11.51-15.1,13.05-24.52,34.39-38.23,59.71-47.05,3.61-1.26,7.1-2.84,12.42-4.98-6.48-6.4-13.55-8.31-19.5-11.77-22.35-13-37.66-31.26-44.37-56.56-12.75-48.12,18.26-98.84,67.76-109.72,42.84-9.42,94.21,16.33,105.8,68.67,8.3,37.49-7.88,80.62-50.59,100.56-3.02,1.41-6.14,2.57-9.2,3.9-2.88,1.25-5.73,2.55-7.87,3.5-1.07,5.51,1.77,7.52,4.55,9.21,4.54,2.77,9.4,5.02,13.97,7.76,55.39,33.24,66.97,107.64,14.43,156.67-40.79,38.06-109.99,28.02-139.88-14.29-5.34-7.55-9.18-16.16-13.7-24.29-1.86-3.35-3.68-6.72-6.15-11.24-2.72,2.63-4.96,4.08-6.19,6.12-3.44,5.69-6.23,11.78-9.7,17.46-11.07,18.14-25.95,31.98-45.99,39.82-3.09,1.21-6.25,2.3-9.2,3.81-3.44,1.76-4.27,7.99-1.39,10.36,2.02,1.66,4.39,2.92,6.67,4.23,15.49,8.87,27.01,21.79,35.36,37.16,22.72,41.88,3.14,97.83-41.13,118.5-6.62,3.09-13.67,5.23-20.46,7.96-3.6,1.45-7.06,3.22-12.75,5.83,4.38,2.65,6.76,5.25,9.36,5.49,39.15,3.72,76.97,48.29,74.08,97.58-2.45,41.85-34.53,79.1-75.71,86.93-56.19,10.68-109.61-29.04-114.92-86.17-3.32-35.75,22.56-86.89,70.22-97.27,4.51-.98,8.98-2.12,13.44-3.29.53-.14.9-.91,1.41-1.48,1.93-4.75-1.04-7.36-4.64-9.32-2.29-1.25-4.94-1.89-7.49-2.62-21.01-6-36.04-19.45-47.3-37.68-3.38-5.48-6.89-10.88-11.63-18.36-5.9,10.46-10.12,19.27-15.58,27.24-5.61,8.19-11.67,16.39-18.94,23.05-7.26,6.65-15.81,12.31-24.63,16.74-8.81,4.43-18.65,6.8-27.87,10.01-1.88,4.4.82,6.29,3.73,7.88,2.33,1.27,4.8,2.33,7.29,3.24,35.57,13.04,59.81,57.33,42.12,103.26-9.22,23.94-26.26,39.58-51.09,46.68-35.29,10.1-70.18-1.3-90.64-29.78-27.62-38.46-16.32-92.34,24.43-116.47,4.55-2.7,9.41-5,13.51-8.26,1.1-.87.77-5.22-.43-6.87-1.38-1.89-4.33-3.04-6.81-3.68-31.51-8.08-51.29-29.51-65.57-57.26-2.13-4.13-4.06-8.37-6.16-12.52-.27-.54-1.01-.85-2.66-2.17-2.12,1.19-5.01,2.3-7.2,4.21-1.34,1.17-1.75,3.52-2.33,5.42-7.97,25.65-27.21,38.35-51.65,45.2-27.15,7.61-52.81,5.06-76.44-11.09-45.13-30.84-51.59-93.09-13.62-132.35,5.53-5.72,12.18-10.33,18.07-15.73,2.8-2.56,5.01-5.76,7.73-8.95-7.45-10.75-20.46-11.21-28.48-18.96-8.59-8.3-17.15-16.63-25.36-25.29-7.58-8.01-9.59-20.09-19.52-28.45-2.54,6.12-4.53,10.92-6.53,15.71-19.07,45.76-75.8,70.18-121.78,51.56-30.63-12.4-50.87-33.76-60.71-66.8-6.91-23.2-2.81-43.16,5.73-63.75,8.5-20.49,22.58-35.93,42.67-45.67,6.36-3.09,13.73-4.94,17-14.62Zm541.49,252.35c4.19-4.53,8.21-7.29,10-11.09,8.65-18.34,22.6-30.79,40.7-39.29,3.94-1.85,8.62-3.99,8.67-10.35-6.2-3.12-12.92-5.8-18.87-9.67-6.66-4.33-12.5-9.89-18.91-14.63-6.12-4.53-10.26-3.63-15.41,2.28-7.4,8.48-15.14,16.67-22.45,25.23-2.88,3.38-4.99,7.41-7.51,11.23,4.4,7.83,8.5,14.65,12.13,21.72,3.85,7.49,7.24,15.21,11.66,24.58Zm-195.75-277.88c-5.01-8.62-9.51-16.59-14.22-24.43-4.93-8.2-5.62-19.05-15.34-25.71-1.87,2.95-4.04,4.92-4.39,7.16-1.95,12.48-9.06,22.07-17.39,30.69-6.41,6.64-13.76,12.38-20.9,18.27-3.06,2.52-6.76,4.32-6.31,10.12,12.46,8.37,25.43,17.08,38.47,25.85,7.5-2.31,9.61-9.22,13.75-14.13,3.84-4.57,7.62-9.21,11.73-13.53,4.51-4.76,9.37-9.19,14.6-14.28Zm202.16-48.45c-2.29.85-3.21.9-3.46,1.33-7.48,13.26-14.91,26.55-22.31,39.86-2.69,4.83-1.04,8.98,2.26,12.72,8.34,9.46,16.77,18.83,25.1,28.3,2.5,2.84,4.78,5.87,6.92,8.52,13.58-8.04,26.07-15.39,38.5-22.84,3.49-2.09,3.7-7.36.58-10.31-.96-.91-1.93-1.85-3.04-2.54-19.28-12.01-33.24-28.27-40.5-50.03-.58-1.73-2.42-3.04-4.06-5Zm-202.39,278.58c-.42-1.59-.39-2.39-.78-2.84-9.94-11.47-19.85-22.97-29.95-34.29-3.26-3.65-7.73-3.76-12.59-.32-5.96,4.21-11.4,9.18-17.48,13.2-6.47,4.27-13.42,7.79-21.4,12.35,2.93,3.03,4.81,5.67,7.32,7.42,4.34,3.03,9.07,5.51,13.65,8.21,13,7.65,23.05,17.81,27.95,32.46.83,2.49,1.89,4.94,3.17,7.22,1.42,2.52,7.39,2.49,8.8.02.96-1.68,1.88-3.48,2.33-5.35,2.85-11.84,8.24-22.34,15.89-31.79,1.58-1.96,2.29-4.62,3.08-6.28Z"/>
  <path d="m738.44,1667.95c-52.27,1.55-94.32-42.8-94.33-93.43,0-42.52,30.15-94.15,96.24-93.48,64.25.65,93.31,55.35,92.55,95.27-.91,47.85-44.34,94.12-94.47,91.64Z"/>
  <path d="m7852.03,1407.59c.33-9,.87-18.22.98-27.43.37-29.95.55-59.91.89-89.86.05-4.64.16-9.34.88-13.91.81-5.15,4.23-8.11,9.53-8.58,1.99-.18,3.99-.24,5.98-.29,24.53-.66,25.19,3.09,25.14,24.45-.15,57.92-.05,115.85-.07,173.77,0,4.66.1,9.35-.44,13.96-1.07,9.14-6.57,14.3-15.89,14.72-9.71.45-18.51-2.3-25.33-9.54-3.64-3.86-6.83-8.17-10.09-12.38-30.97-40-61.91-80.03-92.85-120.06-2.96-3.83-6.04-7.25-13.06-3.8-.42,4.22-1.35,9.28-1.37,14.34-.13,34.62-.06,69.24-.07,103.86,0,4.66.13,9.33-.15,13.98-.55,9.23-4.65,13.29-13.49,13.65-1.99.08-4.02.05-5.97-.28-16.36-2.77-20.47-3.07-20.41-22.52.19-60.59.36-121.18-.08-181.76-.17-23.24,8.15-24.12,27.34-21.83,7.48.89,13.88,4.69,18.92,10.31,3.55,3.96,6.74,8.25,10,12.45,28.2,36.26,56.37,72.55,84.59,108.8,3.56,4.58,6.52,10.52,15.02,7.95Z"/>
  <path d="m7725.12,976.44c-6.89,4.34-5.35,10.02-5.35,15.19-.02,35.97.08,71.94-.03,107.91-.02,7.17,1.17,14.61-2.19,21.09-15.4,4.31-17.68,4.33-34.7.11-.55-5.34-1.66-11.18-1.67-17.02-.13-60.62-.08-121.23-.09-181.85,0-20.69,2.31-22.95,25.31-22.21,6.94.22,12.85,3.43,17.92,7.94,2.96,2.64,5.64,5.67,8.05,8.82,29.57,38.6,59.05,77.26,88.6,115.87,3.46,4.53,6.2,12.05,13.35,9.17,5.78-2.33,3.45-9.43,3.47-14.52.15-33.97,0-67.94.15-101.92.03-7.21-1.32-14.68,2.97-22.55,2.32-.72,5.36-2.39,8.47-2.52,29.85-1.27,29.82,1.17,29.73,27.65-.18,55.95-.06,111.91-.05,167.86,0,1.33.12,2.68-.02,3.99-.83,7.64,2.73,16.69-5.26,22.19-7.59,5.22-27.85,2.29-35.81-4.59-2.99-2.59-5.61-5.69-8.06-8.82-27.98-35.62-55.94-71.26-83.78-106.98-4.08-5.24-7.21-11.23-11.39-16.37-2.74-3.37-6.58-5.85-9.6-8.45Z"/>
  <path d="m7028.7,1346.37c-5.04,4.14-4.27,9.73-4.3,14.95-.09,20.65,0,41.3-.02,61.95,0,17.97.04,35.94-.17,53.91-.05,3.89-1.09,7.77-1.68,11.68-7.59,4.83-15.42,5.63-23.44,4.91-8.28-.74-11.9-4.24-13.14-12.43-.6-3.93-.76-7.96-.77-11.94-.16-61.95-.29-123.9-.33-185.85,0-10.56,3.51-14.38,13.6-16.12,15.33-2.64,26.7,2.47,36.27,15.11,28.14,37.18,56.9,73.9,85.81,110.48,4.97,6.28,7.63,16.15,18.58,15.67,6.61-6.68,3.48-15.1,3.51-22.66.13-31.3-.33-62.61-.69-93.91-.26-22.57,1.01-25.94,26.78-24.59,10.62.56,13.58,4.06,14.31,15.14.13,1.99.08,4,.08,5.99,0,61.29-.15,122.57.09,183.86.07,16.79-3.95,21.11-21.53,19.7-9.86-.79-17.91-4.82-24.17-12.38-2.97-3.59-5.69-7.39-8.53-11.08-28.46-36.94-56.87-73.92-85.44-110.76-3.91-5.04-6.86-11.8-14.84-11.64Z"/>
  <path d="m6624.27,676.18c2.41,4.16,4.97,9.48,8.35,14.22,11.58,16.26,23.44,32.32,35.19,48.46,1.95,2.68,4.1,5.25,5.8,8.09,2,3.32-.16,8.25-4.01,9.8-15.78,6.35-36.7,1.03-46.55-12.26-11.49-15.51-22.73-31.2-33.93-46.92-12.38-17.38-32.65-23.89-52.55-16.59-5.09,1.87-6.81,6.23-6.97,11.08-.44,13.29-.62,26.59-.85,39.89-.08,4.65.38,9.33-.06,13.93-.62,6.58-3.37,9.37-9.77,10.91-1.93.47-3.92.93-5.89,1.01-22.92.93-25.62-3.11-25.55-22.33.2-61.24.06-122.47.1-183.71,0-5.91-.7-12,3.45-18.52,3.13-.6,6.89-1.96,10.64-1.95,32.62.01,65.25-.15,97.87.57,27.15.6,48.81,12.12,63.07,35.75,19.13,31.72,9.84,72.8-20.76,93.72-5.9,4.03-13.76,5.66-17.59,14.85Zm-59-33.55v.39c6.64,0,13.28.13,19.92-.03,10.15-.25,19.75-2.7,28.3-8.31,12.7-8.33,19.95-23.46,16.38-35.73-4.41-15.16-14.07-26.52-30.24-28-19.78-1.81-39.78-1.42-59.68-1.49-6.55-.02-10.34,3.66-10.62,9.65-.77,16.55-1.5,33.12-1.4,49.68.06,9.12,6.21,14.54,15.46,14.75,7.28.17,14.59-.57,21.89-.91Z"/>
  <path d="m7275.56,675.85c2.93,4.75,6.05,10.53,9.85,15.83,10.88,15.15,22.06,30.09,33.07,45.15,3.48,4.76,8.09,8.98,7.89,17.04-2.95,1.29-6.21,3.24-9.75,4.12-3.16.78-6.62.43-9.95.49-14.98.29-26.89-4.61-35.39-17.98-9.28-14.6-19.68-28.51-29.93-42.47-10.72-14.61-25.61-20.86-43.49-19.66-12.05.81-16.78,5.52-17.34,17.59-.55,11.97-.03,23.98-.27,35.97-.14,7.23-.83,14.44-1.28,21.57-13.28,6.42-25.3,5.76-36.91.96-4.33-5.89-3.62-12.03-3.63-17.96-.05-61.97-.03-123.93-.02-185.9,0-2.66-.04-5.34.23-7.99.78-7.74,3.56-10.54,11.27-11.24,3.31-.3,6.66-.21,9.99-.21,27.33-.01,54.66.27,81.98-.11,15.77-.22,30.28,3.91,44.33,10.41,25.08,11.6,36.51,32.75,38.27,58.87,1.74,25.83-9.23,46.45-30.89,61.18-5.91,4.02-13.97,5.21-18.06,14.33Zm-58.83-32.95c0-.13,0-.26,0-.4,7.98,0,15.97.24,23.94-.05,12.52-.46,23.29-5.25,31.85-14.44,10.08-10.83,12.47-23.36,6.38-36.86-5.26-11.66-14.22-19.41-27.42-20.26-15.92-1.02-31.88-1.34-47.83-1.76-4.63-.12-9.33.1-13.9.82-6.26.99-9.31,4.45-10.01,10.6-.3,2.63-.27,5.31-.25,7.97.1,13.96-.15,27.94.52,41.88.4,8.31,4.41,11.89,12.78,12.4,7.95.48,15.96.1,23.94.1Z"/>
  <path d="m6311.78,1128.72c-13.16,0-26.89-2.28-40.12-7.15-62.76-23.12-80.86-79.92-74.8-124.63,10.88-80.28,81.73-107.58,136.94-99.59,53.09,7.69,86.68,44.72,95.98,86.66,19.22,86.64-50.64,148.38-118.01,144.71Zm-71.28-122.27c-.75,39.22,15.16,63.05,43.51,78.85,16.54,9.22,34.43,9.58,52.21,3.05,52.99-19.47,70.67-78.44,37.36-124.32-21.42-29.51-60.22-38.73-92.69-22.08-28.67,14.71-40.42,39.12-40.39,64.5Z"/>
  <path d="m7515.7,1129.7c-49.83.22-95.59-32.58-110-77.9-17.74-55.79,1.76-126.62,72.39-149.77,33.82-11.09,67.14-7.59,98.67,8.37,31.85,16.12,49.96,43.16,56.39,77.79,12.75,68.68-28,123.23-85.96,137.19-10.25,2.47-20.98,2.94-31.49,4.33Zm76.54-114.87c.55-19.38-4.29-37.79-16.99-53.5-18.88-23.35-43.29-32.03-72.86-26.59-29.03,5.34-47.6,22.14-56.3,50.23-4.64,14.99-5.17,30.28-2.41,45.46,6.02,33.17,36.54,58.87,70.06,61.23,40.75,2.86,80.78-37.44,78.51-76.83Z"/>
  <path d="m6463,1381.54c-3.11-64.79,51.2-117.58,117.38-117.69,64.95-.1,117.85,51.98,118.06,116.06.21,64.01-54.52,118.72-118.85,118.21-64.24-.51-120.13-53.01-116.59-116.58Zm43.02-.26c-1.24,18.69,5.84,36.28,18.32,51.76,26.03,32.29,74.29,35.61,104.54,7.28,42.5-39.8,35.38-108.84-26.31-135.1-11.84-5.04-24.24-5.71-37.08-2.43-37.12,9.48-59.45,37.99-59.47,78.5Z"/>
  <path d="m5977.11,1121.95c-.58-6.73-1.4-11.9-1.41-17.07-.09-60.59-.16-121.17-.01-181.76.05-22.67.94-23.42,23.79-23.44,27.97-.02,55.94.26,83.91.29,16.42.01,31.62,4.19,45.4,13.06,42.1,27.08,42.64,88.24,1.18,116.41-5.96,4.05-13.64,5.74-18.35,13.75,2.26,3.93,4.49,8.64,7.46,12.84,11.13,15.78,22.54,31.35,33.73,47.08,2.68,3.77,5.19,7.72,7.27,11.85,2.01,3.99-.65,8.07-5.21,8.59-1.98.23-3.99.34-5.98.3-24.66-.5-29.37,4.88-47.27-24.14-8.37-13.57-18.6-25.98-27.6-39.17-6.22-9.11-14.37-13.34-25.37-12.67-5.97.36-12-.17-17.97.19-11.17.67-14.25,3.62-14.54,14.56-.34,12.64-.03,25.3-.16,37.95-.07,6.55-.49,13.09-.77,19.88-12.58,5.36-24.18,3.69-38.09,1.5Zm77.85-184.08v.16c-9.29,0-18.61-.37-27.88.12-7.7.41-11.01,3.67-11.17,11.25-.35,16.58-.37,33.19.01,49.77.17,7.42,3.66,11.08,11.21,11.27,17.24.44,34.5.37,51.74-.08,5.2-.14,10.53-1.7,15.49-3.49,14.73-5.31,25.34-20.7,24.76-35.18-.54-13.66-11.58-27.08-26.55-31.45-5.04-1.47-10.44-2-15.72-2.28-7.28-.37-14.6-.09-21.91-.09Z"/>
  <path d="m7588.85,532.65c3.29-.53,5.88-1.31,8.47-1.3,27.98.08,56-.74,83.92.68,50.11,2.54,89.35,33.04,102.75,80.76,10.78,38.36,3.68,74.1-23.36,104.37-21.33,23.88-48.04,37.52-80.52,38.72-23.28.86-46.56,2.45-69.84,2.41-23.81-.04-25.11-1.85-25.15-24.86-.1-59.94-.06-119.88-.01-179.82,0-6.6-.77-13.38,3.73-20.96Zm37.25,38.84c-.77,6.79-1.73,11.35-1.74,15.92-.12,36.64-.08,73.28-.05,109.92,0,3.32,0,6.69.48,9.96,1.18,7.96,4.87,11.7,13.32,12.07,17.31.77,34.47.17,51.72-2.94,25.48-4.6,55.43-32.33,53.82-65.68-.26-5.32-.52-10.67-.2-15.98,1.53-25.59-22.47-54.99-48.39-62.05-22.07-6.01-44.64-4.87-68.95-1.22Z"/>
  <path d="m6142.23,755.7c-6.12-6.19-5.71-12.97-5.73-19.62-.04-15.98.04-31.96-.08-47.94-.04-5.32-.38-10.65-.95-15.93-.48-4.42-3.23-7.3-7.65-7.93-3.94-.56-7.96-.75-11.95-.76-21.31-.08-42.63-.24-63.94,0-16.01.18-18.17,2.32-18.53,18.71-.37,16.64-.04,33.29-.16,49.94-.04,5.31-.4,10.63-.94,15.91-.19,1.89-1.34,3.69-2.48,6.64-3.88.94-8.22,2.7-12.63,2.93-22.15,1.13-25.12-1.82-25.14-24.5-.05-59.26-.07-118.52,0-177.78.03-23.76,1.65-25.25,24.73-24.33,3.92.16,7.81.71,10.82,1,6.25,5.24,5.55,11.48,5.61,17.34.15,15.98-.01,31.96.1,47.94.18,25.95,1.07,26.7,27.1,26.46,15.98-.15,31.97-.05,47.95-.13,5.33-.03,10.67.04,15.97-.43,7.94-.7,11.07-3.29,11.38-11.09.58-14.62.27-29.28.5-43.92.18-11.2-1.37-22.59,3.17-34.19,11.36-4.51,22.89-4.12,33.87-1.76,5.9,6.15,5.21,13,5.2,19.56-.09,61.25-.17,122.5-.46,183.74-.1,20.6-2.79,23.03-23.15,22.15-4.56-.2-9.07-1.42-12.61-2.01Z"/>
  <path d="m6967.27,572.52c-.03,14.22-.44,26.8.05,39.35.39,9.88,3.01,12.11,13.75,13.11,7.28.68,14.62.88,21.93.89,17.31.02,34.62-.2,51.92-.32,7.31-.05,14.64-.29,21.22,3.1.88,1.35,2.05,2.37,2.24,3.56,4.34,26.53-1.69,30.79-26.7,30.8-19.97,0-39.94-.29-59.91-.38-4.65-.02-9.34.01-13.96.5-7,.74-10,3.23-10.25,9.85-.45,11.95-.37,23.93-.05,35.89.14,5.3,4.01,8.56,8.91,9.38,5.2.87,10.6.78,15.91.79,26.63.07,53.27.47,79.89-.09,25.25-.54,22.91,8.75,22.41,25.09-.26,8.62-3.06,11.44-12.14,12.77-5.24.77-10.6.99-15.91,1-38.62.08-77.23.04-115.85.04-1.33,0-2.66.02-4-.02-19.81-.53-22.7-3.18-22.77-23.77-.18-60.57-.08-121.14-.03-181.7,0-6.6-.43-13.41,5.08-19.42,1.96-.44,4.52-1.52,7.08-1.53,49.26-.13,98.52-.16,147.78-.08,1.86,0,3.72,1.23,6.84,2.33,1.11,5.24,3.28,10.98,3.36,16.76.22,15.69-6.52,18.65-17.38,18.44-26.62-.51-53.26-.31-79.89-.36-5.33-.01-10.69-.25-15.96.32-3.83.41-7.53,1.99-13.61,3.7Z"/>
  <path d="m716.04,900.32c-46.52,2.53-86.9-37.53-87.2-82.92-.29-43.39,29.38-87.32,88.8-88.21,43.59-.66,86.33,41.07,85.6,84.04-.94,55.24-42.47,88.81-87.2,87.09Z"/>
  <path d="m7371.42,755.7c-.62-9.29-1.42-15.82-1.43-22.36-.1-59.28-.06-118.56-.06-177.85,0-1.33-.02-2.67.02-4,.52-19.02,1.57-20.24,20.85-20.3,43.31-.13,86.62-.06,129.93,0,3.94,0,7.88.49,12.53.8,5.74,11.01,4.38,21.78,1.81,32.24-6.14,5.73-12.98,4.69-19.51,4.66-25.98-.08-51.97-.37-77.95-.33-5.94,0-11.94.67-17.79,1.73-4.19.76-7.31,3.87-7.4,8.31-.23,11.3-.5,22.64.23,33.9.57,8.63,3.88,11.91,12.76,12.27,17.95.72,35.94.8,53.91.61,13.95-.15,27.91-1.2,42.52,3.21.99,4.2,2.78,8.59,2.92,13.03.5,15.9-3.61,20.48-19.5,20.82-20.65.44-41.31.06-61.97.19-6.65.04-13.32.35-19.94.96-5.19.48-9.15,3.79-9.49,8.8-.79,11.87-1.07,23.81-.73,35.71.17,5.91,4.55,9.64,10.46,10.35,5.27.63,10.63.58,15.95.59,24.65.05,49.31-.04,73.96.08,5.31.03,10.73.11,15.89,1.2,8.5,1.8,13.42,8.86,13.19,17.55-.28,10.42-5.26,17.69-13.67,19.59-2.57.58-5.27.78-7.91.78-42.63-.09-85.26-.16-127.88-.45-6.52-.05-13.02-1.21-21.71-2.08Z"/>
  <path d="m710.55,542.77c48.19.04,84.93,38.04,84.41,87.12-.4,37.61-35.09,80.06-83.78,80.28-50.35.22-85.3-44.92-84.5-83.75.96-46.67,37.58-83.69,83.87-83.65Z"/>
  <path d="m1067.03,626.23c-3.38-42.37,34.65-84.61,85.18-83.64,46.23.88,82.25,41.37,81.66,86.46-.49,37.3-35.21,82.17-85.5,81.11-51.37-1.08-86.61-48.79-81.34-83.93Z"/>
  <path d="m6782.45,1346.56c0,15.99-.04,31.98.02,47.97.02,5.33,0,10.68.47,15.97,2.26,25.13,19.11,43.55,43.59,47.89,31.95,5.67,59.26-13.03,63.62-45.27,2.31-17.07,1.93-34.55,2.04-51.85.14-23.31-.12-46.63-.75-69.94-.63-23.24,5.01-24.48,25.93-24.1,2.65.05,5.34.28,7.91.88,4.96,1.17,8.28,4.39,9.11,9.44.64,3.91.75,7.95.73,11.93-.18,36.64-.54,73.28-.64,109.92-.05,17.69-4.62,34.23-11.92,50.12-6.88,14.99-17.42,26.92-32.02,34.6-36.22,19.06-72.72,19.52-108.93-.07-17.22-9.32-28.18-24.14-34.41-42.46-4.95-14.56-8.29-29.51-8.28-45,.02-36.64.13-73.28.23-109.93,0-2.66.06-5.35.43-7.97.87-6.2,4.1-10.05,10.13-10.55,7.27-.6,14.63-.53,21.93-.15,5.18.27,8.68,3.67,9.64,8.69.87,4.54,1.08,9.25,1.11,13.89.12,18.65.05,37.31.05,55.97h.02Z"/>
  <path d="m6852.72,901.13c1.17,6.66,2.64,11.76,2.86,16.91.61,14.58-3.69,18.87-18.57,18.91-27.99.07-55.98-.1-83.97,0-7.18.03-14.75-1.34-22.03,4.77-2.54,15.51-3.58,31.76.97,47.48,8.6,5.81,17.5,5.01,26,5.08,19.32.17,38.64-.5,57.96-.44,7.78.02,16.16-1.84,22.86,4.67,2.78,7.04,1.71,14.37.86,21.59-.53,4.46-3.64,7.07-8.11,7.42-4.64.36-9.32.37-13.98.38-19.99.04-39.99.01-59.98.02-4.66,0-9.34-.15-13.99.12-10.51.61-13.16,2.79-14.13,12.83-1.46,15.21-2.15,30.45,1.9,44.93,6.2,5.57,13.07,4.51,19.59,4.53,27.99.09,56.01.7,83.97-.22,18.8-.61,22.92,2.86,20.77,23.6-.26,2.52-1.39,4.96-2.37,8.31-4.74.63-9.22,1.73-13.7,1.74-44.65.13-89.31.08-133.96.09-.67,0-1.33,0-2-.02-14.06-.53-15.99-2.11-16.03-16.63-.16-63.29-.07-126.59-.05-189.88,0-2.66.04-5.34.39-7.97.74-5.49,3.52-8.43,8.85-9.16,3.28-.45,6.64-.53,9.97-.53,43.99-.03,87.97-.05,131.96.04,3.93,0,7.85.77,13.97,1.4Z"/>
  <path d="m5954.15,1494.69c-12.42,1.6-21.49-4.54-26.43-17.41-2.62-6.81-5.47-13.54-8.07-20.36-3.98-10.43-11.87-15.66-22.55-17.19-2.63-.38-5.31-.45-7.97-.44-21.31.07-42.62.53-63.91.16-12.37-.21-20.19,5.04-24.54,16.32-2.87,7.45-5.5,15.04-9.05,22.16-6.98,14-22.37,20.71-36.84,16.7-6.56-1.82-9.69-7.2-7.64-13.76,1.18-3.79,2.85-7.44,4.45-11.1,23.17-53.05,46.3-106.12,69.61-159.11,4.82-10.96,9.87-21.86,15.55-32.38,9.22-17.07,36.34-17.61,46.2-1.09,2.72,4.55,4.82,9.49,6.98,14.36,26.15,59.01,52.26,118.04,78.39,177.06.54,1.22,1.21,2.38,1.73,3.6,7.95,18.57,5.48,22.42-15.89,22.48Zm-129.08-95.51c3.55,1.17,7.07,3.27,10.64,3.35,15.89.37,31.79.18,47.69.14,1.98,0,4.09.06,5.9-.58,3.33-1.16,5.74-3.57,5.11-7.38-.42-2.56-1.56-5.04-2.67-7.43-8.91-19.21-17.82-38.41-26.93-57.52-.94-1.97-1.35-5.42-5.07-4.56-10.99,13.49-22.08,37.08-34.67,73.99Z"/>
  <path d="m6447.44,752.9c-12,8.54-24.34,6.3-36.35,2.18-3.21-1.1-6.02-5.25-7.69-8.64-4.39-8.94-8.54-18.05-11.86-27.43-3.63-10.26-10.54-14.84-21.04-14.84-25.29-.01-50.57,0-75.86-.02-10.53-.01-17.44,4.87-21.38,14.71-3.7,9.25-7.97,18.26-12.09,27.34-4.06,8.95-11.22,13-20.86,12.05-6.48-.64-13.41.89-20.18-3.9,0-3.2-.91-7.26.19-10.67,2.23-6.93,5.5-13.54,8.43-20.24,24.23-55.43,48.43-110.88,72.78-166.26,2.66-6.05,5.52-12.21,9.48-17.43,7.5-9.89,17.93-13.38,30.12-10.7,6.76,1.48,12.44,4.88,15.61,11.32,2.64,5.36,4.94,10.89,7.35,16.36,23.57,53.54,47.14,107.07,70.66,160.63,4.01,9.12,7.94,18.28,11.62,27.54.92,2.32.72,5.09,1.08,8.02Zm-115.18-166.2c-7.25,9.27-10.53,17.93-14.27,26.32-3.79,8.49-7.65,16.97-11.02,25.63-3.28,8.41-8.71,16.17-9.63,27.06,21.59,1.5,42,1.23,62.4.17,2.35-.12,4.6-2.17,6.91-3.33-.13-2.55.31-4.73-.42-6.38-9.08-20.67-18.26-41.29-27.62-61.83-1.05-2.29-3.3-4.04-6.35-7.64Z"/>
  <path d="m7428.69,1486.54c3.03-8.09,5.43-15.67,8.63-22.89,25.04-56.53,50.24-112.98,75.35-169.47,2.7-6.07,4.91-12.36,7.81-18.33,2.81-5.76,7.64-9.08,14.23-9.41.66-.03,1.33,0,2-.03,22.29-1.23,25.9.69,34.96,21.4,24.25,55.42,48.2,110.98,72.39,166.43,3.71,8.51,8.22,16.68,12.07,25.13,3.36,7.38.31,12.99-7.66,14.83-16.4,3.78-28.97-1.69-36.64-16.6-4.25-8.26-7.74-16.92-11.46-25.44-3.91-8.97-10.58-12.9-20.43-12.76-25.28.35-50.57.43-75.86.28-8.28-.05-13.86,2.77-17.15,10.67-3.84,9.19-9.09,17.83-12.42,27.18-3.92,11.01-11.81,15.52-22.47,16.7-8.03.89-16.02,1.06-23.36-7.69Zm146.39-86.63c.15-3.24.88-5.42.23-7.04-8.97-21.97-18.05-43.9-27.35-65.74-1.7-3.98-7.49-4.14-9.77-.61-1.41,2.2-2.63,4.56-3.65,6.97-8.19,19.5-16.35,39.01-24.39,58.56-.9,2.2-1.01,4.72-1.46,6.95,14.95,4.89,48.78,5.34,66.38.9Z"/>
  <path d="m8144.14,1121.24c-11.8,4.35-23.66,3.48-35.12.94-3.61-.8-7.16-5.84-9-9.76-3.94-8.38-6.79-17.28-10.01-26-3.61-9.78-10.24-15.15-20.98-15.12-25.27.07-50.53.09-75.8-.01-10.04-.04-15.73,5.24-19.56,14.03-4.23,9.7-9.72,18.87-13.64,28.68-3.01,7.52-8.26,9.93-15.45,9.85-7.88-.08-15.75-.44-24.96-.71.22-4.98-.49-8.95.69-12.23,4.52-12.48,9.3-24.9,14.62-37.06,22.64-51.73,45.51-103.35,68.3-155.02,1.07-2.43,2.27-4.82,3.2-7.3,3.15-8.41,8.86-13,18.14-12.51,1.99.1,4.02.21,5.98-.06,14.75-2.05,22.98,4.38,28.83,18.13,26.28,61.73,53.45,123.09,80.3,184.58,2.63,6.02,5.69,11.93,4.47,19.58Zm-148.52-90.78c4.29,1.98,6.62,3.99,8.95,4,17.95.02,35.91-.22,53.86-.78,2.27-.07,4.46-2.51,7.11-4.11-.65-2.89-.86-5.57-1.84-7.92-8.19-19.65-16.5-39.26-24.85-58.84-.77-1.8-1.94-3.46-3.14-5.02-2.47-3.21-8.56-2.82-10.18.87-3.73,8.51-7.1,17.17-10.67,25.75-6.13,14.72-12.29,29.43-19.24,46.05Z"/>
  <path d="m324.5,1136.85c55.03.08,82.13,39.66,81.95,78.92-.2,44.19-25,80.95-82.93,82.15-44.5.92-79.88-36.55-79.52-82.19.35-44.17,35.92-79.03,80.5-78.88Z"/>
  <path d="m227.69,1027.49c.18-49.58,55.06-97.57,112.32-73.1,16.57,7.08,29.12,18.34,39.39,31.99,14.08,18.68,17.61,39.64,8.35,62.09-5.63,13.65-12.13,26.57-22.68,37.17-23.53,23.65-56.62,30.7-86.22,18.25-31.7-13.33-51.74-43.26-51.17-76.39Z"/>
  <path d="m1535.74,1136.83c45.31.23,80.86,36.32,80.37,81.57-.47,42.89-38.6,80.76-81,79.77-44.14-1.03-81.61-34.15-81.55-81.33.06-43.31,35.13-81.28,82.18-80.02Z"/>
  <path d="m8144.37,1457.86c1.9-3.18,3.35-6.19,5.33-8.81,13.37-17.7,16.1-16.62,32.43-6.61,17.86,10.95,37.06,18.39,58.57,16.74,5.88-.45,11.9-1.73,17.39-3.84,10.31-3.95,15.65-12.23,16.22-23.1.56-10.61-5.32-17.78-14.53-21.79-8.51-3.71-17.41-6.56-26.28-9.35-6.97-2.19-14.24-3.44-21.23-5.61-7.61-2.36-15.28-4.78-22.53-8.05-28.59-12.85-40.76-32.35-38.46-61.03,2.61-32.56,24.16-51.97,49.97-57.69,30.58-6.76,60.99-5.2,89.1,11.13,3.45,2,6.97,3.96,10.12,6.38,7.25,5.59,8.08,11.22,3.03,19.05-1.44,2.23-3.19,4.26-4.87,6.32-8.71,10.68-10.89,11.5-23.43,4.38-17.36-9.86-35.69-14.27-55.57-12.68-10.75.86-19.03,5.52-24.42,14.96-5.35,9.37-4.39,17.9,4.02,25.03,4.99,4.23,10.91,7.72,16.94,10.28,6.68,2.84,13.99,4.2,21,6.28,11.47,3.42,23.18,6.25,34.3,10.57,8.6,3.34,16.93,7.89,24.54,13.12,10.8,7.41,17.29,18.03,20.02,31.1,6.22,29.74-6.97,58.64-34.13,71.96-18.88,9.26-38.94,12.93-60.13,10.39-22.29-2.67-42.45-10.93-61.6-22.05-6.29-3.66-12.49-7.74-15.81-17.11Z"/>
  <path d="m5763.9,901.74c7.17-.85,12.31-1.97,17.46-1.99,24.62-.09,49.26-.21,73.87.39,9.22.23,18.67,1.38,27.55,3.83,35.54,9.79,58,45.37,54.46,78.75-3.91,36.93-33.35,65.69-69.53,68.19-11.27.78-22.62.45-33.93.71-5.32.12-10.69.03-15.94.72-11.09,1.46-14.91,5.92-14.88,17.24.03,13.3.73,26.61.49,39.9-.2,10.9-3.5,14.22-14.57,14.57-22.34.7-26.43,1.14-26.35-22.72.21-60.55.04-121.1.12-181.65,0-5.24.71-10.48,1.25-17.93Zm37.89,72.64c.17,0,.33,0,.5,0,0,10.62-.5,21.27.19,31.85.41,6.29,4.31,9.77,10.44,10.17,15.25.98,30.55,2.48,45.75-.78,10.71-2.3,20.07-7.13,27.41-15.32,9.16-10.22,12.11-22.52,8.06-35.33-4.26-13.49-13.84-23.72-28.22-25.23-17.78-1.86-35.84-1.46-53.78-1.32-7.16.05-10.07,4.15-10.3,12.04-.23,7.97-.05,15.95-.05,23.92Z"/>
  <path d="m1552.18,1107.58c-43.26,4.77-81.17-39.49-80.62-78.71.6-43,37.7-81.05,79.99-81.11,44.32-.06,80.7,36.74,81.43,81.52.57,34.87-31.26,82.06-80.8,78.3Z"/>
  <path d="m6909.89,1067.44c7.69-.57,12.63,4.65,18.61,7.31,10.92,4.86,21.57,10.67,32.95,14.03,8.71,2.58,18.34,2.53,27.57,2.66,8.27.12,15.2-4.17,21.69-9.12,12.3-9.39,11.19-24.01,2.59-33.26-3.52-3.79-8.16-7.04-12.92-9.07-7.92-3.38-16.28-5.78-24.56-8.22-10.85-3.19-21.89-5.74-32.69-9.09-10.26-3.18-19.28-8.73-27.7-15.52-28.05-22.61-24.38-64.88-5.71-84.09,13.46-13.85,28.61-23.91,48.7-24.03,13.29-.08,26.63-.61,39.86.31,15.57,1.08,29.65,7.35,42.66,15.76,11.5,7.43,12.4,11.66,5.59,22.79-1.04,1.7-2.24,3.31-3.4,4.94-8.07,11.43-10.63,12.39-22.65,4.92-13.99-8.69-29.57-11.96-45.31-14.58-11.84-1.97-22.41,2.57-31.25,10.26-8.16,7.09-9.05,20.4-1.38,28.84,4.29,4.73,10.2,8.75,16.16,11.03,12.4,4.75,25.36,8.01,38.01,12.13,9.48,3.09,19.21,5.76,28.16,10.03,23.49,11.2,38.23,29.4,37.65,56.27-.6,27.96-15.16,47.68-40.75,58.72-22.79,9.84-46.62,10.61-70.55,5.29-19.08-4.24-36.27-13.1-52.21-24.28-10.85-7.61-11.18-12.23-2.22-22.59,2.61-3.02,5.4-5.9,8.34-8.6,1.41-1.3,3.34-2.04,4.74-2.86Z"/>
  <path d="m7253.09,923.75c-.71,11.86-8.23,18.06-13.91,25.23-2.78,3.51-7,3.67-10.94,2.16-3.08-1.17-5.78-3.33-8.86-4.51-10.51-4.04-21.04-8.06-31.71-11.68-11.36-3.86-22.37-.82-33.14,2.83-9.28,3.15-13.41,10.6-14.55,19.72-1.2,9.59,2.8,17.32,11.4,21.37,10.18,4.79,20.81,8.74,31.48,12.35,9.43,3.19,19.23,5.26,28.77,8.12,5.08,1.52,10.06,3.47,14.93,5.59,46.07,20.13,48.2,79.09,12.2,106.57-11.32,8.64-24.01,14.33-38.14,16.17-36.71,4.79-69.84-4.76-100.01-25.64-1.63-1.13-3.18-2.42-4.61-3.8-4.63-4.47-5.27-8.99-1.9-14.26,1.42-2.23,3-4.43,4.86-6.29,13.04-13.06,14.84-13.28,28.86-4.92,6.27,3.74,12.95,6.81,19.3,10.43,14.55,8.29,30.36,9.4,46.46,7.89,11.3-1.05,19.69-7.59,25.98-16.65,4.68-6.73,3.96-13.84-.21-20.64-3.98-6.49-9.92-10.93-16.85-13.5-9.32-3.46-18.88-6.36-28.49-8.95-14.14-3.81-28.16-7.74-41.3-14.48-25.96-13.33-38.65-33.71-36.07-58.67,2.74-26.61,20.8-50.53,46.82-56.17,33.73-7.31,67.54-7.21,98.26,12.47,4.31,2.76,8,6.47,11.37,9.23Z"/>
  <path d="m1401.95,1392.72c2.23,48.86-43.57,81.75-81.28,80.03-43.34-1.97-78.91-39.18-77.82-84.69.73-30.46,31.53-75.82,81.41-75.02,42.18.68,81.6,38.91,77.69,79.68Z"/>
  <path d="m929.39,512.48c-40.58,1.23-78.29-38.31-78.35-77.72-.06-39.39,28.06-80.06,83.18-80.45,38.66-.28,76.15,39.8,75.64,78.13-.62,46.09-41.01,81.73-80.47,80.04Z"/>
  <path d="m617.07,1391.55c1.13,37.93-26.62,78.57-80.04,78.79-51.42.21-77.92-41.67-78.28-78.7-.39-40.53,35.86-77.79,77.32-77.91,50.31-.15,82.66,40.06,81.01,77.83Z"/>
  <path d="m6167.65,1327.73c-6.38-4.25-12.32-8.42-18.47-12.24-17.14-10.62-35.92-14.28-55.61-10.85-31.95,5.56-50.05,26.49-57.6,56.58-6.75,26.87-.4,51.61,17.55,72.83,20.9,24.71,53.79,31.93,83.3,18.25,9.01-4.17,17.21-10.06,25.87-14.99,7.9-4.49,11.25-4.06,17.87,1.77,16.07,14.15,16.15,21.28-1.35,34.45-31.18,23.47-65.65,30.22-103.7,19.93-47.26-12.78-79.03-50.29-84.31-100.25-6.11-57.83,23.73-95.8,57.25-114.1,44.17-24.11,97.01-20.38,135.35,9.86,1.57,1.24,3.17,2.46,4.57,3.87,3.62,3.66,4.53,8.33,1.95,12.77-5.41,9.28-12.31,17.11-22.66,22.11Z"/>
  <path d="m5928.37,590.96c-3.73-2.49-7.71-4.82-11.34-7.6-48.08-36.69-110.15-12.25-120.19,47.36-7.36,43.7,18.95,82.52,61.4,90.83,19.63,3.84,36.78-2.69,53.13-12.39,6.25-3.71,12.04-8.21,18.65-12.77,4.2,2.12,8.82,3.49,12.21,6.33,18.87,15.8,15.71,21.81-.61,33.45-32.9,23.45-68.86,31.55-107.87,19.81-53.54-16.12-87.77-69.39-81.48-124.99,6.56-58,50.6-99.9,108.62-104.05,31.38-2.25,59.23,6.42,84.22,24.99,9,6.69,10.19,13.69,3.38,22.12-5.36,6.64-11.08,13.26-20.13,16.9Z"/>
  <path d="m6430.86,1456.53c-5.23,9.7-13.99,14.74-22.06,20.45-43.6,30.86-99.99,23.21-129.97,2.09-41.31-29.11-59.7-69.55-51.18-119.44,8.81-51.57,54.36-103.69,131.72-94.72,19.41,2.25,37.7,8.2,53.68,19.9,4.27,3.13,8.31,6.67,11.99,10.47,3.07,3.17,3.44,7.51.73,10.97-6.08,7.77-11.25,16.54-21.72,21.69-5.73-3.76-11.63-7.91-17.8-11.62-19.65-11.84-40.59-16.35-63.13-10.19-28.63,7.81-45.19,27.32-50.95,55.61-3.2,15.71-2.22,31.85,3.17,47.3,15.7,44.99,64.52,63.76,107.44,38.37,3.99-2.36,7.43-5.65,11.43-7.98,12.61-7.33,22.29-5.28,31.13,6.69,2.31,3.12,3.69,6.92,5.51,10.42Z"/>
  <path d="m6481.16,901.56c6.7-.75,11.85-1.81,17-1.82,43.31-.13,86.63-.08,129.94-.07,2.66,0,5.34-.04,7.98.24,6.42.69,9.81,3.56,10.86,9.7.66,3.91.94,7.95.8,11.92-.4,11.82-3.9,15.41-15.55,16.09-4.65.27-9.33.13-13.99.13-23.99.01-47.98-.02-71.97.02-5.33,0-10.68-.07-15.97.43-6.66.64-10.05,3.61-10.26,9.99-.41,12.63-.42,25.3.02,37.93.21,6.12,3.93,9.24,10.54,9.78,5.96.48,11.98.35,17.98.36,19.99.04,39.98,0,59.96.03,4,0,8.02-.12,11.98.27,7.56.74,10.55,3.81,11.19,11.46.33,3.97.33,8,.11,11.98-.18,3.24-.92,6.45-1.33,9.15-6.88,5.84-14.37,5.18-21.58,5.21-18.66.06-37.31-.08-55.97-.16-9.91-.04-19.9-.93-28.9,2.24-5.19,5.49-4.38,11.69-4.41,17.61-.1,15.99-.02,31.97-.05,47.96,0,3.99.07,8.01-.35,11.97-.65,6.2-3.94,10-10.18,10.27-8.53.37-17.11-.29-26.25-.52-1.24-4.84-2.99-8.55-3.01-12.26-.24-65.28-.29-130.56-.27-195.83,0-3.91.9-7.82,1.68-14.06Z"/>
  <path d="m1643.45,841.04c3.94,40-38.96,75.18-75.13,74.62-41.91-.65-76.69-35.06-76.41-76.32.28-41.36,35.15-75.57,77.08-75.61,41.48-.04,74.33,34.07,74.45,77.31Z"/>
  <path d="m291.58,915.3c-32.84,3.83-74.57-30.64-74.53-75.32.04-41.97,35.35-76.93,76.15-76.53,38.56.37,74.67,37.43,75.04,76.4.33,34.18-31.25,78.21-76.67,75.45Z"/>
  <path d="m433.2,823.16c2.57-34.52,30.37-68.01,70.69-68.79,40.14-.77,72.21,36.74,74.35,68.95.51,7.72-.64,16.24-3.54,23.36-11.97,29.36-34.48,46.44-65.39,52.54-3.83.76-8.64,1.55-11.79-.04-18.46-9.36-40.88-12.84-52.1-33.38-7.42-13.58-11.65-28.12-12.22-42.63Z"/>
  <path d="m1356.81,755.05c34.91-3.56,69.7,31.71,70.47,69.55.76,37.5-32.18,71.13-69.12,71.3-41.11.19-73.19-30.59-73.18-71.23.02-38.35,33.38-73,71.83-69.62Z"/>
  <path d="m1313.3,1512.96c46.72,1.09,70.82,38.83,69.29,72.27-1.89,41.24-33.77,69.22-73.76,68.38-36.48-.77-70.05-37.22-68.26-72.87,1.63-32.65,30.46-69.46,72.74-67.78Z"/>
  <path d="m478.82,1583.54c-.13-39.69,31.15-71.09,70.7-70.85,35.63.22,69.83,31.21,69.75,70.31-.07,34.24-26.96,70.54-69.22,70.58-46.96.05-72.06-36.17-71.23-70.04Z"/>
  <path d="m7337.21,1309.23c-3.19,8.79-2.38,16.81-2.4,24.69-.06,43.97-.01,87.94,0,131.9,0,2.66.03,5.33-.06,7.99-.57,15.92-6.36,21.34-22.26,20.65-3.3-.14-6.61-.75-9.84-1.48-5.02-1.15-8.37-4.48-9.07-9.49-.83-5.9-1.16-11.91-1.17-17.87-.09-43.97,0-87.94-.07-131.91-.04-26.66-.17-26.74-26.55-26.92-10-.07-20.01.24-29.99-.17-9.61-.4-12.71-3.68-14.06-13.35-.09-.66-.22-1.32-.27-1.98-1.63-23.06,4.54-23.94,21.54-23.88,45.98.16,91.97-.12,137.95-.22,1.33,0,2.68-.06,4,.08,6.45.68,14.17-1.54,18.42,5.06,5.39,8.37,4.56,18.01,1.61,26.93-1.01,3.04-5.4,6.11-8.8,6.94-5.04,1.25-10.56.55-15.88.62-11.99.16-23.98.22-35.97.49-1.91.04-3.79.99-7.12,1.92Z"/>
  <path d="m8051.65,1307.76c-6.11,9.29-4.52,16.81-4.55,23.96-.15,44.58-.06,89.16-.09,133.74,0,5.32.05,10.66-.46,15.95-.64,6.66-3.49,9.96-9.85,10.51-9.83.86-19.85,2.38-28.98-1.84-5.84-7.4-4.24-15.66-4.27-23.5-.13-43.91-.06-87.83-.07-131.75,0-5.32.2-10.66-.18-15.96-.61-8.5-3.76-11.66-12.76-11.87-13.97-.32-27.95.13-41.92-.1-10.24-.17-12.98-2.81-13.86-12.83-.46-5.28-.62-10.65-.22-15.92.47-6.2,3.83-9.39,10.3-10.14,4.61-.53,9.3-.5,13.95-.5,43.26-.03,86.53-.05,129.79.02,5.3,0,10.78-.2,15.87,1.02,14.53,3.49,20.77,22.11,11.11,33.42-2.27,2.66-6.75,4.45-10.37,4.73-8.6.67-17.28.06-25.93.2-9.23.15-18.46.56-27.51.86Z"/>
  <path d="m6775.3,753.31c-.28-7.16-.79-14.39-.8-21.63-.08-44.63-.19-89.26.02-133.89.13-27.98-1.16-27.86-29.81-28.41-9.31-.18-18.64.4-27.95.06-3.82-.14-7.58-1.78-11.13-2.67-.97-2.52-2.13-4.31-2.32-6.2-2.98-30.23,1.4-30.07,26.75-29.91,43.31.26,86.62.31,129.93.53,7.23.04,14.46.49,21.71.75,1.73,4.16,3.82,7.09,4.09,10.18,2.26,25.92-.89,27.21-23.42,27.74-11.3.27-22.62-.05-33.92.18-3.2.07-6.37,1.14-9.3,1.7-4.99,8.01-3.51,16.22-3.55,23.99-.19,45.3-.07,90.59-.04,135.89,0,3.33.32,6.67.18,9.99-.44,10.14-3.98,14.09-14.37,15.59-7.94,1.14-15.92,1.62-26.08-3.89Z"/>
  <path d="m772.56,435.34c1.48,38.47-37.63,69.21-66.98,68.64-37.56-.73-68.56-29.43-69.5-65.84-1.02-39.47,29.01-67.43,71.8-68.62,37.65-1.04,65.98,38.93,64.68,65.81Z"/>
  <path d="m1156.64,369.84c38.75,1.37,68.64,30.88,66.84,67.04-2.03,40.74-34.88,68.16-70.47,66.91-35.13-1.24-65.7-33.25-64.68-68.42,1.03-35.54,29.67-68.56,68.31-65.53Z"/>
  <path d="m931.35,178.86c35.14-1.24,65.04,32.05,64.51,65.34-.53,33.7-32.49,64.66-66.25,64.75-28.18.08-64.47-26.1-64.13-66.51.31-36.46,32.61-66.24,65.87-63.59Z"/>
  <path d="m930.28,1824.43c-36.5-.1-62.5-27.62-63.78-65.3-.92-27.12,24.81-63.59,62.25-62.84,37.07.75,65.9,23.7,65.85,67.38-.04,32.65-30.19,60.85-64.33,60.77Z"/>
  <path d="m341.96,1467.64c-31.64-.15-61.54-30.01-61.6-61.52-.06-29.1,31.64-61.95,60.38-61.14,36.39,1.02,62.48,27.74,62.41,64.12-.06,31.3-28.8,58.69-61.19,58.54Z"/>
  <path d="m1578.56,1409.38c.08,30.57-27.89,57.98-59.44,58.27-31.56.28-62.39-29.7-62.62-60.87-.21-29.62,30.62-62.08,59.96-61.76,29.14.32,61.45,19.29,62.1,64.36Z"/>
  <path d="m1835.42,861.56c.09,32.94-24.57,57-58.09,58.45-23.25,1.01-55.48-31.21-54.75-56.89.88-31.02,26.27-57.76,57.4-57.72,30.63.04,57.63,26.89,55.44,56.15Z"/>
  <path d="m137.09,863.37c.1,36.4-33.35,57.51-59.96,56.58-27.83-.98-52.12-27.94-51.81-58.15.32-30.94,26.19-57.68,55.44-56.67,28.18.97,57.87,24.88,56.33,58.25Z"/>
  <path d="m1355.73,1772.63c-1.21,29.21-27,54.17-54.51,52.82-39.76-1.95-57.64-32.61-56.24-55.5,1.93-31.69,27.31-55.64,57.66-54.58,28.31.99,54.27,28.98,53.09,57.26Z"/>
  <path d="m559.12,1825.32c-30.88,1.23-53.73-26.73-53.73-55.28,0-28.39,27.38-54.86,55.67-54.87,27.33,0,54.51,26.46,54.78,53.34.32,32.26-24.35,56.96-56.73,56.81Z"/>
  <path d="m1529.93,651.67c-.12-27.76,26.98-54.39,55.48-54.52,28.11-.13,55.32,26.62,55.5,54.56.18,28.66-27.58,55.94-56.62,55.62-28.21-.31-54.24-26.96-54.37-55.66Z"/>
  <path d="m220.05,651.58c-.05-23.27,21.92-54.31,55.82-54.81,26.06-.39,54.56,27.47,54.42,51.81-.19,32.61-26.63,59.64-57.82,59.1-25.7-.45-52.95-29.6-52.42-56.1Z"/>
  <path d="m7314.11,901.64c2.69-.65,5.17-1.72,7.68-1.8,30.26-.99,29.52.21,29.39,27.28-.25,54.44-.08,108.88-.08,163.33,0,3.98.03,7.97,0,11.95-.18,20.9-.82,21.59-20.96,21.45-3.97-.03-7.95-.3-11.9-.71-1.22-.13-2.36-1.09-3.54-1.66-4.43-4.23-3.5-9.78-3.52-14.97-.15-40.5-.2-81-.28-121.49-.04-20.58-.14-41.16-.05-61.74.03-7.17-.74-14.57,3.27-21.63Z"/>
  <path d="m1802.98,723.68c-27.98,3.02-50.63-23.31-50.73-49.95-.1-26.29,23.31-49.3,50.12-49.53,26.11-.23,49.07,23.36,49.84,49.82.65,22.34-22.28,52.58-49.23,49.65Z"/>
  <path d="m749,247.45c-.14,23.3-22.93,48.77-45.54,50.89-21.13,1.98-45.84-15.79-51.25-36.84-6.79-26.46,7.03-53.15,32.51-63.16,7.73-3.03,15.67-3.63,23.51-1.73,21.4,5.19,41.68,28.68,40.77,50.84Z"/>
  <path d="m1161.06,296.59c-23.07-.44-38.86-12.84-45.71-33.38-8.77-26.31,6.5-52.15,25.88-62.73,8.54-4.66,17.76-6.4,26.95-4.06,20.2,5.16,33.87,18.26,39.38,38.23,5.37,19.46.07,36.79-15.05,50.52-9.25,8.4-20.32,12.24-31.45,11.41Z"/>
  <path d="m124.32,1284.13c-26.48,2.56-47.06-23.43-47.38-46.53-.34-24.32,23.2-47.71,47.42-47.74,25.05-.03,47.63,22.24,47.93,46.83.29,23.47-16.49,48.5-47.97,47.44Z"/>
  <path d="m1733.2,1284.12c-22.95,2.18-46.06-24.14-45.07-46.5,1.14-25.72,22.66-47.84,47.14-47.74,25.57.1,48.38,23.16,48.42,48.7.03,22.96-20.85,46.92-50.49,45.54Z"/>
  <path d="m976.91,1950.35c-.23,24.61-21.38,44.32-47.28,44.06-25.67-.26-46.41-20.7-46.01-45.35.38-23.34,23.53-46.6,46.22-46.47,24.35.14,47.3,23.43,47.07,47.76Z"/>
  <path d="m1524.91,1785.76c-.43,22.81-18.16,39.4-41.31,38.64-22.99-.75-40.21-18.56-39.57-40.91.64-22.4,18.54-39.03,41.81-38.87,22.64.16,39.51,17.92,39.07,41.13Z"/>
  <path d="m376.38,1744.83c17.78-.2,35.28,13.29,39.59,30.46,3.61,14.4-1.9,25.89-11.53,36-10.23,10.73-22.04,17.05-37.29,11.96-16.59-5.54-29.24-15.36-33.58-33.23-.75-3.08-.5-6.61.12-9.77,3.79-19.06,23.39-35.21,42.68-35.43Z"/>
</svg>