<?xml version="1.0" encoding="UTF-8"?>
<svg id="Layer_1" data-name="Layer 1" xmlns="http://www.w3.org/2000/svg" viewBox="0 0 8347 1861">
  <path d="m555.93,0c7.99,7.45,16.42,14.49,23.9,22.42,21.48,22.75,42.15,46.28,63.91,68.75,38.21,39.44,77.08,78.25,115.49,117.5,11.87,12.13,23.72,24.35,34.54,37.39,12.58,15.17,25.48,30.02,40.71,42.47,14.7,12.01,20.39,26.88,19.89,45.54-.98,36.26-1.39,72.55-1.4,108.83-.01,81.91.25,163.82.63,245.72.21,46.93.9,93.87,1.24,140.8.05,6.31-.27,12.67-1.14,18.91-1.57,11.3-6.89,15.63-18.08,15.61-50.97-.12-101.94-.35-152.9-.33-114.93.05-229.86.23-344.8.33-5.33,0-10.67-.07-15.97-.49-16.55-1.31-30.99-7.22-42.3-19.83-5.78-6.44-11.51-12.96-17.65-19.04-5.19-5.14-10.58-10.24-16.56-14.37-7.54-5.2-14.01-11.05-18.67-19.03-1.62-2.77-4.36-5-6.89-7.11-40.98-34.23-77.26-73.32-115-110.91-27.35-27.24-52.48-56.68-81.87-81.9-6.54-5.62-12.13-12.34-18.27-18.44-1.32-1.31-3.14-2.1-4.74-3.13,0-2,0-4,0-6,1.22-.37,2.49-.61,3.65-1.13,6.35-2.85,12.42-7.39,19.03-8.36,27.53-4.04,53.74-12.38,79.69-21.98,5.88-2.18,12.16-3.33,18.32-4.72,12.32-2.79,24.75-5.1,36.98-8.2,14.48-3.67,28.78-8.02,43.19-11.96,6.08-1.66,8.83-4.08,8.61-10.4-.23-6.59-1-13.32-2.72-19.67-12.49-45.89-25.35-91.68-37.96-137.54-9.88-35.92-19.74-71.84-29.33-107.84-8.21-30.84-14.43-62.24-26.09-92.11-.36-.93-.74-1.88-.9-2.85-1.4-8.36,3.69-12.57,11.66-9.86,35.57,12.12,71.28,23.69,107.94,32.31,34.96,8.22,69.4,18.69,104.45,26.44,46.1,10.2,92.09,20.79,137.77,32.73,12.78,3.34,19.55-1.1,23.14-14.95,9.67-37.35,19.31-74.71,28.8-112.1C534.07,60.57,540.5,29.23,553.93,0c.67,0,1.33,0,2,0Z"/>
  <path d="m1299.84,1861c-11.24-11.29-22.48-22.58-33.71-33.87-31.72-31.88-63.43-63.76-95.16-95.64-30.77-30.92-61.82-61.57-92.24-92.83-23.46-24.1-46.18-48.91-69.12-73.51-6.4-6.86-9.05-15.47-9.56-24.65-.27-4.97.11-9.98.39-14.96.52-9.3,1.68-18.59,1.7-27.89.32-150.9.48-301.81.8-452.71.02-9.97.75-19.97,1.72-29.89,1.29-13.18,3.99-15.4,16.92-15.52,2.33-.02,4.67,0,7,0,152.31,0,304.63,0,456.94-.01,11.66,0,23.33-.09,34.99-.33,24.5-.5,44.34,9.32,61.46,26.38,34.69,34.56,69.76,68.73,104.6,103.15,11.85,11.71,23.41,23.71,35.19,35.48,40.07,40.04,80.17,80.03,120.26,120.04.94.94,1.93,1.85,2.76,2.88,5.93,7.41,3.7,13.93-5.65,16.14-13.28,3.14-26.71,5.7-39.87,9.27-35.33,9.57-70.52,19.61-105.81,29.31-9.94,2.73-20.03,4.92-30.04,7.4-3.23.8-6.51,1.49-9.61,2.66-10.14,3.84-13.6,9.68-10.97,20.25,3.53,14.2,7.65,28.26,11.73,42.31,9.28,31.94,18.69,63.85,28.04,95.77.75,2.56,1.78,5.07,2.18,7.68,6.29,40.64,21.72,78.83,31.74,118.48,6.85,27.1,14.4,54.01,21.61,81.02,2.41,9.03.4,12.04-8.74,11.59-6.26-.31-12.59-1.4-18.68-2.96-30.93-7.92-61.81-16.04-92.67-24.22-15.76-4.17-31.48-8.48-47.16-12.94-19.81-5.64-39.6-10.69-60.29-12.95-16.4-1.79-32.43-7.17-48.56-11.23-18.06-4.54-36.08-9.27-54.06-14.11-10.92-2.94-21.77-6.16-32.6-9.4-7.31-2.18-11.3-.87-14.7,5.89-1.47,2.92-2.3,6.22-3.04,9.44-5.87,25.62-9.97,51.78-17.86,76.76-11.55,36.55-19.88,73.87-30.12,110.71-1.65,5.94-5.14,11.37-7.78,17.03h-2Z"/>
  <path d="m8347,1397.25c-3.47,9.5-10.69,12.52-20.26,12.48-35.97-.16-71.93.02-107.9-.11-13.03-.05-17.43-4.3-17.7-17.43-.34-16.32-.11-32.65-.11-48.97,0-48.97-.02-97.95,0-146.92.01-17.39,2.09-19.63,19.47-19.7,34.66-.14,69.32-.12,103.99,0,15.62.06,18,2.6,18.17,17.94.02,2,.1,4.01-.04,5.99-.6,8.03-3.1,10.67-11.07,11.15-7.64.46-15.3.76-22.95.82-16.66.12-33.33,0-49.99.06-3.32.01-6.69.09-9.96.6-6.72,1.05-9.62,3.81-9.79,10.45-.34,12.65-.32,25.32-.05,37.97.13,6.39,2.6,9.03,8.8,10.24,3.23.63,6.62.64,9.94.65,21,.06,41.99-.1,62.99.07,18.8.15,21.18,2.83,20.46,21.75-.38,9.9-2.37,12.54-12.15,13.38-8.94.77-17.96.65-26.94.79-16.99.27-33.99.19-50.96.77-10.43.35-12.2,2.49-12.22,12.67-.02,11.66,0,23.32.44,34.97.48,12.99,4.2,16.69,17.07,16.75,21.33.09,42.66-.05,63.98-.38,18.98-.29,20.08.27,26.8,18.01v6Z"/>
  <path d="m577.84,999.52c84.97,0,169.93,0,254.9,0,19.85,0,21.98,2.18,21.5,21.63-.2,7.99-.33,15.98-.33,23.97-.02,103.58-.05,207.16,0,310.74.02,49.62-.12,99.24.51,148.84.2,16.07,0,31.85-4.12,47.5-2.28,8.66-6.31,15.97-12.72,22.17-14.36,13.89-28.89,27.62-42.87,41.89-54.56,55.64-108.96,111.43-163.36,167.23-16.26,16.68-32.21,33.67-48.51,50.3-6.28,6.41-12.92,12.53-19.85,18.23-5.51,4.52-9.03,3.33-10.94-3.48-4.39-15.65-10.87-30.61-13.27-46.98-1.72-11.71-6.69-22.93-10.01-34.43-4.42-15.32-8.86-30.63-12.89-46.05-4.79-18.34-9.01-36.82-13.78-55.17-1.41-5.44-3.51-10.77-5.87-15.88-5.41-11.73-9.79-13.13-22.18-9.52-16.58,4.82-33.12,10.47-50.09,13.06-20.32,3.11-38.7,12.26-58.6,16.13-55.96,10.89-109.84,29.53-164.88,43.84-9.34,2.43-18.78,4.44-28.12,6.86-14.8,3.82-29.57,7.74-44.31,11.78-6.58,1.8-10.34-.44-10.77-7.19-.14-2.27.37-4.64.94-6.88,7.19-28.03,14.08-56.14,21.76-84.03,18-65.42,36.43-130.72,54.56-196.1,2.31-8.32,3.62-16.9,5.82-25.25,2.78-10.6,5.99-21.09,9.03-31.62.92-3.19,2.18-6.31,2.82-9.55,1.93-9.86-.87-15.39-10.47-18.48-12.03-3.86-24.31-6.91-36.49-10.29-38.46-10.68-76.91-21.42-115.4-32-9.94-2.73-20.02-4.93-30.01-7.47-2.89-.73-5.81-1.53-8.5-2.78-3.62-1.69-4.62-4.98-2.87-8.37,1.5-2.89,3.65-5.58,5.97-7.9,71.33-71.4,142.71-142.74,214.09-214.09,18.38-18.37,37.1-36.41,55-55.23,10.18-10.71,21.9-15.21,36.44-15.17,85.96.2,171.92.1,257.88.1,0-.12,0-.25,0-.37Z"/>
  <path d="m1644.54,525.09c4.08-2.18,7.27-3.6,10.15-5.48,9.51-6.18,13.31-6.18,22.55.55,2.15,1.57,4.2,3.28,6.26,4.97,3.91,3.18,8.12,4.59,12.91,2.11,5.5-2.85,10.84-1.73,16.42.02,9.52,2.98,19.25,5.26,28.76,8.25,9.8,3.08,19.61,6.27,29.11,10.15,8.42,3.45,16.86,5.91,26.01,6.25,17.13.63,33.33,5.17,50.13,12.28-14.81,17.02-26.55,35.26-42.76,49.82-7.43,6.67-14.52,13.73-21.58,20.8-13.89,13.9-27.54,28.03-41.51,41.84-4.96,4.9-10.25,9.6-15.97,13.57-11.35,7.89-21.01,17.37-29.44,28.24-13.52,17.44-29.23,32.72-45.66,47.44-10.38,9.3-19.86,19.73-28.78,30.46-4.06,4.88-8.27,8.69-14.1,10.38-7.87,2.28-13.47,6.55-16.68,14.33-2.64,6.39-7.28,10.79-14.44,12.68-2.73.72-5.77,3.42-7.02,6.01-6.86,14.15-18.76,20.27-33.57,21.64-9.27.86-18.62,1.25-27.93,1.26-160.31.07-320.62,0-480.93.1-23.98.01-21.51-4.25-21.82-20.16-.08-3.99-.41-7.98-.42-11.96-.02-163.24-.02-326.48-.02-489.72,0-2.33.07-4.67,0-7-.61-21.12,6.55-38.75,21.92-53.66,26.05-25.28,51.71-50.98,77.06-76.97,37.67-38.63,74.85-77.72,112.37-116.5,19.92-20.59,39.92-41.11,60.31-61.23,4.33-4.27,10.21-7.43,15.92-9.75,6.7-2.72,10.81-.9,13.76,5.82,3.73,8.5,7.84,17.2,9.41,26.23,5.24,30.27,14.56,59.42,22.61,88.94,5.51,20.2,9.58,40.78,14.52,61.14,1.4,5.78,2.85,11.74,5.53,16.98,5.11,10,14.18,13.79,24.35,9.07,20.31-9.43,42.19-11.82,63.68-16.17,6.18-1.25,12.62-2.23,18.31-4.75,24.07-10.63,49.69-14.69,75.34-18.83,2.6-.42,5.4-.64,7.7-1.77,18.43-9.07,38.17-13.67,58.21-17.18,19.43-3.41,38.13-9.16,56.53-16.18,17.7-6.76,36.27-8.37,55.03-7.9,10.82.27,13.51,3.43,13.02,14.24-.15,3.3-.22,6.83-1.44,9.81-6.49,15.9-9.05,32.61-11.37,49.47-2.68,19.57-9.62,37.99-16.29,56.48-2.68,7.43-4.04,15.34-5.91,23.05-.47,1.93-.14,4.14-.92,5.9-6.96,15.84-6.48,33.68-13.46,49.49-.27.6-.46,1.26-.53,1.91-2.76,23.37-12.28,44.84-18.79,67.16-2.32,7.97-3.78,16.18-5.85,24.22-3.3,12.86-6.23,25.86-10.33,38.47-4.61,14.19-3.02,28.01-.35,43.66Z"/>
  <path d="m3367.49,1171.09c0,27.64-.01,55.29,0,82.93,0,9.14-5.42,13.31-14.26,10.38-3.73-1.24-7.2-3.41-10.63-5.44-38.97-23.1-80.18-40.64-124.94-48.56-48.02-8.5-95.98-9.58-143.41,4.55-30.58,9.11-55.36,26.4-76.56,50.19-27.04,30.35-40.17,65.48-40.3,105.67-.06,16.92-1.32,34.34,2.09,50.68,11.87,56.8,44.23,98.19,98.17,121.31,26.58,11.39,54.33,17.49,83.58,16.56,23.61-.76,47.3.78,70.69-4.03,43.72-8.99,84.85-24.85,123.84-46.39,4.92-2.72,9.16-6.67,13.95-9.65,9.57-5.95,16.3-2.9,17.31,8.39,1.06,11.92,1.41,23.93,1.5,35.9.18,25.98,1.54,51.81,4.34,77.69,2.14,19.78,1.26,39.89,1.66,59.86.12,5.95-2.63,10.21-8.11,12.57-45.55,19.58-90.77,40.27-140.54,47.2-37.25,5.18-74.57,9.87-111.88,14.64-14.34,1.83-28.54.19-42.72-2.27-18.68-3.25-37.34-6.85-56.15-9.01-23.77-2.73-45.89-10.82-68.21-18.53-50.07-17.3-92.33-46.92-130.65-82.72-23.47-21.93-43.69-46.62-61.36-73.41-1.83-2.78-3.79-5.52-5.21-8.51-16.88-35.61-31.48-71.93-35.99-111.56-1.65-14.54-4.09-29-6-43.52-2.8-21.36-.35-42.63,2.45-63.7,3.23-24.37,7.07-48.75,12.39-72.74,7.92-35.7,26.3-66.71,47.16-96.22,34.22-48.39,77.15-87.15,129.82-114.62,34.77-18.14,71.84-29.44,110.33-36.95,46.05-8.98,92.36-12.46,139.14-10.21,32.72,1.57,64.7,7.93,96.44,15.74,34.31,8.44,68.02,18.63,100.12,33.63,2.41,1.13,4.78,2.36,7.21,3.43,10.81,4.78,14.92,13.35,14.84,24.8-.18,27.31-.06,54.62-.06,81.93-.03,0-.05,0-.08,0Z"/>
  <path d="m2402.17,873.4c-15.15-.55-33.44-1.26-51.74-1.87-21.54-.73-42.08-6.12-62.26-13.21-5.65-1.99-11.23-4.29-17.03-5.71-22.88-5.61-43.7-15.91-63.95-27.56-47.24-27.18-89.1-60.75-122.59-104.05-7.92-10.24-15.84-20.76-21.79-32.18-16.31-31.29-31.58-63.12-38.16-98.25-5.42-28.95-6.03-58.21-5.71-87.53.13-11.65,1.14-23.31.7-34.93-1.11-29.48,5.51-57.82,14.76-85.15,11.96-35.37,28.33-69.05,51.36-98.85,38.59-49.93,86.53-88.24,144.41-113.75,29.9-13.18,60.35-25.18,92.98-29.37,23.08-2.96,46.41-4.07,69.65-5.64,30.64-2.08,61.21-.47,91.77,2,35.06,2.84,69.03,10.7,102.27,21.78,25.85,8.62,52.13,16.09,76.79,28.12,8.7,4.25,12.37,10.14,12.43,19.49.32,53.91.87,107.83,1.21,161.74.03,4.62-.45,9.34-1.41,13.86-1.08,5.08-3.96,6.56-8.87,4.95-2.49-.81-4.73-2.39-7.09-3.61-19.18-9.95-38.35-19.9-57.54-29.83-23.23-12.03-47.83-19.28-73.71-23.49-29.04-4.72-58.06-8.47-87.46-6.37-37.83,2.7-73.61,12.49-104.64,35.18-43.09,31.51-66.62,74.41-71.04,127.48-2.72,32.67.76,64.82,15.59,94.43,24.97,49.85,64.37,82.12,119.41,94.57,40,9.05,79.91,7.96,120.03,1.06,32.09-5.52,62.49-15.86,91.62-30.2,16.09-7.92,33.31-13.63,47.76-24.71.26-.2.59-.31.88-.47,13.02-6.99,17.09-4.42,16.95,10.17-.07,7.3.74,14.6,1.12,21.9.28,5.32.59,10.63.76,15.95,1.1,35.25,2.17,70.51,3.23,105.76.19,6.32.3,12.64.45,18.96.28,11.88-4.82,20.21-15.68,25.43-23.11,11.11-46.38,21.68-71.24,28.5-33.71,9.26-67.35,18.6-102.28,22.4-29.55,3.21-59.15,3.49-91.96,3.01Z"/>
  <path d="m3465.92,502.95v-9.98c0-104.59-.02-209.17.03-313.76,0-6.98.27-13.98.83-20.94.8-10.04,3.55-12.49,13.85-13.09,2.33-.14,4.66-.07,7-.07,161.28,0,322.55,0,483.83,0,20.19,0,22.03,1.9,22.04,22.41.02,37.3,0,74.59,0,111.89,0,1,0,2,0,3-.26,20.47-5.93,25.71-26.63,25.41-50.62-.74-101.24-1.4-151.86-1.9-24.31-.24-48.63-.05-72.95-.03-3,0-6.02-.09-8.99.22-10.32,1.09-14.37,5.05-14.43,15.38-.2,30.97-.2,61.95,0,92.93.07,10.84,3.31,13.69,14.99,13.74,30.99.12,61.98.04,92.97.04,41.98,0,83.97-.02,125.96.03,3.98,0,8.01.13,11.92.79,10.47,1.75,14.41,5.99,14.88,16.68.49,10.97.48,21.97.46,32.96-.04,29.64-.12,59.28-.34,88.92-.11,14.39-4.46,18.93-18.88,20.19-3.64.32-7.32.32-10.98.33-26.99.03-53.98-.03-80.97.02-43.96.08-87.93.21-131.89.38-2.65.01-5.3.54-7.95.81-5.79.59-9.12,3.76-9.73,9.54-.52,4.95-1.14,9.92-1.15,14.89-.07,74.94-.29,149.89.1,224.83.11,21.8-6.96,23.88-24.04,24.49-17.29.61-34.63-.17-51.95-.33-27.31-.26-54.62-.75-81.93-.68-22.97.06-45.94.97-68.91,1.14-20.06.15-24.08-3.93-24.07-22.54.03-106.24-.32-212.48-.54-318.72-.01-6.32,0-12.64,0-18.97-.22,0-.44,0-.66,0Z"/>
  <path d="m2120.74,1378.32c0-110.57,0-221.14.02-331.72,0-3.99-.04-8.01.45-11.96.91-7.42,3.28-9.73,10.74-10.76,2.95-.41,5.98-.36,8.98-.36,160.26-.02,320.53-.02,480.79.02,4.64,0,9.36.14,13.91.96,6.86,1.24,9.06,3.76,9.89,10.61.48,3.95.48,7.98.48,11.97.03,37.97.03,75.93.01,113.9-.01,20.21-1.92,22.37-22.24,22.38-73.96.02-147.93-.17-221.89-.25-4.66,0-9.34.01-13.98.33-10.39.72-13.68,3.82-14.04,14.21-.45,13.31-.45,26.63-.45,39.95,0,16.98.21,33.96.3,50.95.09,14.81,1.97,16.77,16.64,16.8,70.96.14,141.93.24,212.89.42,5.31.01,10.66.27,15.93.95,9.85,1.27,13.3,4.75,14.16,14.84.62,7.28.48,14.64.48,21.96,0,30.97-.02,61.94-.19,92.9-.02,3.96-.69,7.95-1.48,11.85-2.11,10.55-4.69,12.91-15.05,13.91-3.3.32-6.66.21-9.99.21-67.64,0-135.27,0-202.91.02-6.32,0-12.65.02-18.96.31-7.48.35-10.78,3.51-11.37,11.13-.46,5.97-.47,11.98-.47,17.97-.03,75.27-.01,150.54-.02,225.81,0,19.76-2.67,22.99-22.13,23.18-38.98.37-77.96.19-116.94.26-27.98.05-55.97-.18-83.94.3-24.34.42-30.24-4.8-30.25-29.37-.05-111.23-.02-222.45-.02-333.68.22,0,.44,0,.65,0Z"/>
  <path d="m3069.64,145.11c106.63,0,213.25,0,319.88,0,2.67,0,5.33-.02,8,0,15.08.13,17.43,2.02,17.6,17.31.22,19.97-.43,39.94-.5,59.92-.1,28.98,0,57.95-.04,86.93-.03,20.81-1.01,21.73-22.16,21.73-57.98,0-115.96,0-173.94.01-3.66,0-7.34-.05-10.98.32-9.61.98-13.03,4.19-14.07,13.61-.62,5.61-.78,11.29-.79,16.94-.04,158.88-.03,317.75-.03,476.62q0,21.45-21.68,21.45c-67.64-.11-135.28-.23-202.91-.41-4.65-.01-9.33-.27-13.92-.94-6.34-.92-10.16-4.64-10.68-11.27-.28-3.65-.75-7.3-.75-10.94-.04-85.93-.12-171.86,0-257.8.1-73.6.45-147.2.59-220.79.01-5.3-.42-10.65-1.25-15.88-1.17-7.4-3.42-10.13-10.99-10.6-13.94-.87-27.94-.87-41.92-.98-7.65-.06-15.3.61-22.95.63-38.32.07-76.64.08-114.96-.01-6.98-.02-13.98-.4-20.94-.99-7.54-.64-9.95-2.86-11.24-10.24-.68-3.91-.96-7.93-.96-11.91-.06-44.96-.08-89.93,0-134.89,0-5.31.37-10.66,1.11-15.91,1.07-7.6,3.89-10.29,11.63-11.3,4.27-.55,8.64-.59,12.96-.59,108.63-.03,217.25-.02,325.88-.02Z"/>
  <path d="m3469.26,1382.56c0-110.92,0-221.84.03-332.75,0-4.99.01-10.03.67-14.95.87-6.46,3.22-8.54,9.76-9.29,3.63-.41,7.32-.37,10.98-.37,157.62-.02,315.23-.02,472.85,0,5,0,10,.04,14.98.38,8.39.58,10.51,2.58,11.52,10.72.41,3.29.47,6.64.47,9.96.03,38.64.03,77.28,0,115.91,0,3.32-.13,6.66-.54,9.95-1.03,8.19-3.11,10.26-11.39,10.86-5.64.41-11.32.4-16.98.4-74.64.02-149.28.01-223.93.02-17.93,0-20.19,1.93-20.36,19.98-.26,28.31-.07,56.62-.07,84.94,0,.67.04,1.33.07,2,.69,16.49,3.34,18.25,20.03,17.72,16.29-.51,32.62.58,48.93.53,48.95-.15,97.9-.5,146.85-.81,7.66-.05,15.32-.47,22.98-.37,13.58.18,18.66,4.41,20.28,18.1,1.05,8.89.66,17.94,1.13,26.91.81,15.62,2.2,31.22,2.58,46.84.35,14.29.19,28.63-.68,42.9-.81,13.37-6.89,18.86-20.24,20.07-3.31.3-6.66.17-9.99.18-60.31,0-120.63,0-180.94.01-12.65,0-25.29,0-37.94.09-8.85.06-11.96,2.9-12.77,11.75-.33,3.64-.29,7.32-.29,10.98-.02,77.61,0,155.22-.01,232.83,0,16.25-1.95,18.71-18.18,18.91-29.64.36-59.29.15-88.94.16-40.65.01-81.31.02-121.96,0-17.45-.01-18.54-1.15-18.54-18.8,0-111.91,0-223.83,0-335.74-.11,0-.22,0-.33,0Z"/>
  <path d="m4874.6,865.74c-17.4.94-30.04-6.56-39.12-21.17-3.13-5.04-7.43-9.35-10.98-14.15-4.9-6.63-9.57-13.43-14.37-20.13-1.33-1.85-2.4-4.3-4.23-5.32-7.56-4.24-12.22-11.1-17.38-17.64-2.85-3.62-6.37-6.77-9.91-9.76-3.57-3.01-7.43-2.62-10.79.6-2.64,2.53-5.21,5.16-7.61,7.92-18.79,21.61-37.71,43.12-56.22,64.97-8.72,10.29-19.32,14.16-32.61,13.63-14.59-.58-29.26-.4-43.84.39-13.92.76-21.53-2.63-27.16-15.33-5.12-11.55-9.56-23.4-14.06-35.21-4.69-12.29-8.43-15.12-21.31-15.24-24.31-.23-48.61-.3-72.91-.79-4.69-.09-6.45,2.08-7.96,5.78-6.53,16.01-13.51,31.84-19.67,47.99-3.05,7.99-7.98,11.89-16.43,11.65-6.3-.18-12.64.23-18.88-.4-7.71-.78-9.62-4.05-7.57-11.64.69-2.55,1.81-5,2.87-7.43,21.7-49.7,43.51-99.36,65.09-149.12,5.02-11.58,9-23.62,13.97-35.23,2.99-6.99,6.28-14.04,10.64-20.21,9.16-12.93,27.18-12.95,36.57-.16,4.1,5.58,7.42,11.86,10.26,18.21,21.29,47.7,42.44,95.48,63.48,143.29,4.15,9.43,7.47,19.22,11.51,28.7,1.94,4.55,4.23,9.08,7.12,13.06,5.43,7.47,8.88,7.51,15.15,1.05.23-.24.47-.47.68-.73,12.22-14.95,24.31-30.01,36.75-44.77,3.1-3.68,7.45-6.28,11.03-9.58,2.82-2.6,5.61-5.31,7.95-8.32,4.44-5.71,8.36-11.81,12.83-17.49,4.32-5.47,9.41-10.35,13.46-16,1.74-2.42,3.23-6.77,2.22-9.1-3.25-7.47-7.07-14.89-11.9-21.43-5.9-8-13.03-15.09-19.63-22.58-13.63-15.48-27.22-31-40.93-46.42-2.45-2.76-5.55-5.09-4.07-9.39,1.51-4.39,5.3-5.93,9.36-6.42,17.26-2.11,32.45,2.13,44.19,15.58,14.23,16.31,28.27,32.79,42.42,49.18,1.95,2.26,3.9,4.6,6.18,6.51,4.5,3.77,8.01,3.75,12.52.13,1.54-1.24,2.88-2.77,4.16-4.3,14.18-16.79,29.15-32.99,42.26-50.57,12.82-17.18,30.82-17.7,48.47-15.13,4.47.65,6.17,4.34,4.8,8.28-1.39,4-3.34,8.13-6.1,11.27-19.83,22.45-40.17,44.44-59.81,67.05-6.82,7.85-12.49,22.79-2.28,33.61,4.11,4.35,8.02,8.92,11.77,13.59,1.54,1.93,2.36,4.42,3.61,6.6,1.09,1.88,2.27,3.72,3.56,5.47.32.44,1.71.34,1.78.67,1.75,8.17,9.93,10.54,14.57,16.12,13.4,16.13,27.31,31.83,41,47.71,1.52,1.76,3.23,3.42,4.42,5.38,4.29,7.09,1.21,14.22-6.97,15.77-3.9.74-7.95.68-11.93.99Zm-343.42-172.69c-2.96,6.39-4.51,9.63-5.97,12.91-4.84,10.9-9.59,21.84-14.5,32.7-1.5,3.31-3.56,6.36-5.16,9.64-4.01,8.24-2.44,11.3,6.82,12.85,5.56.93,11.17,1.71,16.79,2.03,11.3.63,22.46-.22,33.99-4.72-5.92-7.36-3.15-18.56-12.61-23.85-.57-.32-.72-1.87-.64-2.81.49-5.69-3.28-9.28-5.56-13.81-2.36-4.69-3.47-10.39-6.57-15.08-1.82-2.77-3.68-5.51-6.58-9.87Z"/>
  <path d="m4718.55,413.47c0-32.3.08-64.59-.03-96.89-.05-14.22,9.06-21.69,25.53-19.88,4.15.46,9.12,1.56,11.99,4.22,9.91,9.17,21.57,16.99,26.27,30.74.68,2,2.59,3.8,4.33,5.2,12.84,10.32,23.08,22.79,31.57,36.87,1.95,3.24,5.19,5.69,7.76,8.57,1.48,1.66,2.84,3.42,4.19,5.19,2.72,3.59,4.69,9.02,8.25,10.41,5.57,2.17,8.29,6.39,11.6,10.32,11.8,14.01,23.42,28.17,35.1,42.28.64.77,1.16,1.64,1.85,2.36,4.53,4.68,9.7,3.57,10.78-2.84.93-5.52.61-11.27.59-16.91-.14-38.96-.38-77.91-.48-116.87,0-2.96.75-5.93,1.26-8.87,1.06-6.07,4.73-9.51,10.87-9.73,5.63-.2,11.32-.28,16.92.26,9.43.92,13.59,5.38,14.1,14.91.4,7.31.41,14.64.4,21.97-.08,57.28-.23,114.56-.29,171.85,0,9.72-1.32,18.94-10.65,24.25-9.82,5.59-19.7,3.18-28.31-2.61-6.53-4.39-12.63-9.89-17.72-15.9-32.47-38.4-64.63-77.05-96.82-115.68-4.26-5.11-8.02-10.63-12.2-15.82-2.34-2.91-5.14-5.54-9.36-3.97-4.17,1.55-4.65,5.13-4.63,9.02.23,42.95.25,85.91.8,128.86.07,5.55-2.1,9.13-5.82,11.79-6.06,4.35-13.15,6.51-20.69,6.03-7.33-.47-12.75-4.25-14.75-11.44-1.23-4.41-1.75-9.15-1.77-13.74-.15-31.31-.08-62.61-.08-93.92-.19,0-.37,0-.56,0Z"/>
  <path d="m5883.29,749.01c0,32.31.04,64.61-.02,96.92-.02,14.01-3.24,17.52-17.14,19.35-8.78,1.16-16.6-.94-23.01-7.12-4.06-3.92-7.93-8.08-11.6-12.38-14.25-16.73-28.51-33.47-42.48-50.44-3.51-4.26-5.98-9.39-8.88-14.15-3.76-6.15-11.54-9.08-13.42-16.73-20.02-13-30.45-34.77-46.77-51.16-.94-.94-1.8-1.97-2.75-2.89-2.6-2.52-5.58-3.65-9.08-2.07-3.38,1.53-5,4.22-4.8,7.97.35,6.65.93,13.29.96,19.94.17,32.29.22,64.58.24,96.86,0,6.3,0,12.62-.49,18.88-.54,6.81-4.6,10.8-11.3,12.12-1.63.32-3.25.85-4.9.95-19.68,1.23-24.37-2.64-24.29-21.58.27-63.28.07-126.56.16-189.84,0-4.28.34-8.7,1.45-12.8,2.39-8.8,9.99-13.84,19-12.46,11.86,1.82,22.08,6.86,30,16.31,34.63,41.36,69.36,82.63,104.11,123.89,3.86,4.58,7.89,9.04,12.13,13.26,5.31,5.3,10.65,3.71,12.15-3.59.59-2.89.39-5.96.39-8.96.02-39.63,0-79.27.02-118.9.01-15.87,2.52-18.35,18.54-18.71,17.79-.4,21.39,2.96,21.42,20.38.05,32.3.02,64.6.02,96.91h.33Z"/>
  <path d="m5757.9,1415.29c-84.58.19-126.77-71.74-126.61-122.79.07-22.67,6.47-43.26,19.45-61.76,4.58-6.53,9.75-12.64,14.69-18.91.82-1.04,1.65-2.26,2.76-2.86,13.83-7.54,23.63-21.62,40.19-24.72,1.28-.24,3.22-.59,3.59-1.44,3.34-7.72,10.69-6.7,16.9-7.91,15.76-3.06,31.57-3.44,47.64-2.23,52.29,3.93,106.61,51.76,108.03,117.03,1.05,48.39-20.71,85.75-63.58,109.71-19.54,10.92-40.53,16.58-63.06,15.89Zm80.65-126.48c.41-25.34-9.18-45.9-30.07-60.73-10.15-7.21-21.32-12.26-33.45-15.08-29.6-6.88-54.53,1.26-75.02,23.5-1.8,1.96-3.3,4.39-5.47,5.79-10.6,6.83-13.99,17.71-15.14,28.99-1.47,14.53-1.83,29.23-1.62,43.84.07,4.91-.75,11.73,6.6,14.05.72.23,1.09,2.28,1.23,3.53.49,4.28,2.45,7.27,6.32,9.49,2.17,1.24,4.38,3.52,5.2,5.81,2.86,8,8.89,11.93,16.35,14.73,3.39,1.28,6.35,3.64,9.64,5.23,16,7.72,32.66,11.72,50.3,7,19.29-5.16,36.86-13.25,48.66-30.57,3.18-4.66,7.58-8.53,10.48-13.33,2.66-4.42,5.25-9.49,5.75-14.48.91-9.17.26-18.5.26-27.76Z"/>
  <path d="m7168.81,1292.52c0-29.62,0-59.24,0-88.85,0-2.66-.06-5.33.04-7.99.55-13.64,4.41-18.59,17.86-18.7,32.6-.28,65.41-1.83,97.78,1.1,46.16,4.19,84.39,31.11,96.35,85.6,4.4,20.03,5.91,40.1.79,60.27-11.1,43.74-47.48,76.88-92.17,83.15-25.41,3.56-51.03,3.94-76.67,2.79-7.64-.34-15.31-.1-22.96-.23-15.56-.26-20.38-4.65-20.58-20.31-.39-30.28-.32-60.56-.44-90.84,0-2,0-3.99,0-5.99Zm41.99-.72s.09,0,.13,0c0,21.31-.1,42.63.04,63.94.07,10.56,2.56,13.03,12.91,13.23,11.99.23,23.99.37,35.98.32,15.77-.06,31.19-2.1,45.87-8.35,8.89-3.78,15.8-9.57,20.76-17.94,7.4-12.48,11.72-25.99,14.77-40.08,6.88-31.85-12.04-71.85-52.7-82.58-20.75-5.48-41.87-7.78-63.32-5.81-12.53,1.15-14.31,2.94-14.4,15.31-.14,20.65-.04,41.31-.04,61.96Z"/>
  <path d="m5910.96,1291.53c0-31.65-.01-63.29,0-94.94,0-16.34,6.13-22.38,22.54-20.91,5.01.45,10.53,2.56,14.5,5.61,6.27,4.81,11.87,10.71,17.01,16.77,37.49,44.19,74.79,88.54,112.17,132.83,1.28,1.51,2.53,3.16,4.13,4.27,4.64,3.23,9.37,1.37,10.63-4.03.23-.96.26-1.99.26-2.98-.06-18.98-.1-37.97-.23-56.95-.19-26.31-.66-52.62-.59-78.92.03-11.03,4.22-14.85,15.15-15.63,1.66-.12,3.33-.1,5-.07,12.57.2,15.25,2.59,16.38,14.8.3,3.31.34,6.65.34,9.98.02,61.96.01,123.92.01,185.89,0,2.33.1,4.67-.06,6.99-.85,12.14-9.01,18.56-21.06,16.38-8.48-1.53-15.48-5.68-21.04-12.4-17-20.52-34.11-40.96-51.22-61.39-19.89-23.76-39.78-47.51-59.76-71.18-2.99-3.55-6.22-7.01-9.83-9.89-3.94-3.14-8-1.99-9.29,2.86-1.26,4.75-1.63,9.85-1.65,14.8-.13,37.64-.41,75.29.07,112.93.25,19.86-5.96,25.32-27.18,23.72-11.18-.84-15.31-5.09-15.81-16.61-.61-14.3-.42-28.64-.46-42.96-.06-19.65-.01-39.31-.01-58.96Z"/>
  <path d="m6701.2,1292.49c0-32.97-.02-65.94.01-98.91.01-13.18,4.89-17.99,18.08-17.76,10.14.17,18.72,3.19,24.8,12.23,4.62,6.88,10.1,13.23,15.51,19.55,28.82,33.62,57.76,67.13,86.59,100.73,5.64,6.57,10.91,13.44,16.46,20.09,1.69,2.02,3.46,4.15,5.63,5.56,3.99,2.59,8.27.73,8.91-3.96.49-3.58,0-7.3,0-10.96,0-40.29-.04-80.59.01-120.88.02-18.68,3.55-22.03,22.41-21.6,1.99.05,3.99.21,5.97.46,8.21,1.05,11.34,3.91,11.8,12.01.57,9.96.79,19.95.75,29.93-.1,27.3-.5,54.59-.6,81.89-.11,29.3-.02,58.61-.03,87.92,0,8.01.94,16.38-8.82,20.18-11.2,4.36-23.2,2.33-30.44-5.8-11.29-12.68-22.45-25.47-33.42-38.43-28.39-33.55-56.62-67.24-85.01-100.79-2.76-3.27-5.89-6.41-9.4-8.82-4.98-3.42-8.27-1.98-9.08,3.91-.81,5.91-1.1,11.94-1.08,17.91.12,35.29.39,70.58.6,105.87.01,2,.02,4,0,5.99-.25,18.15-14.59,27.26-31.53,20.04-5.5-2.34-8.19-6.39-8.13-12.46.11-11.99.02-23.98.02-35.97,0-22.65,0-45.29,0-67.94Z"/>
  <path d="m5145.4,745.01c.47-28.08,9.47-51.55,27.21-71.48,6.55-7.36,13.87-14.02,20.84-21,.23-.23.5-.45.77-.64,23.32-16.67,49.45-26.92,77.91-27.27,27.98-.35,53.29,10.36,75.83,27.06,16.07,11.91,29.52,26.31,37.03,44.93,5.18,12.85,9,26.44,11.81,40.03,6.01,29.11-6.27,54.07-20.58,77.85-11.62,19.31-28.84,32.92-49.52,41.99-15.9,6.98-32.09,13.18-49.73,13.62-7.26.18-14.87.43-21.78-1.4-23.62-6.26-46.15-15.38-65.51-30.74-30.32-24.05-43.01-56.55-44.27-92.96Zm127.27,84.6c42.65,1.2,84.05-38.35,83.88-83.51-.18-48.41-43.63-81.78-83.91-82.27-53.44-.64-84.07,45.1-84.26,82.04-.23,45.03,38.6,83.65,84.29,83.74Z"/>
  <path d="m4686.44,1292.16c0-32.63-.02-65.25,0-97.88.01-14.59,6.68-20.44,21.19-18.27,3.19.48,6.67,1.62,9.17,3.55,5.77,4.44,11.67,9.01,16.39,14.49,30.82,35.83,61.35,71.91,91.94,107.94,7.54,8.88,14.78,18.01,22.42,26.79,2.71,3.11,5.37,7.65,10.5,6.08,5.49-1.69,4.29-6.91,4.3-11.05.08-39.62.04-79.23.07-118.85,0-4.32-.03-8.67.43-12.96.81-7.45,4.13-13.77,11.63-15.95,7.94-2.31,16.02-1.43,22.6,4.19,2.06,1.77,3.31,4.9,4.07,7.65.69,2.48.25,5.29.25,7.95,0,64.59.01,129.17,0,193.76,0,18.82-12.46,27.01-29.59,18.7-5.77-2.8-11.13-7.42-15.31-12.36-32.88-38.9-65.43-78.07-98.09-117.16-4.91-5.88-9.81-11.75-14.74-17.62-.85-1.02-1.71-2.06-2.71-2.93-3.29-2.89-6.85-6.14-11.47-4.13-4.33,1.89-4.04,6.53-4.03,10.5.06,39.61.19,79.23.28,118.84,0,3.33.15,6.7-.3,9.97-2.2,15.89-20.9,23.68-33.69,13.84-2.35-1.81-3.95-5.29-4.72-8.29-.88-3.46-.58-7.26-.59-10.92-.03-31.96-.02-63.92-.02-95.88Z"/>
  <path d="m8115.54,1334.02c.6-3.75,1.72-7.51,1.73-11.26.02-42.94-.16-85.88-.22-128.82-.02-13.62,4-17.77,17.56-18.48,1.66-.09,3.33-.08,5,0,15.97.75,19.73,4.66,19.74,20.68.02,62.26.02,124.53-.02,186.79,0,5.32-.16,10.66-.61,15.96-.54,6.29-3.75,10.64-10.26,11.78-15.39,2.69-27.1,1.22-35.81-14.31-1.59-2.83-3.87-5.32-6.06-7.76-8.89-9.9-18.27-19.39-26.74-29.63-30.55-36.94-60.79-74.12-91.18-111.19-.8-.98-1.93-1.7-2.86-2.5-7.52,2.02-8.88,7.3-8.81,13.87.24,23.64.31,47.27.37,70.91.05,19.98.1,39.96-.02,59.93-.09,16.13-4.74,20.11-20.78,18.25-10.04-1.17-13.4-4.24-14.93-14.21-.5-3.27-.55-6.63-.56-9.96-.03-60.6-.03-121.2,0-181.79,0-3.32-.03-6.7.51-9.96,2.05-12.4,10.08-17.75,22.26-14.83,7.97,1.91,14.84,5.87,20.15,12.21,13.88,16.6,27.69,33.25,41.52,49.88,2.68,3.22,4.16,7.8,9.37,8.16.57.04,1.36.53,1.61,1.03,7.13,14.3,21.72,21.85,30.96,34.35,9.28,12.57,19.54,24.45,29.69,36.35,4.67,5.47,10.12,10.28,15.21,15.39,1.06-.28,2.12-.56,3.19-.84Z"/>
  <path d="m6892.85,747.52c0-28.3.03-56.61-.03-84.91-.01-5.65-.68-11.3-.53-16.94.2-7.47,2.31-9.84,9.53-12.04,14.31-4.35,26.36-2.37,36.7,9.95,36.8,43.87,74.12,87.31,111.22,130.93,4.1,4.82,8.01,9.8,12.25,14.49,1.18,1.31,3.83,2.96,4.77,2.47,1.72-.9,3.26-3.12,3.78-5.07.66-2.5.29-5.28.29-7.95,0-39.62,0-79.25,0-118.87,0-3-.11-6,.09-8.99.97-14.29,10.18-21.52,24.35-19.22,10.56,1.71,14.55,5.8,14.76,16.59.21,10.97-.52,21.95-.52,32.93.05,55.27.22,110.54.31,165.8.02,12.29-4.62,16.78-16.84,16.92-10.97.13-19.56-3.6-26.85-12.42-35.84-43.38-72.09-86.4-108.3-129.47-4.7-5.59-9.75-10.96-15.08-15.95-4.8-4.49-8.58-3.23-9.86,3.07-.72,3.54-.7,7.27-.69,10.92.17,38.95.46,77.9.56,116.84.01,4.61-.31,9.39-1.54,13.79-3.97,14.23-24.85,19.7-34.9,8.9-2.57-2.76-3.37-7.82-3.63-11.91-.48-7.62.12-15.29.13-22.95.04-25.64.01-51.28.01-76.92Z"/>
  <path d="m5949.62,415.75c0,31.64.01,63.29,0,94.93,0,7.27,1.24,15.26-7.29,19.07-9.47,4.23-19.39,6.25-28.53-.39-9.74-7.08-18.32-15.41-24.01-26.36-1.97-3.8-4.38-7.47-7.12-10.75-33.12-39.6-66.32-79.13-99.62-118.57-1.48-1.76-5.29-3.99-6.16-3.37-2.43,1.71-5.25,4.7-5.46,7.38-.71,9.27-.45,18.63-.43,27.95.07,27.97.14,55.94.36,83.91.06,8.31.74,16.62.92,24.93.21,9.75-2.1,12.82-11.53,14.07-5.22.69-10.64.64-15.9.13-6.77-.66-9.1-3.48-9.75-10.41-.22-2.31-.1-4.66-.1-6.99,0-62.62,0-125.24,0-187.86,0-1.33.06-2.67,0-4-.75-15.39,8.11-20.01,22.57-18.96,6.52.48,12.09,3.71,16.4,8.67,6.11,7.04,11.95,14.31,18.07,21.34,3.36,3.86,5.37,9.47,11.94,9.54.96.01,2.02,1.56,2.83,2.56,6.26,7.72,12.55,15.41,18.67,23.24,7.98,10.2,15.77,20.53,23.72,30.75,2.63,3.39,4.89,7.58,8.35,9.71,8.86,5.43,14.51,13.58,20.59,21.48,5.28,6.86,10.57,13.72,15.95,20.5,1.65,2.07,3.39,4.19,5.49,5.75,4.82,3.55,9.33,1.56,9.88-4.28.25-2.63-.13-5.32-.14-7.98-.12-32.31-.31-64.61-.27-96.92.01-12.21.5-24.42.86-36.63.19-6.62,6.96-12.04,14.84-11.73,3.65.14,7.26.95,10.9,1.36,9.31,1.05,12.83,4.45,13.48,14.02.47,6.97.48,13.98.49,20.97.05,27.65.02,55.29.02,82.94Z"/>
  <path d="m6861.5,744.25c7.42,57.24-50.08,117.04-108.64,121.65-43.78,3.44-79.44-10.6-109.12-42.38-53.53-57.33-28.63-137.1,15.16-169.76,16.43-12.25,34.3-22.04,54.54-25.96,38.53-7.47,73.33,1.41,103.79,26.24,19,15.49,32.29,35.25,41.31,57.88,1.8,4.53,2.45,9.65,2.84,14.56.47,5.95.11,11.98.11,17.78Zm-122.09,85.04c46.79,2.21,82.75-42.32,82.74-83.69,0-42.88-39.52-81.73-83.18-81.9-44.29-.18-84.04,38.54-84.1,81.92-.07,47,36.9,83.59,84.54,83.67Z"/>
  <path d="m7895.3,1294.35c0,33.63-.03,67.27.02,100.9.01,9.99-1.73,12.33-11.13,14.69-10.67,2.68-19.94.21-27.2-8-9.7-10.97-19.06-22.25-28.51-33.43-30.1-35.59-60.19-71.2-90.28-106.8-.21-.25-.44-.5-.66-.75-3.11-3.55-6.4-7.68-11.65-5.98-6.04,1.96-5.42,7.91-5.43,12.74-.02,38.29.2,76.58.23,114.88,0,4.97-.4,9.97-1.05,14.91-.87,6.7-4.76,10.8-11.58,11.86-1.98.31-3.94.74-5.93.9-14.27,1.14-20.79-4.32-20.94-18.65-.29-28.64-.1-57.28-.11-85.92,0-36.97-.02-73.93,0-110.9,0-14.39,9.18-22.08,23.23-18.51,5.25,1.33,10.32,4.61,14.65,8.04,4.91,3.88,9.17,8.7,13.25,13.51,36.42,42.9,72.74,85.89,109.1,128.85,1.72,2.03,3.37,4.19,5.4,5.87,5.76,4.77,10.68,2.87,12.03-4.61.41-2.27.29-4.65.29-6.97-.09-41.62-.21-83.25-.29-124.87,0-2.66,0-5.35.38-7.97.99-6.9,3.93-9.78,10.84-11,.66-.12,1.32-.24,1.98-.28,19.18-1.16,23.37.2,23.18,20.61-.3,32.3-.08,64.61-.08,96.91.08,0,.17,0,.25,0Z"/>
  <path d="m4945.08,1291.54c0-25.98,0-51.96,0-77.93,0-5.99-.03-11.99,0-17.98.1-15.2,2.86-18.79,17.75-18.87,31.28-.17,62.67-1.12,93.81,1.04,40.7,2.83,69.69,25.19,89.76,60.18,30.47,53.1,7.4,129.39-43.39,155.77-18.41,9.56-38.17,14.24-58.54,15.05-27.94,1.11-55.95.81-83.93.72-10.72-.03-14.23-3.71-15.65-14.12-.18-1.32-.42-2.65-.42-3.97-.02-33.29-.02-66.59-.02-99.88.21,0,.42,0,.62,0Zm38-1.48c0,21.65-.16,43.3.06,64.94.12,11.91,5.21,17.4,16.53,18.34,25.18,2.09,49.83-.91,73.87-8.59,9.02-2.88,17.05-7.65,23.4-14.77,20.02-22.48,27.19-48.4,19.92-77.82-6.77-27.41-23.11-45.77-50.93-53.48-22.08-6.12-44.55-7.74-67.26-7.02-12.98.41-15.5,3.28-15.58,16.45-.12,20.65-.03,41.3-.02,61.95Z"/>
  <path d="m4255.49,1623.3c0-30.96,0-61.92,0-92.89,0-3-.09-6,.03-8.99.42-10.07,4.08-14.02,14-14.12,26.29-.26,52.59-.51,78.88-.26,15.37.15,30.53,2.66,45.04,7.92,44.36,16.09,66.93,49.47,73.89,94.63,2.45,15.92.75,31.82-3.4,47.45-11.68,44.03-41.13,69.77-84.42,79.73-15.05,3.46-31.03,3.36-46.62,3.87-18.97.61-37.97.15-56.95.15-.67,0-1.33.01-2,0-14.48-.41-18.34-4.21-18.43-18.62-.18-28.3-.25-56.6-.35-84.89-.02-4.66,0-9.32,0-13.98.11,0,.22,0,.33,0Zm37.99-.15s-.02,0-.03,0c0,22.3-.22,44.61.1,66.9.15,10.57,2.87,12.96,13.21,13.03,12.65.09,25.37.58,37.94-.55,12.51-1.12,25.5-2.26,37.15-6.48,28.86-10.46,50.08-47.12,47.35-78.69-3.4-39.33-33.59-69.71-72.78-72.27-16.58-1.09-33.28-.7-49.92-.67-10.97.02-12.87,1.9-12.95,12.83-.18,21.97-.05,43.93-.05,65.9Z"/>
  <path d="m5925.31,746.05c0-32.62-.1-65.23.06-97.85.06-11.52,3.52-15.18,14.89-15.26,31.94-.23,63.88.22,95.81-.19,46.59-.6,89.29,37.24,99.72,81.89,9.7,41.49,1.77,79.67-26.61,111.9-19.27,21.88-44.93,33.15-74.06,34.56-29.9,1.45-59.86,1.82-89.79,2.08-16.37.14-19.55-3.48-19.65-20.27-.16-28.29-.05-56.58-.05-84.87v-11.98c-.11,0-.22,0-.32,0Zm39.64.68c0,6.31.06,12.62-.01,18.93-.18,14.64-.44,29.28-.63,43.92-.19,14.45,1.6,16.24,15.73,16.43,7.32.1,14.64.79,21.94.61,16.3-.4,32.64-.68,48.14-6.89,15.17-6.07,29.12-14.26,36.89-29.01,5.68-10.78,9.1-22.79,13.02-34.42,1.24-3.67,1.25-7.9,1.13-11.85-1.04-34.93-27.32-67.22-61.28-75-18.66-4.28-37.72-3.98-56.67-3.06-17.87.86-18.23,1.69-18.25,19.41-.03,20.31,0,40.62,0,60.93Z"/>
  <path d="m4653.77,1293.16c1.17,49.17-31.78,95.73-82.48,113.02-60.8,20.73-127.76-5.89-154.01-63.65-20.16-44.35-14.04-87.41,16.62-125.4,53.29-66.01,160.5-57.71,203.65,15.11,10.83,18.28,16.17,38.31,16.22,60.91Zm-206.64-.35c-1.63,43.12,33.11,83.33,83.26,83.59,45.59.24,83.11-37.59,83.07-83.36-.05-45.45-38.56-83.55-84.59-83.34-50.17.24-83.34,43.19-81.74,83.11Z"/>
  <path d="m5193.38,416.15c0-30.64-.03-61.28.03-91.92,0-4.32,0-8.71.7-12.94,1.51-9.04,5.65-12.6,14.9-12.96,8.32-.32,16.65-.33,24.98-.31,26.62.05,53.29-1.5,79.7,3.65,51.27,10,86.67,47.51,91.85,99.65,4.82,48.59-13.1,87.44-54.53,114.01-18.1,11.61-39.09,14.67-60.37,14.77-26.32.13-52.64.04-78.96.02-2.33,0-4.68-.07-6.98-.39-7.47-1.03-10.39-4.04-11.16-11.68-.3-2.97-.14-5.99-.14-8.99,0-30.97,0-61.94,0-92.92Zm37-1.28c0,21.3-.15,42.6.05,63.89.14,15.04,1.95,16.65,16.68,16.7,11.98.04,23.98-.22,35.95.11,56.26,1.53,96.62-52.14,78.89-105.49-9.03-27.18-26.94-46.98-55.64-51.55-21.8-3.47-44.44-1.88-66.7-2.01-6.68-.04-8.3,2.41-9.01,9.48-.3,2.97-.22,5.98-.22,8.98-.02,19.97,0,39.93,0,59.9Z"/>
  <path d="m5625.66,719.97c0,25.27.06,50.54-.03,75.81-.03,8.65-3.37,16.16-8.74,22.87-1.65,2.06-3.17,4.3-4.33,6.66-5.44,11.08-13.6,19.6-23.98,26.14-49.81,31.35-104.46,19.27-138.23-10.24-18.11-15.83-27.26-35.38-27.11-59.68.27-42.62-.12-85.24-.23-127.85,0-1-.01-2,0-3,.29-15.42,3.22-18.36,18.92-18.95,18.03-.68,23.99,4.02,24.18,22.12.39,37.92.22,75.86-.46,113.78-.25,14.12,1.46,27.17,10.25,38.61,10.13,13.18,23.06,20.93,40.13,20.49,7.32-.19,14.66-.19,21.93-.84,29.4-2.62,47.6-22.66,47.66-52.43.08-40.26.02-80.53.03-120.79,0-2.66-.17-5.35.15-7.98.91-7.68,5.2-12.01,12.93-12.81,5.94-.61,11.93-1.04,17.89-.94,1.92.03,4.21,1.6,5.64,3.12,3.94,4.18,4.08,9.58,4.07,14.99-.06,23.64-.02,47.28-.02,70.92-.22,0-.44,0-.66,0Z"/>
  <path d="m7542.09,1310.68c0,11.18,0,20.43,0,29.67,0,6.99-.1,13.99.05,20.98.2,9.74,3.52,12.98,13.03,13.11,28.3.41,56.6.83,84.91,1.26.95.01,1.9.26,2.42.33,2.66,5.23,5.15,10.12,7.65,15.05-1.6,3.72-3.12,7.69-5,11.49-2.89,5.88-7.69,9-14.33,9-33.98-.01-67.96-.04-101.94-.06-3.99,0-7.99.15-11.98.09-9.34-.13-12.28-2.38-14.69-11.63-.74-2.85-1.06-5.89-1.06-8.84-.06-64.95-.05-129.9,0-194.86,0-2.98.2-6.01.79-8.92,1.19-5.84,4.77-9.43,10.88-9.99,4.31-.4,8.64-.77,12.95-.78,30.66-.07,61.31-.08,91.97,0,4.98.01,10.03.17,14.94.97,8.68,1.4,12.56,6.43,12.35,15.29-.05,2.31-.42,4.64-.92,6.9-2.69,12.12-4.51,13.61-16.75,13.63-21.99.03-43.99,0-65.98.03-2.99,0-6.02.02-8.95.54-4.33.77-7.56,3.31-7.63,7.96-.19,13.62-.17,27.25,0,40.88.07,5.23,3.66,7.62,8.42,8.24,2.96.38,5.98.33,8.98.33,19.99.03,39.99,0,59.98.03,3.33,0,6.67.12,9.97.49,4.49.5,7.66,2.97,7.74,7.65.13,7.26.03,14.56-.6,21.78-.47,5.4-4.26,8.16-9.6,8.28-12.64.29-25.28.47-37.92.61-16.27.19-32.54.31-49.67.46Z"/>
  <path d="m4500.46,1622.85c0-31.64,0-63.27,0-94.91,0-2.66-.11-5.34.08-7.99.67-9.63,3.34-12.58,12.95-12.62,37.98-.16,75.96-.19,113.94,0,12.02.06,15.82,4.4,16.01,16.63.03,2,.1,4.01-.1,5.99-.84,8.45-4.12,11.93-12.44,12.87-3.63.41-7.32.38-10.98.38-21.65.03-43.31,0-64.96.03-2.66,0-5.33.08-7.99.21-5.03.24-8.56,2.81-8.63,7.86-.2,13.95-.5,27.95.44,41.84.55,8.13,4.35,10.31,14.21,10.36,20.62.1,41.25-.1,61.87-.17,3.66-.01,7.36-.31,10.97.13,10.13,1.25,15.15,7.19,15.27,17.56.14,11.94-4.57,19.47-14.49,20.46-9.88.99-19.93.59-29.89.37-14.31-.31-28.61-1.27-42.91-1.48-11.71-.16-14.64,2.03-15.36,13.5-.77,12.24-.65,24.63.28,36.86.78,10.23,3.86,12.31,14.35,12.35,24.31.1,48.63-.04,72.94.11,3.92.02,8.06.38,11.7,1.67,7.84,2.78,11.93,9.89,11.24,18.05-.81,9.55-5.17,15.54-14.17,16.69-9.2,1.17-18.58,1.07-27.89,1.12-27.97.13-55.94.06-83.9.05-20.37,0-22.53-2.12-22.54-22.04-.01-31.97,0-63.94,0-95.91Z"/>
  <path d="m6574.69,1175.4c9.39.6,16.64,4.6,20.6,14.12,7.27,17.5,15,34.81,22.3,52.3,1.61,3.87,1.89,8.27,3.4,12.2,1.26,3.29,3.3,6.3,5.18,9.32,2.08,3.34,4.96,6.3,6.49,9.86,15.57,36.36,31.01,72.77,46.24,109.27,2.27,5.44,4,11.33,4.63,17.16.78,7.26-2.14,10.27-9.16,11.88-13.12,2.99-25.71-2.48-31.68-14.47-6.21-12.49-12.08-25.15-17.63-37.94-5.04-11.61-10.23-15.64-22.63-15.74-16.97-.15-33.95-.56-50.9-.05-7.18.21-14.34,2.28-21.43,3.84-7.03,1.55-10.8,6.75-11.74,13.35-.87,6.11-2.3,11.26-6.95,15.86-2.59,2.56-3.07,7.22-4.57,10.9-1.88,4.61-3.58,9.32-5.83,13.75-3.56,7-9.77,10.28-17.32,9.05-6.09-1-12.07-3.25-17.82-5.62-3.64-1.5-3.94-5.01-2.4-8.53,16.01-36.51,31.98-73.04,48.06-109.53,4.02-9.13,8.61-18.01,12.44-27.21,2-4.8,2.92-10.06,4.31-15.11.7-2.55,1.03-5.26,2.1-7.64,7.12-15.73,14.41-31.39,21.63-47.07,4.39-9.54,12.11-13.7,22.68-13.92Zm-1.7,131.92v.39c4.99,0,9.98,0,14.97,0,.67,0,1.33,0,2-.04,10.09-.71,13.41-5.67,8.6-14.49-7.03-12.87-13.83-25.74-17.89-39.92-1.08-3.76-3.87-5.98-8.15-6.16-4.68-.2-6.12,2.77-7.6,6.41-3.39,8.3-7.21,16.42-10.7,24.68-2.33,5.5-4.76,11-6.5,16.7-2.73,8.98-.89,11.67,8.31,12.36,5.62.42,11.3.08,16.95.08Z"/>
  <path d="m5359.35,1411.89c-12.79,2.01-20.1-4.55-24.96-15.43-5.43-12.14-11.2-24.13-16.64-36.26-6.52-14.53-11-17.25-26.77-16.94-14.64.29-29.29.08-43.93.11-4.99.01-9.99.08-14.98.17-8.17.14-13.95,3.71-16.74,11.65-1.1,3.13-2.64,6.13-3.57,9.31-1.6,5.51-2.92,10.92-9.39,13.1-1.31.44-2.24,3-2.72,4.75-1.07,3.83-1.31,7.92-2.64,11.64-5.06,14.14-21.99,21.43-35.19,15.39-7.94-3.63-9.82-8.09-6.41-15.92,19.61-45.13,38.95-90.39,59.07-135.3,9.78-21.82,21.25-42.84,29.33-65.49,5-14.01,14.71-18.35,29.42-15.78,4.95.87,8.42,3.22,10.49,8.05,8.61,20.17,17.47,40.23,26.14,60.38,2.37,5.49,4.52,11.08,6.6,16.69,1.13,3.06,1.44,6.23,5.5,7.54,1.62.52,2.58,3.62,3.48,5.7,16.35,37.85,32.65,75.72,48.94,113.59,1.44,3.36,3.02,6.71,3.95,10.22,1.76,6.66-.39,10.28-7.06,11.68-3.88.82-7.93.78-11.91,1.14Zm-94.03-171.04c-9.43,11.89-25.02,46.7-27.19,55.08-.17.64-.35,1.28-.45,1.94-.81,5.52.78,8.98,6.22,9.28,13.86.76,27.81,1.2,41.66.51,7.14-.35,9.38-5.65,6.4-12.31-6.62-14.84-13.46-29.59-20.4-44.29-1.64-3.48-4.02-6.6-6.25-10.2Z"/>
  <path d="m5693.07,528.26c-12.46,3.65-17.21-5.29-21.4-16.74-4.33-11.84-10.36-23.05-15.59-34.57-3.68-8.1-9.31-11.94-18.78-11.67-20.98.6-41.99.46-62.98.07-9.98-.18-16.81,4.09-20.71,12.67-4.53,9.98-8.5,20.24-12.24,30.55-5.58,15.42-19.21,24.99-35.17,24.16-7.84-.41-12.96-6.87-10.27-14.7,4.53-13.21,10.06-26.07,15.25-39.05.47-1.18,1.25-2.63,2.28-3.12,6-2.84,6.17-7.91,5.87-13.49-.09-1.73.63-4.53,1.83-5.13,4.85-2.42,4.4-6.89,5.36-11.01,1.42-6.12,2.59-12.45,5.11-18.14,13.6-30.73,27.55-61.3,41.47-91.89,4.27-9.38,8.4-18.88,13.41-27.87,6.17-11.07,14.18-13.86,26.14-9.75,2.54.87,4.58,3.33,6.72,5.2,6.22,5.42,8.28,13.23,11.51,20.36,13.75,30.31,27.86,60.46,41.09,90.99,7.62,17.58,13.44,35.93,20.79,53.63,5.99,14.42,13.52,28.21,19.55,42.62,6.16,14.71,6.59,16.9-12.31,17.45-1.65.05-3.31-.26-6.94-.58Zm-83.57-162.06c-6.73,1.48-11.7,5.07-14.28,12.09-3.43,9.36-7.6,18.45-11.03,27.81-2.69,7.34-4.73,14.91-7.27,23.07,13.9,3.02,26.5,1.75,39.07,2.05,17.82.42,16.66-7.87,12.31-19.28-.47-1.24-1.07-2.44-1.57-3.67-5.65-13.78-11.3-27.57-17.24-42.07Z"/>
  <path d="m6370.01,1172.75c15.54,1.71,31.1,3.33,46.62,5.2,2.91.35,5.76,1.57,8.55,2.61,6.18,2.29,12.22,4.98,18.47,7.02,6.05,1.98,9.83,5.35,9.88,12.06.05,7.97.7,15.97.1,23.89-.51,6.62-3.97,8.77-10.36,6.94-5.73-1.64-11.25-4.07-16.73-6.45-21.5-9.34-43.8-13.76-67.2-10.65-24.01,3.19-44.9,12.28-58.91,33.26-2.2,3.29-3.85,6.94-5.75,10.43-1.43,2.61-2.24,6.03-4.39,7.69-6.74,5.22-5.4,12.15-5.17,19.02.16,4.6.43,9.24,0,13.8-.79,8.13-.33,15.83,4.32,22.94,7.09,10.87,13.99,21.85,20.92,32.82,2.76,4.36,6.86,6.7,11.18,9.39,6.92,4.32,13.94,6.43,21.93,6.61,2.55.06,6,.72,7.42,2.44,4.3,5.19,9.91,4.48,15.38,4.62,22.44.55,43.58-4.04,63.09-15.6,14.19-8.4,26.78-8.7,25.98,14.99-.22,6.49-1.72,11.73-7.33,15.36-3.91,2.53-7.5,5.82-11.74,7.5-30.88,12.24-62.55,18.21-95.67,10.68-17.41-3.96-33.33-11.25-48.08-21.28-4.35-2.96-9.11-5.28-13.54-8.13-1.89-1.22-4.44-2.78-4.9-4.64-1.62-6.56-5.14-11.24-10.97-14.55-1.62-.92-2.82-2.84-3.81-4.54-30.36-52-22.43-112.54,20.02-149.24,25.68-22.2,55.91-34.52,90.69-34.22Z"/>
  <path d="m6339.77,863.8c-15.73-.56-20.45-4.11-26.52-18.3-5.62-13.14-12.04-25.93-18.11-38.87-2.91-6.2-8.24-8.54-14.63-8.55-7.98,0-15.96.65-23.94.61-13.97-.07-27.95-.38-41.92-.71-13.41-.31-18.03,3.34-22.75,15.97-4.65,12.44-9.81,24.73-15.56,36.7-6.2,12.91-24.75,17.94-37.14,10.88-4.05-2.3-5.48-5.62-4.53-10.02.35-1.6,1.05-3.14,1.72-4.65,17.5-39.53,35.18-78.97,52.48-118.59,11.57-26.5,22.66-53.22,33.85-79.89,4.88-11.64,12.59-16.88,24.64-16.27,7.54.38,13.52,3.57,17.17,10.24,3.03,5.53,5.83,11.22,8.37,17,21.25,48.42,42.37,96.91,63.64,145.32,6.68,15.19,13.69,30.24,20.55,45.35,2.58,5.68,1.27,9.82-4.66,11.79-4,1.33-8.43,1.36-12.66,1.97Zm-94.18-101.69c.01.31.03.61.04.92,7.26-.43,14.58-.4,21.76-1.43,6.26-.9,7.91-4.14,5.51-9.96-6.72-16.24-13.58-32.43-20.74-48.48-1.02-2.29-3.82-4.78-6.14-5.18-1.69-.29-4.89,2.27-5.81,4.29-7.29,15.98-14.5,32.01-21.1,48.29-3.31,8.16-1.53,10.56,7.63,11.43,6.23.6,12.57.11,18.86.11Z"/>
  <path d="m6130.58,1507.62c18.31,0,36.62-.04,54.93.02,11.68.04,14.57,2.96,14.7,14.83.03,2.98-.24,5.99-.74,8.93-1.54,9.18-4.54,11.77-14.04,11.8-23.65.08-47.3.02-70.94.04-3,0-6.03-.15-8.98.23-6.09.78-8.29,2.67-8.43,8.97-.31,13.95-.29,27.93.14,41.88.2,6.49,3.46,9.43,10,10.43,3.27.5,6.64.43,9.97.43,21.99.03,43.98,0,65.96.03,11,.02,14.19,2.81,15.57,13.59.25,1.97.43,4.04.1,5.98-2.4,14.26-4.06,15.64-16.81,15.56-20.99-.12-41.98-.04-62.97-.03-3,0-6.01-.07-8.99.15-9.78.74-12.67,3.19-12.99,12.71-.4,12.28-.35,24.6.05,36.88.3,9.25,3.4,12.38,13.09,12.71,14.31.48,28.64.16,42.96.21,10.66.04,21.33-.19,31.97.25,15.63.65,23.39,14.22,16.56,28.29-2.63,5.41-7.34,7.82-12.85,8.17-10.62.68-21.27,1.06-31.91,1.06-25.31,0-50.62-.33-75.93-.48-18.31-.11-21.69-3.39-21.72-21.45-.13-63.26-.25-126.52-.33-189.79-.03-20.18.46-20.62,20.65-20.64,16.99-.02,33.98,0,50.97,0,0-.25,0-.5,0-.76Z"/>
  <path d="m7140.04,1410.32c-15.01.03-23.95-5.48-28.9-18.08-5.34-13.61-11.85-26.77-17.69-40.19-2.86-6.58-7.63-9.57-14.81-9.61-21.98-.12-43.95-.64-65.93-.65-13.17,0-16.9,3.84-21.85,16.15-5.82,14.47-12.46,28.67-19.59,42.55-5.21,10.14-23.61,13.85-32.6,7.16-1.86-1.38-3.64-4.37-3.55-6.54.2-4.54.93-9.35,2.73-13.49,25.02-57.71,50.28-115.31,75.4-172.97,2.52-5.78,4.6-11.76,6.69-17.71,2.65-7.52,7.06-13.5,14.14-17.39,10.63-5.83,20.37-3.36,26.61,6.88,1.03,1.7,1.82,3.55,2.63,5.37,28.2,63.58,56.39,127.17,84.55,190.76,1.75,3.95,3.58,7.92,4.77,12.05,2.87,10.01-.17,14.29-10.6,15.55-1.32.16-2.65.2-2,.16Zm-95.23-101.46l.02-.4c4.33,0,8.67.15,12.99-.03,10.97-.47,14.16-5.24,10.47-15.74-.99-2.81-2.66-5.38-3.75-8.16-4.24-10.8-8.46-21.62-12.51-32.49-1.19-3.19-1.97-6.43-5.95-7.21-4.24-.83-6.97,1.31-9.15,4.58-.74,1.11-1.68,2.13-2.17,3.34-5.97,14.78-12.2,29.48-17.65,44.45-2.32,6.38,0,9.39,6.8,10.23,6.92.85,13.93.98,20.89,1.42Z"/>
  <path d="m5159.62,530.85c-3.01-.37-7.01-.65-10.93-1.38-8.68-1.62-13.6-7.01-16.73-15.26-5.06-13.32-10.81-26.39-16.73-39.35-3.24-7.1-9.79-9.8-17.27-9.79-22.31.04-44.61.3-66.92.42-8.86.05-14.23,5.18-17.62,12.53-5.02,10.86-9.8,21.85-14.27,32.95-4.67,11.59-12.99,18.57-25.28,19.81-5.09.52-10.59-.59-15.57-2.09-5.18-1.57-6.26-5.06-4.49-10.36.41-1.25,1.21-2.37,1.75-3.58,8.98-20.02,18.05-40,26.9-60.08,20.93-47.48,41.78-95,62.62-142.52,3.27-7.45,7.84-13.22,16.67-13.8,8.86-.58,15.51,3.18,19.83,10.83,3.43,6.07,6.96,12.14,9.75,18.51,24.04,54.84,47.96,109.73,71.8,164.65,3.17,7.31,5.67,14.91,8.59,22.32,5,12.69,2.38,16.55-12.11,16.17Zm-92.88-166.78c-.91-.15-1.82-.3-2.72-.45-3.38,4.78-7.68,9.17-9.95,14.43-5.5,12.75-10.34,25.81-14.91,38.94-3.38,9.7.46,14.4,10.78,14.3,7.95-.08,15.91-.28,23.86-.31,18.69-.07,22-5.43,13.56-22.06-.15-.3-.31-.59-.45-.89-5.05-10.77-10.13-21.54-15.13-32.33-1.77-3.83-3.37-7.75-5.04-11.62Z"/>
  <path d="m4689.31,531.58c-11.51.38-19-3.48-23.58-11.73-4.18-7.54-7.58-15.51-11.28-23.32-2.84-6.01-5.49-12.11-8.44-18.07-4.39-8.89-11.64-13.49-21.59-13.45-21.64.1-43.28.29-64.92.51-8.22.08-13.75,4.11-16.86,11.71-5.78,14.12-11.67,28.2-17.52,42.29-1.9,4.59-5.07,8.35-10.06,8.71-7.88.56-15.89.73-23.74-.07-5.52-.56-6.97-3.7-5.79-9.37.53-2.57,1.66-5.04,2.71-7.47,27.91-65.12,55.81-130.25,83.83-195.32,1.69-3.92,3.82-7.88,6.62-11.05,9.2-10.43,23.44-9.58,31.64,1.83,2.69,3.74,4.74,8.01,6.61,12.26,26.74,60.9,53.4,121.84,80.1,182.77,2,4.57,4.21,9.04,6.23,13.6,4.19,9.49,2.09,13.59-8,15.48-2.61.49-5.28.62-5.95.69Zm-94.55-169.46c-2.79,4.06-4.59,6.05-5.69,8.39-7.04,14.98-14.02,29.98-20.77,45.09-1.03,2.3-1,5.18-1.04,7.79-.07,4.33,2.44,7.17,6.58,7.27,12.91.3,25.86.77,38.72-.04,9.08-.57,11.41-5.03,7.56-13.79-7.84-17.85-16.36-35.41-25.36-54.71Z"/>
  <path d="m4392.24,497.74c23.6.85,44.85-4.47,63.92-17.65,1.62-1.12,3.45-2.04,5.31-2.71,5.13-1.85,8.59-.6,10.16,4.61,3.86,12.8,1.34,25.04-5.01,36.43-.83,1.5-4.67,1.74-7.13,1.82-4.42.15-8.51.15-11.05,4.86-.8,1.48-3.05,2.49-4.84,3.07-36.68,11.85-73.48,14.36-108.97-3.06-45.89-22.53-72.8-58.81-72.53-111.28.17-34.19,13.89-63.77,39.39-86.57,16.8-15.02,37.54-22.64,59.92-27.36,33.24-7.01,64.88-2.15,96.27,8.09,16.95,5.53,19.28,28.24,12.92,39.67-1.78,3.2-4.75,4.76-8.48,3.1-5.16-2.3-10.33-4.6-15.34-7.19-18.36-9.49-37.52-15.15-58.49-13.76-39.2,2.59-74.29,30.86-82.86,67.09-8.02,33.9,6.98,68.88,37.84,88.59,15.19,9.7,31.89,12.95,48.98,12.23Z"/>
  <path d="m5576.5,1738.78c-13.94-.11-20.39-4.8-25.03-16.57-4.88-12.37-9.96-24.65-14.99-36.96-4.14-10.13-11.64-14.68-22.65-14.48-19.98.37-39.98.65-59.96.23-11.3-.23-17.82,4.42-21.97,14.8-5.55,13.87-11.56,27.64-18.58,40.8-6.49,12.17-15.53,14.89-28.71,10.84-6.76-2.07-8.62-4.81-7.26-11.85.62-3.22,2.02-6.32,3.32-9.36,26.58-62.08,53.21-124.14,79.8-186.22,1.57-3.67,3-7.4,4.47-11.11,2.78-7.01,8.12-10.09,15.48-10.52,14.12-.82,18.99,2.17,24.6,15.12,21.69,50.06,43.4,100.12,65.19,150.13,6.9,15.83,14.06,31.54,21.18,47.27,3.88,8.57,1.44,14.11-7.69,16.58-2.87.78-5.87,1.06-7.21,1.29Zm-95.74-164.45c-7.89,17.53-15.53,34.07-22.78,50.77-4.16,9.59-1.45,13.46,9.29,13.7,9.99.22,19.99.13,29.99,0,2.63-.03,5.32-.46,7.85-1.17,4.61-1.3,6.61-4.48,4.99-9.14-1.74-5.01-3.74-9.94-5.84-14.82-2.76-6.41-6.53-12.51-8.39-19.16-2.31-8.21-6.75-14.28-15.11-20.17Z"/>
  <path d="m5282.59,1503.54c17.43,2.52,34.99,4.39,52.23,7.87,7.57,1.53,15.01,5.58,21.48,9.99,3.64,2.48,6.51,7.79,7.35,12.28,1.26,6.68,1.36,13.91.21,20.61-1.27,7.41-4.5,8.49-11.56,5.62-6.47-2.63-12.79-5.63-19.23-8.35-26.45-11.17-53.92-12.67-81.15-5.08-30.95,8.63-47.39,31.65-54.47,61.95-3.48,14.9-2.62,29.75,2.02,44.36,4.59,14.45,12.98,26.14,25.33,34.94,11.73,8.35,24.08,15.52,38.15,19.19,15.29,3.99,30.37,2.94,45.15-2.55,13.1-4.87,26.14-9.87,39.23-14.77,10.34-3.87,14.85-.97,15.93,10.16,1.5,15.51-2.84,24.68-16.35,31.03-51.06,24.01-115.35,16.36-153.58-19.43-23.48-21.99-37.68-49.25-39.33-81.63-1.36-26.79,7.47-51.15,22.76-73.06,24.45-35.06,58.9-51.84,105.84-53.11Z"/>
  <path d="m5072.35,1502.17c11.49,1.7,23.15,2.66,34.43,5.28,15.73,3.65,26.53,20.55,24.2,36.59-.51,3.51-1.88,7.14-3.75,10.15-2.98,4.78-6.84,5.57-12.08,3.25-1.81-.8-3.57-1.84-5.14-3.04-13.85-10.54-29.69-12.84-46.43-11.16-10.67,1.07-16.71,6.09-19.56,15.76-2.57,8.73-.21,16.17,8.66,22.5,15.99,11.4,32.44,22.17,48.6,33.34,5.46,3.78,11.05,7.53,15.88,12.04,18.86,17.62,25.95,39.93,20.33,64.54-5.67,24.82-19.22,44.87-46.51,50.2-22.54,4.4-45.06,4.39-66.33-6.42-1.47-.75-3.02-1.87-4.55-1.9-9.52-.16-13.09-6.72-15.8-14.26-4.07-11.34-3.46-23.01-1.63-34.57,1.18-7.45,8.19-9.8,14.4-5.41,1.07.76,2.1,1.7,2.82,2.78,9.7,14.6,25.01,19.34,40.83,22.56,13.16,2.68,24.15-2.3,33.2-12,4.86-5.2,6.01-10.96,3.24-17.44-4.87-11.42-13.05-19.65-23.57-26.29-15.74-9.94-31.33-20.23-46.25-31.36-36.43-27.19-33.35-76.12,1.38-102.49,11.51-8.74,22.07-11.51,43.63-12.66Z"/>
  <path d="m4254.49,1292.31c0-29.98-.05-59.96.04-89.94.02-5.65.38-11.31.91-16.94.46-4.86,3.17-8.01,8.23-8.53,4.63-.48,9.28-1.05,13.92-1.06,30.32-.09,60.65-.05,90.97-.05,1.67,0,3.34-.05,5,.04,14.07.74,16.9,3.43,17.45,17.3.14,3.61-.53,7.28-1.03,10.89-.68,4.96-3.93,7.71-8.61,8.43-4.26.66-8.61.89-12.93.91-19.99.09-39.99,0-59.98.06-11.96.04-13.69,1.78-13.94,13.98-.22,10.65-.37,21.3-.31,31.94.05,9.29,3.29,12.47,12.81,12.5,18.66.07,37.32-.06,55.98-.1,1.67,0,3.33-.05,5,0,19.79.66,22.56,4.91,21.23,24.75-.49,7.32-3.8,10.75-11.07,12.13-3.56.68-7.29.67-10.94.68-18.33.06-36.66.02-54.98.04-2.66,0-5.34,0-7.99.27-7.43.79-9.24,2.43-9.61,10.01-.37,7.64-.14,15.32-.15,22.98-.02,15.66.27,31.32-.09,46.97-.46,20.33-6.9,25.32-26.99,21.72-8.46-1.52-11.2-4.31-12.27-13.11-.48-3.95-.62-7.96-.63-11.95-.05-31.31-.03-62.62-.03-93.93Z"/>
  <path d="m4763.8,1623.42c0-32.95.03-65.9-.02-98.85-.02-11.75,3.26-15.91,15.04-16.12,35.28-.64,70.57-1.01,105.86-1.11,13.16-.04,17.28,4.73,17.04,17.72-.25,14.06-3.83,17.94-17.79,18.08-21.31.21-42.63.06-63.95.08-2.66,0-5.34-.04-7.99.18-4.98.41-8.28,3.03-8.35,8.17-.18,13.31-.38,26.64.09,39.93.25,7.18,2.67,9.3,9.72,10.48,3.92.65,7.95.82,11.93.84,17.65.09,35.31,0,52.96.06,3.32.01,6.71-.02,9.95.61,7.97,1.55,12.26,6.69,12,14.77-.57,17.88-9.23,21.31-20.41,20.84-19.62-.82-39.29-.25-58.94-.25-1.66,0-3.33.07-4.99.16-11.09.59-12.81,2.15-12.83,13.06-.03,21.3.19,42.61.28,63.91.01,2.99.12,6.02-.22,8.98-1.14,10.05-6.09,14.9-16.12,15.71-3.3.27-6.69.23-9.96-.24-7.89-1.13-11-4.26-12.11-12.19-.51-3.6-.55-7.29-.56-10.94-.04-31.3-.02-62.59-.02-93.89-.21,0-.41,0-.62,0Z"/>
  <path d="m4995.42,748.13c0-33.31-.12-66.63.06-99.94.07-12.52,2.88-15.17,15.55-15.3,32.98-.36,65.96-.59,98.94-.75,4.31-.02,8.66.4,12.92,1.1,8.04,1.32,10.55,4.49,10.81,12.86.02.67.01,1.33,0,2-.17,12.9-3.49,16.38-16.6,17.2-2.66.16-5.33.07-8,.08-17.66,0-35.33-.01-52.99.02-3,0-6.02-.04-8.98.32-8.06.97-11.47,3.84-11.93,12.03-.61,10.94-.62,21.96-.05,32.9.45,8.66,3.98,11.66,12.51,12.58,2.64.29,5.33.13,7.99.13,18.33.01,36.67-.26,54.99.11,16.06.32,24.18,12.32,19.3,27.2-1.89,5.76-5.44,9.02-11.33,9.71-2.97.34-5.98.4-8.97.41-19.33.04-38.66-.09-57.99.06-13.37.11-16.46,3.13-16.52,16.66-.1,22.32.21,44.63.25,66.95.03,13.89-4.3,18.46-18.12,19.33-2.31.15-4.67.08-6.98-.16-12.07-1.29-14.87-4.33-14.85-16.55.05-28.98.2-57.96.31-86.94.01-4,0-7.99,0-11.99-.11,0-.21,0-.32,0Z"/>
  <path d="m4336.48,764.38v-73.92c0-2,.02-4,0-5.99-.21-13.66-2.44-16.11-16.43-16.61-8.98-.32-17.98.04-26.97.05-7.99,0-16,.28-23.97-.17-9.72-.55-12.7-3.86-13.59-13.65-1.52-16.76,1.96-21.11,18.79-21.84,11.64-.51,23.31-.14,34.97-.14,37.31,0,74.62-.05,111.93.04,7.65.02,15.31.32,22.94.85,11,.78,15.52,5.37,15.64,15.31.15,12.03-4.6,18.6-15.34,19.35-9.94.7-19.97.15-29.95.23-8.65.07-17.35-.25-25.94.53-8.37.76-10.69,3.6-12.11,11.99-.39,2.28-.6,4.62-.6,6.94-.04,32.63-.1,65.26,0,97.9.05,16.97.48,33.94.59,50.91.03,3.97-.1,8.04-.89,11.91-4.04,19.83-23.88,19.43-34.33,11.79-4.61-3.37-4.73-8.48-4.73-13.56,0-21.31,0-42.62,0-63.93,0-5.99,0-11.99,0-17.98Z"/>
  <path d="m5935.7,1507.25c27.66,0,55.32.16,82.97-.05,19.57-.15,21.75,6.16,19.75,23.24-1.17,9.97-3.94,12.4-14.44,12.61-16.66.33-33.32.14-49.98.18-2.66,0-5.35-.15-7.99.15-6.13.7-8.07,2.61-8.74,8.82-.39,3.63-.33,7.32-.32,10.98.08,51.63.2,103.25.27,154.88,0,2.32-.13,4.68-.55,6.96-2.97,16.07-19.95,22.63-32.78,12.31-2.82-2.27-4.58-6.39-5.75-10.01-.98-3.04-.49-6.59-.5-9.91-.02-52.63,0-105.26-.03-157.89,0-15.72-.61-16.26-16.42-16.28-15.33-.02-30.66.03-45.99-.03-3.32-.01-6.68-.11-9.95-.64-4.74-.77-8.02-3.53-8.32-8.56-.36-5.95-.76-11.97-.28-17.88.48-5.9,3.13-8.05,9.07-8.73,2.63-.3,5.33-.14,7.99-.14,27.33,0,54.65,0,81.98,0Z"/>
  <path d="m5440.58,1176.55c26.66,0,53.32-.03,79.98.03,3.98,0,8.06.01,11.93.79,9.48,1.89,15.49,10.2,14.71,19.67-.8,9.73-5.44,14.45-15.41,14.63-14.66.27-29.33-.02-43.99.15-5.31.06-10.65.49-15.91,1.23-8.51,1.19-10.7,3.68-11.43,12.31-.25,2.98-.12,5.99-.12,8.99,0,50.63.03,101.27-.05,151.9,0,4.63.13,9.55-1.34,13.81-1.17,3.38-4.13,7.32-7.28,8.61-7.61,3.12-15.86,2.15-23.38-.8-2.45-.96-4.74-4.73-5.31-7.57-1.11-5.49-1.26-11.24-1.25-16.88.13-48.96.4-97.91.57-146.87.02-4.65-.17-9.33-.69-13.94-.83-7.44-2.48-9-9.99-9.8-3.3-.35-6.65-.23-9.98-.28-15.98-.27-31.96-.49-47.94-.83-6.68-.14-13.13-1.66-15.12-8.96-2.05-7.53-1.67-15.35,3.16-21.95,1.36-1.85,4.45-2.98,6.92-3.37,4.58-.71,9.29-.84,13.94-.85,25.99-.07,51.99-.03,77.98-.03Z"/>
  <path d="m6423.4,632.09c16.32,0,32.63-.1,48.95.03,12.65.1,25.3.39,37.95.79,5.65.18,12.04.07,14.59,6.42,2.93,7.29,3.43,15.09-.48,22.24-1.08,1.97-4.11,3.42-6.51,3.99-3.84.91-7.9,1.17-11.87,1.21-13.66.13-27.33.02-40.99.07-3.33.01-6.67.11-9.97.46-9.74,1.03-13.06,3.98-13.52,13.79-.55,11.63-.3,23.31-.28,34.96.07,43.63.24,87.27.26,130.9,0,10.62-3.32,14.46-13.65,16.18-3.25.54-6.67.6-9.96.31-9.8-.85-15.69-6.93-16.34-16.8-.26-3.98,0-7.99,0-11.98,0-48.63.03-97.27,0-145.9-.01-19.63-2.23-21.85-21.68-21.93-14.33-.06-28.66.22-42.99-.1-14.22-.31-18.47-5.23-17.56-19.19.64-9.78,4.37-13.91,14.19-14.5,10.3-.62,20.62-.85,30.94-.92,19.65-.14,39.29-.04,58.94-.04Z"/>
  <path d="m5613,1623.62c0-32.61-.03-65.23.01-97.84.02-16.62,2.84-19.34,19.07-18.85,12.29.37,16.05,3.86,16.17,16.38.22,23.96,0,47.92.1,71.88.13,30.27.38,60.54.66,90.82.12,13.36,2.89,16.51,16.45,16.77,19.3.37,38.61.03,57.91.06,6.66.01,13.33-.01,19.96.38,10.54.63,15.04,5.63,15.63,16.8.65,12.41-2.92,17.82-13.31,19.66-3.91.69-7.93,1.06-11.9,1.07-33.28.08-66.55.08-99.83,0-3.98,0-7.97-.46-11.93-.96-5.42-.67-8.25-3.96-8.52-9.36-.24-4.65-.44-9.31-.44-13.96-.04-30.95-.02-61.9-.02-92.85Z"/>
  <path d="m4951.71,1504.19c13.46,3.49,15.45,5.74,16.95,19.46.29,2.64.39,5.31.39,7.97.02,61.6.04,123.2-.03,184.8,0,4.64-.39,9.32-1.12,13.91-1.25,7.9-3.43,10.26-11.62,11.15-5.89.64-11.96.52-17.85-.15-6.74-.77-9.26-3.59-10.41-10.16-.51-2.93-.58-5.97-.58-8.95-.03-67.26-.02-134.52,0-201.78,0-1.97.24-3.95.36-5.72,6.14-3.83,11.86-7.69,17.9-10.97,1.51-.82,4.03.24,6.11.43-.93,1.23-1.89,2.45-3.33,4.3,2.51-.15,3.99-.24,6.55-.39-1.67-1.96-2.5-2.92-3.32-3.89Z"/>
  <path d="m5816.92,1620.87c0,32.6-.02,65.2,0,97.8.02,19.58-5.56,24.49-24.81,21.7-12.24-1.77-16.34-6.34-16.42-19.45-.17-26.95-.05-53.91-.05-80.87,0-37.27,0-74.54.01-111.82,0-2.99-.13-6.03.35-8.95,1.14-6.86,4.9-11.11,11.68-11.8,6.57-.66,13.32-.54,19.9.16,5.83.62,8.09,3.72,8.54,10.46.52,7.96.77,15.95.79,23.92.09,26.28.03,52.56.03,78.84-.01,0-.02,0-.04,0Z"/>
  <path d="m7417.45,1287.86c0-30.94,0-61.87,0-92.81,0-14.02,2.16-16.57,16.13-18.71,2.93-.45,6-.64,8.92-.26,12.02,1.55,16.21,6.2,16.22,18.45.07,63.87.05,127.74-.02,191.61,0,3.28-.47,6.66-1.33,9.83-4.17,15.22-23.59,21.02-35.37,10.52-1.56-1.39-2.77-3.85-3.01-5.94-.79-6.92-1.44-13.9-1.48-20.86-.15-30.6-.06-61.21-.06-91.81Z"/>
  <path d="m5478.34,417.79c0,32.58.06,65.15-.03,97.73-.03,11.91-2.01,13.98-13.76,14.55-5.27.26-10.63.29-15.86-.35-7.03-.86-9.18-3.13-10.37-10.03-.56-3.25-.61-6.61-.61-9.92-.03-61.19-.07-122.37.05-183.56,0-5.27.4-10.71,1.76-15.77,3.88-14.46,24.58-19.34,34.86-8.32,1.7,1.82,2.85,4.57,3.27,7.06.82,4.89,1.28,9.89,1.3,14.85.11,31.26.06,62.52.06,93.77-.22,0-.44,0-.66,0Z"/>
  <path d="m5602.33,1291.33c0,29.98.04,59.96-.03,89.93-.01,5.32-.25,10.66-.79,15.95-.94,9.17-4.12,12-13.53,12.43-17.36.79-27.24-1.04-26.85-25.38.81-49.61.37-99.24.6-148.86.04-8.3,1.03-16.6,1.23-24.91.1-3.93-.27-7.94-1.05-11.8-2.11-10.45,3.48-19.36,13.91-21.56,1.3-.27,2.63-.49,3.96-.52,22.43-.45,22.55,3.75,22.55,20.78.02,31.31,0,62.62,0,93.93Z"/>
  <path d="m6581.54,747.59c0,31.64,0,63.29-.01,94.93,0,3.33.08,6.69-.35,9.97-.89,6.79-4.13,10.25-10.98,10.74-5.26.37-10.69.15-15.87-.79-7.24-1.3-10.31-4.86-10.88-12.28-.51-6.62-.22-13.3-.22-19.95,0-59.28,0-118.57.05-177.85,0-2.99.07-6.02.55-8.96.82-5.06,3.81-8.41,8.89-9.62,2.91-.69,5.84-1.44,8.81-1.78,15.23-1.74,20.73,3.36,20.7,18.69-.06,32.3-.02,64.6-.02,96.89-.22,0-.45,0-.67,0Z"/>
  <path d="m6115.21,1490.31c-1.53-.94-5-2.29-7.36-4.73-2.89-2.99-.47-6.08,1.38-8.94,7.75-12.01,15.37-24.1,23.14-36.1,5.81-8.98,22.54-13.15,32.23-8.16,5.11,2.63,6.13,6.8,2.29,11.39-10.88,13-21.99,25.8-32.91,38.77-4.42,5.25-10.26,7.07-18.77,7.76Z"/>
</svg>