<?xml version="1.0" encoding="UTF-8" standalone="no"?><!DOCTYPE svg PUBLIC "-//W3C//DTD SVG 1.1//EN" "http://www.w3.org/Graphics/SVG/1.1/DTD/svg11.dtd"><svg width="100%" height="100%" viewBox="0 0 1409 132" version="1.1" xmlns="http://www.w3.org/2000/svg" xmlns:xlink="http://www.w3.org/1999/xlink" xml:space="preserve" xmlns:serif="http://www.serif.com/" style="fill-rule:evenodd;clip-rule:evenodd;stroke-linejoin:round;stroke-miterlimit:2;"><g><path d="M32.857,27.877l0,60.803c0,6.456 -0.53,11.783 -1.591,15.979c-1.06,4.197 -3.159,8.601 -6.294,13.212c-2.306,3.367 -4.9,5.961 -7.782,7.782c-2.883,1.822 -5.869,2.732 -8.958,2.732c-2.767,0 -4.831,-0.749 -6.191,-2.248c-1.361,-1.498 -2.041,-3.308 -2.041,-5.43c0,-1.798 0.507,-3.239 1.522,-4.323c1.014,-1.084 2.352,-1.626 4.012,-1.626c1.476,0 2.571,0.358 3.286,1.072c0.714,0.715 1.279,1.718 1.694,3.01c0.046,0.184 0.139,0.472 0.277,0.864c0.138,0.392 0.242,0.68 0.311,0.865c0.069,0.184 0.162,0.426 0.277,0.726c0.115,0.3 0.242,0.53 0.38,0.692c0.139,0.161 0.289,0.334 0.45,0.519c0.161,0.184 0.346,0.311 0.553,0.38c0.208,0.069 0.45,0.104 0.727,0.104c2.951,-0 5.395,-2.375 7.332,-7.125c1.799,-4.243 2.698,-10.145 2.698,-17.708l-0,-75.883c-0,-2.859 -0.369,-4.727 -1.107,-5.603c-0.738,-0.876 -2.121,-1.43 -4.15,-1.66c-3.136,-0.369 -4.889,-0.669 -5.257,-0.9c-0.369,-0.23 -0.554,-0.738 -0.554,-1.521c0,-1.015 1.084,-1.522 3.251,-1.522c0.646,-0 2.502,0.092 5.569,0.276c3.066,0.185 5.707,0.277 7.92,0.277c2.721,0 5.211,-0.092 7.471,-0.277c2.259,-0.184 3.458,-0.276 3.597,-0.276c1.891,-0 2.836,0.553 2.836,1.66c-0,0.415 -0.058,0.738 -0.173,0.968c-0.115,0.231 -0.346,0.392 -0.692,0.485c-0.346,0.092 -0.715,0.161 -1.107,0.207c-0.392,0.046 -0.956,0.115 -1.694,0.208c-0.738,0.092 -1.453,0.23 -2.145,0.415c-2.075,0.507 -3.331,1.51 -3.77,3.009c-0.438,1.498 -0.657,4.784 -0.657,9.857Z" style="fill:#fffffa;fill-rule:nonzero;"/><path d="M58.728,25.248l-0.138,0c-1.43,0 -2.629,-0.588 -3.597,-1.764c-0.969,-1.176 -1.453,-2.963 -1.453,-5.361c0,-2.352 0.496,-4.115 1.487,-5.291c0.992,-1.176 2.225,-1.764 3.701,-1.764c1.522,-0 2.778,0.588 3.77,1.764c0.991,1.176 1.487,2.939 1.487,5.291c0,2.398 -0.496,4.185 -1.487,5.361c-0.992,1.176 -2.248,1.764 -3.77,1.764Zm-4.22,65.715l0,-41.504c0,-1.66 -0.38,-2.836 -1.141,-3.528c-0.761,-0.692 -2.363,-1.268 -4.807,-1.729c-0.877,-0.185 -1.315,-0.646 -1.315,-1.384c0,-0.738 1.384,-1.591 4.151,-2.559c2.259,-0.784 5.003,-2.214 8.231,-4.289c1.245,-0.922 1.983,-1.383 2.214,-1.383c0.784,-0 1.176,0.507 1.176,1.521l-0,54.163c-0,1.061 0.011,1.798 0.034,2.214c0.023,0.415 0.116,0.979 0.277,1.694c0.161,0.715 0.404,1.222 0.726,1.522c0.323,0.3 0.807,0.623 1.453,0.969c0.646,0.345 1.453,0.611 2.421,0.795c1.43,0.277 2.387,0.542 2.871,0.795c0.484,0.254 0.726,0.658 0.726,1.211c0,0.507 -0.15,0.865 -0.45,1.072c-0.299,0.208 -0.864,0.311 -1.694,0.311c-0.185,0 -1.303,-0.092 -3.355,-0.276c-2.052,-0.185 -4.531,-0.277 -7.436,-0.277c-2.26,0 -4.174,0.046 -5.742,0.138c-1.568,0.093 -2.709,0.185 -3.424,0.277c-0.715,0.092 -1.187,0.138 -1.418,0.138c-1.153,0 -1.729,-0.507 -1.729,-1.521c-0,-1.015 0.807,-1.637 2.421,-1.868c2.582,-0.415 4.196,-0.98 4.842,-1.695c0.646,-0.715 0.968,-2.317 0.968,-4.807Z" style="fill:#fffffa;fill-rule:nonzero;"/><path d="M110.954,62.325l-11.275,35.278c-0.047,0.185 -0.139,0.485 -0.277,0.9c-0.138,0.415 -0.242,0.726 -0.311,0.933c-0.07,0.208 -0.162,0.473 -0.277,0.796c-0.115,0.323 -0.231,0.565 -0.346,0.726c-0.115,0.162 -0.242,0.346 -0.38,0.554c-0.139,0.207 -0.289,0.346 -0.45,0.415c-0.161,0.069 -0.334,0.103 -0.519,0.103c-0.184,0 -0.357,-0.046 -0.519,-0.138c-0.161,-0.092 -0.311,-0.23 -0.449,-0.415c-0.139,-0.184 -0.265,-0.357 -0.381,-0.519c-0.115,-0.161 -0.23,-0.415 -0.346,-0.761c-0.115,-0.346 -0.196,-0.611 -0.242,-0.795c-0.046,-0.185 -0.127,-0.473 -0.242,-0.865c-0.115,-0.392 -0.196,-0.657 -0.242,-0.795l-17.017,-52.987c-1.06,-3.228 -2.374,-5.027 -3.942,-5.395c-1.43,-0.323 -2.145,-0.969 -2.145,-1.937c0,-1.153 0.853,-1.73 2.56,-1.73c0.922,0 2.213,0.093 3.873,0.277c1.661,0.185 2.906,0.277 3.736,0.277c0.922,-0 2.236,-0.092 3.943,-0.277c1.706,-0.184 2.951,-0.277 3.735,-0.277c1.706,0 2.559,0.531 2.559,1.591c0,0.83 -1.083,1.43 -3.251,1.799c-2.259,0.369 -3.389,1.545 -3.389,3.528c-0,1.106 0.553,3.297 1.66,6.571l10.653,30.99c0.507,1.706 1.014,2.559 1.521,2.559c0.692,0 1.407,-1.222 2.145,-3.666l6.64,-20.821c0.692,-2.352 1.038,-3.828 1.038,-4.427c-0,-1.015 -1.176,-4.543 -3.528,-10.584c-0.646,-1.937 -2.167,-3.182 -4.565,-3.735c-1.799,-0.415 -2.813,-0.853 -3.044,-1.314c-0.046,-0.139 -0.069,-0.3 -0.069,-0.485c-0,-1.337 0.945,-2.006 2.836,-2.006c0.83,0 2.237,0.093 4.22,0.277c1.983,0.185 3.458,0.277 4.427,0.277c1.199,-0 2.79,-0.092 4.773,-0.277c1.983,-0.184 3.274,-0.277 3.873,-0.277c1.153,0 1.914,0.15 2.283,0.45c0.369,0.3 0.553,0.772 0.553,1.418c0,0.138 -0.023,0.277 -0.069,0.415c-0.046,0.138 -0.115,0.254 -0.207,0.346c-0.093,0.092 -0.185,0.173 -0.277,0.242c-0.092,0.069 -0.231,0.138 -0.415,0.208c-0.185,0.069 -0.323,0.126 -0.415,0.172c-0.092,0.047 -0.265,0.093 -0.519,0.139c-0.254,0.046 -0.438,0.081 -0.553,0.104c-0.116,0.023 -0.312,0.057 -0.588,0.103c-0.277,0.046 -0.461,0.07 -0.554,0.07c-2.444,0.368 -3.666,1.36 -3.666,2.974c0,0.738 0.392,2.398 1.176,4.98l9.615,31.474c0.83,2.629 1.499,3.943 2.006,3.943c0.415,0 1.153,-1.983 2.214,-5.949l8.37,-29.191c0.461,-1.66 0.691,-3.113 0.691,-4.358c0,-2.029 -1.36,-3.228 -4.081,-3.597c-0.691,-0.092 -1.222,-0.173 -1.591,-0.242c-0.369,-0.069 -0.795,-0.173 -1.279,-0.311c-0.485,-0.139 -0.831,-0.323 -1.038,-0.554c-0.208,-0.23 -0.311,-0.507 -0.311,-0.83c-0,-0.553 0.184,-1.026 0.553,-1.418c0.369,-0.392 0.83,-0.588 1.384,-0.588c0.783,0 1.994,0.093 3.631,0.277c1.637,0.185 2.894,0.277 3.77,0.277c1.153,-0 2.571,-0.092 4.254,-0.277c1.683,-0.184 2.756,-0.277 3.217,-0.277c1.337,0 2.006,0.623 2.006,1.868c-0,0.277 -0.035,0.53 -0.104,0.761c-0.069,0.231 -0.138,0.403 -0.208,0.519c-0.069,0.115 -0.219,0.242 -0.449,0.38c-0.231,0.139 -0.381,0.219 -0.45,0.242c-0.069,0.023 -0.276,0.093 -0.622,0.208c-0.346,0.115 -0.542,0.173 -0.588,0.173c-1.799,0.599 -3.067,2.098 -3.805,4.496l-15.287,53.402c-0.646,2.352 -1.222,3.712 -1.729,4.081c-0.185,0.138 -0.415,0.207 -0.692,0.207c-0.231,0 -0.438,-0.046 -0.623,-0.138c-0.184,-0.092 -0.346,-0.23 -0.484,-0.415c-0.138,-0.184 -0.265,-0.357 -0.38,-0.519c-0.116,-0.161 -0.231,-0.415 -0.346,-0.761c-0.116,-0.346 -0.196,-0.611 -0.242,-0.795c-0.046,-0.185 -0.127,-0.496 -0.242,-0.934c-0.116,-0.438 -0.196,-0.726 -0.243,-0.865l-10.376,-35.278l-0.276,0Z" style="fill:#fffffa;fill-rule:nonzero;"/><path d="M179.435,55.823l0,-8.094c0,-3.643 -0.461,-6.179 -1.383,-7.609c-0.923,-1.429 -2.444,-2.144 -4.566,-2.144c-3.597,0 -6.387,1.164 -8.37,3.493c-1.983,2.329 -3.574,5.684 -4.773,10.065c-0.645,2.167 -1.637,3.92 -2.974,5.257c-1.568,1.43 -3.413,2.145 -5.534,2.145c-1.107,-0 -1.879,-0.231 -2.317,-0.692c-0.438,-0.461 -0.657,-1.268 -0.657,-2.421c-0,-1.983 0.691,-4.174 2.075,-6.572c1.383,-2.398 3.251,-4.703 5.603,-6.917c2.352,-2.214 5.338,-4.058 8.958,-5.534c3.62,-1.476 7.413,-2.213 11.379,-2.213c4.565,-0 7.586,0.807 9.062,2.421c1.337,1.337 2.006,3.781 2.006,7.332l-0,44.34c-0,3.781 1.314,5.672 3.942,5.672c2.352,0 3.874,-1.083 4.566,-3.251c0.645,-1.798 1.153,-2.79 1.522,-2.974c0.138,-0.093 0.276,-0.139 0.415,-0.139c0.784,0 1.176,0.761 1.176,2.283c-0,0.738 -0.219,1.683 -0.658,2.836c-0.438,1.153 -1.072,2.375 -1.902,3.666c-0.83,1.292 -2.017,2.387 -3.562,3.286c-1.545,0.899 -3.286,1.349 -5.223,1.349c-1.383,-0 -2.582,-0.242 -3.597,-0.726c-1.014,-0.485 -1.798,-1.188 -2.352,-2.11c-0.553,-0.923 -0.945,-1.706 -1.176,-2.352c-0.23,-0.646 -0.461,-1.499 -0.691,-2.56c-0.323,-1.337 -0.738,-2.006 -1.245,-2.006c-0.323,0 -0.761,0.254 -1.315,0.761c-0.553,0.508 -1.337,1.257 -2.352,2.248c-1.014,0.992 -1.96,1.834 -2.836,2.525c-3.735,3.228 -8.047,4.842 -12.935,4.842c-3.044,0 -5.522,-1.095 -7.436,-3.285c-1.914,-2.191 -2.871,-5.269 -2.871,-9.235c0,-3.32 1.049,-6.272 3.147,-8.854c2.099,-2.583 6.007,-5.949 11.725,-10.099c6.641,-4.75 10.238,-7.356 10.791,-7.817c1.753,-1.291 2.917,-2.398 3.494,-3.32c0.576,-0.923 0.864,-2.122 0.864,-3.597Zm-20.683,31.889l0,0.138c0,2.675 0.658,4.715 1.972,6.122c1.314,1.406 3.009,2.11 5.084,2.11c2.721,-0 5.857,-1.614 9.408,-4.843c1.568,-1.429 2.663,-2.79 3.285,-4.081c0.623,-1.291 0.934,-2.905 0.934,-4.842l0,-15.564c0,-1.245 -0.323,-1.868 -0.968,-1.868c-0.83,0 -2.075,0.577 -3.736,1.73c-3.55,2.398 -6.479,4.75 -8.785,7.055c-4.796,4.428 -7.194,9.108 -7.194,14.043Z" style="fill:#fffffa;fill-rule:nonzero;"/><path d="M208.695,90.133l0,-40.536c0,-1.937 -0.23,-3.147 -0.691,-3.631c-0.461,-0.485 -1.637,-0.796 -3.528,-0.934c-1.199,-0.092 -1.972,-0.208 -2.317,-0.346c-0.346,-0.138 -0.519,-0.438 -0.519,-0.899c-0,-0.646 0.899,-1.361 2.698,-2.145c3.274,-1.475 6.34,-3.366 9.2,-5.672c1.06,-0.922 1.729,-1.383 2.006,-1.383c0.645,-0 0.968,0.553 0.968,1.66l0,5.81c0.046,0.554 0.081,0.992 0.104,1.315c0.023,0.322 0.069,0.564 0.138,0.726c0.069,0.161 0.127,0.265 0.173,0.311c0.046,0.046 0.138,0.069 0.277,0.069c0.276,0 0.657,-0.126 1.141,-0.38c0.484,-0.254 0.946,-0.553 1.384,-0.899c0.438,-0.346 1.06,-0.842 1.867,-1.488c0.807,-0.645 1.511,-1.176 2.11,-1.591c4.289,-3.135 8.37,-4.703 12.244,-4.703c4.565,-0 8.324,1.406 11.275,4.219c3.09,2.952 4.704,6.918 4.842,11.898l0,39.29c0,2.306 0.3,3.955 0.899,4.946c0.6,0.992 1.614,1.557 3.044,1.695c1.614,0.138 2.732,0.357 3.355,0.657c0.622,0.3 0.934,0.75 0.934,1.349c-0,0.922 -0.669,1.383 -2.006,1.383l-0.969,-0.138c-0.692,-0.092 -1.856,-0.184 -3.493,-0.277c-1.637,-0.092 -3.632,-0.138 -5.984,-0.138c-2.859,0 -5.199,0.092 -7.021,0.277c-1.821,0.184 -2.755,0.276 -2.801,0.276c-0.784,0 -1.326,-0.115 -1.626,-0.345c-0.299,-0.231 -0.449,-0.623 -0.449,-1.176c-0,-0.969 0.876,-1.591 2.628,-1.868c1.937,-0.277 3.251,-0.749 3.943,-1.418c0.692,-0.669 1.038,-1.902 1.038,-3.701l-0,-39.636c-0,-3.551 -0.946,-6.341 -2.836,-8.37c-2.076,-2.352 -5.004,-3.528 -8.785,-3.528c-3.966,0 -7.356,1.268 -10.169,3.805c-3.043,2.721 -4.565,5.695 -4.565,8.923l-0,38.945c-0,1.706 0.253,2.893 0.761,3.562c0.507,0.669 1.591,1.141 3.251,1.418c2.951,0.461 4.565,0.807 4.842,1.038c0.231,0.184 0.346,0.507 0.346,0.968c-0,0.922 -0.646,1.383 -1.937,1.383c-0.092,0 -0.484,-0.046 -1.176,-0.138c-0.692,-0.092 -1.948,-0.184 -3.77,-0.277c-1.821,-0.092 -4.139,-0.138 -6.952,-0.138c-1.891,0 -3.482,0.046 -4.773,0.138c-1.291,0.093 -2.248,0.185 -2.87,0.277c-0.623,0.092 -1.05,0.138 -1.28,0.138c-1.706,0 -2.56,-0.553 -2.56,-1.66c0,-0.369 0.173,-0.738 0.519,-1.106c0.346,-0.369 0.819,-0.577 1.418,-0.623c2.352,-0.277 3.886,-0.876 4.6,-1.798c0.715,-0.923 1.072,-2.767 1.072,-5.534Z" style="fill:#fffffa;fill-rule:nonzero;"/><path d="M301.18,89.233l0,-68.412c0,-1.429 -0.254,-2.467 -0.761,-3.113c-0.507,-0.645 -1.429,-1.106 -2.767,-1.383c-1.844,-0.277 -3.113,-0.438 -3.804,-0.484c-0.969,-0.093 -1.637,-0.208 -2.006,-0.346c-0.369,-0.139 -0.554,-0.438 -0.554,-0.899c0,-0.6 0.219,-1.015 0.657,-1.246c0.438,-0.23 1.764,-0.714 3.978,-1.452c5.073,-1.706 12.313,-2.56 21.72,-2.56c11.483,0 20.683,4.059 27.6,12.175c7.102,8.208 10.653,18.976 10.653,32.304c-0,14.987 -3.067,26.574 -9.2,34.759c-6.133,8.186 -15.218,12.278 -27.254,12.278c-1.292,0 -3.586,-0.092 -6.883,-0.276c-3.297,-0.185 -6.053,-0.277 -8.266,-0.277c-1.891,0 -3.978,0.092 -6.26,0.277c-2.283,0.184 -3.632,0.276 -4.047,0.276c-1.799,0 -2.698,-0.553 -2.698,-1.66c0,-0.738 0.254,-1.233 0.761,-1.487c0.507,-0.254 1.753,-0.519 3.736,-0.795c2.029,-0.323 3.435,-1.073 4.219,-2.249c0.784,-1.175 1.176,-2.985 1.176,-5.43Zm9.338,-68.827l0,67.167c0,6.595 3.067,9.892 9.2,9.892c8.578,0 14.919,-3.067 19.023,-9.2c4.427,-6.595 6.641,-17.501 6.641,-32.719c-0,-7.701 -0.681,-14.376 -2.041,-20.026c-1.36,-5.649 -3.274,-10.099 -5.741,-13.35c-2.467,-3.251 -5.234,-5.638 -8.301,-7.159c-3.067,-1.522 -6.491,-2.283 -10.272,-2.283c-3.413,-0 -5.684,0.576 -6.814,1.729c-1.13,1.153 -1.695,3.136 -1.695,5.949Z" style="fill:#fffffa;fill-rule:nonzero;"/><path d="M369.869,90.133l-0,-77.82c-0,-1.107 -0.265,-1.902 -0.796,-2.387c-0.53,-0.484 -1.625,-0.864 -3.285,-1.141c-1.199,-0.231 -1.995,-0.438 -2.387,-0.623c-0.392,-0.184 -0.588,-0.507 -0.588,-0.968c0,-0.461 0.127,-0.807 0.381,-1.038c0.253,-0.23 0.795,-0.484 1.625,-0.76c4.427,-1.661 7.817,-3.09 10.169,-4.289c1.522,-0.738 2.421,-1.107 2.698,-1.107c0.461,0 0.691,0.669 0.691,2.006l0,41.504c0,0.646 0.231,0.968 0.692,0.968c0.6,0 1.176,-0.276 1.729,-0.83c5.488,-5.487 10.93,-8.231 16.325,-8.231c4.381,-0 8.117,1.36 11.206,4.081c3.09,2.721 4.727,6.733 4.912,12.036l-0,39.29c-0,2.26 0.334,3.897 1.003,4.912c0.668,1.014 1.787,1.591 3.354,1.729c1.43,0.138 2.433,0.357 3.01,0.657c0.576,0.3 0.864,0.75 0.864,1.349c0,0.922 -0.669,1.383 -2.006,1.383c-0.046,0 -0.565,-0.046 -1.556,-0.138c-0.992,-0.092 -2.306,-0.184 -3.943,-0.277c-1.637,-0.092 -3.286,-0.138 -4.946,-0.138c-2.859,0 -5.2,0.092 -7.021,0.277c-1.822,0.184 -2.755,0.276 -2.802,0.276c-0.784,0 -1.325,-0.115 -1.625,-0.345c-0.3,-0.231 -0.45,-0.623 -0.45,-1.176c0,-0.6 0.208,-1.026 0.623,-1.28c0.415,-0.254 1.083,-0.45 2.006,-0.588c1.937,-0.277 3.251,-0.761 3.943,-1.453c0.691,-0.691 1.037,-1.913 1.037,-3.666l0,-39.636c0,-3.551 -0.945,-6.341 -2.836,-8.37c-2.213,-2.352 -5.142,-3.528 -8.785,-3.528c-3.781,0 -7.217,1.314 -10.307,3.943c-2.951,2.629 -4.427,5.557 -4.427,8.785l0,38.114c0,1.707 0.45,3.021 1.349,3.943c0.899,0.923 2.479,1.545 4.739,1.868c1.291,0.184 2.132,0.415 2.524,0.692c0.392,0.276 0.588,0.715 0.588,1.314c0,0.922 -0.645,1.383 -1.937,1.383c-0.092,0 -0.484,-0.046 -1.175,-0.138c-0.692,-0.092 -1.949,-0.184 -3.77,-0.277c-1.822,-0.092 -4.139,-0.138 -6.952,-0.138c-2.537,0 -4.716,0.092 -6.537,0.277c-1.822,0.184 -2.871,0.276 -3.148,0.276c-1.199,0 -1.798,-0.553 -1.798,-1.66c-0,-0.369 0.173,-0.738 0.519,-1.106c0.346,-0.369 0.818,-0.577 1.418,-0.623c2.352,-0.277 3.885,-0.876 4.6,-1.798c0.715,-0.923 1.072,-2.767 1.072,-5.534Z" style="fill:#fffffa;fill-rule:nonzero;"/><path d="M438.696,25.248l-0.138,0c-1.43,0 -2.629,-0.588 -3.597,-1.764c-0.968,-1.176 -1.453,-2.963 -1.453,-5.361c0,-2.352 0.496,-4.115 1.488,-5.291c0.991,-1.176 2.225,-1.764 3.7,-1.764c1.522,-0 2.779,0.588 3.77,1.764c0.992,1.176 1.487,2.939 1.487,5.291c0,2.398 -0.495,4.185 -1.487,5.361c-0.991,1.176 -2.248,1.764 -3.77,1.764Zm-4.219,65.715l-0,-41.504c-0,-1.66 -0.381,-2.836 -1.142,-3.528c-0.761,-0.692 -2.363,-1.268 -4.807,-1.729c-0.876,-0.185 -1.314,-0.646 -1.314,-1.384c-0,-0.738 1.383,-1.591 4.15,-2.559c2.26,-0.784 5.003,-2.214 8.232,-4.289c1.245,-0.922 1.983,-1.383 2.213,-1.383c0.784,-0 1.176,0.507 1.176,1.521l0,54.163c0,1.061 0.012,1.798 0.035,2.214c0.023,0.415 0.115,0.979 0.276,1.694c0.162,0.715 0.404,1.222 0.727,1.522c0.322,0.3 0.807,0.623 1.452,0.969c0.646,0.345 1.453,0.611 2.421,0.795c1.43,0.277 2.387,0.542 2.871,0.795c0.484,0.254 0.726,0.658 0.726,1.211c0,0.507 -0.15,0.865 -0.449,1.072c-0.3,0.208 -0.865,0.311 -1.695,0.311c-0.185,0 -1.303,-0.092 -3.355,-0.276c-2.052,-0.185 -4.531,-0.277 -7.436,-0.277c-2.26,0 -4.174,0.046 -5.741,0.138c-1.568,0.093 -2.71,0.185 -3.425,0.277c-0.714,0.092 -1.187,0.138 -1.418,0.138c-1.152,0 -1.729,-0.507 -1.729,-1.521c0,-1.015 0.807,-1.637 2.421,-1.868c2.583,-0.415 4.197,-0.98 4.842,-1.695c0.646,-0.715 0.969,-2.317 0.969,-4.807Z" style="fill:#fffffa;fill-rule:nonzero;"/><path d="M465.881,91.516l0,-79.203c0,-1.107 -0.276,-1.902 -0.83,-2.387c-0.553,-0.484 -1.66,-0.864 -3.32,-1.141c-1.199,-0.231 -1.995,-0.438 -2.387,-0.623c-0.391,-0.184 -0.587,-0.507 -0.587,-0.968c-0,-0.461 0.126,-0.807 0.38,-1.038c0.254,-0.23 0.795,-0.484 1.626,-0.76c4.657,-1.753 7.978,-3.136 9.96,-4.151c1.615,-0.83 2.606,-1.245 2.975,-1.245c0.461,-0 0.692,0.669 0.692,2.006l-0,90.617c-0,0.369 0.023,0.692 0.069,0.968c0.046,0.277 0.092,0.531 0.138,0.761c0.046,0.231 0.15,0.45 0.311,0.657c0.162,0.208 0.277,0.369 0.346,0.485c0.069,0.115 0.254,0.253 0.554,0.415c0.299,0.161 0.518,0.276 0.657,0.345c0.138,0.07 0.426,0.162 0.865,0.277c0.438,0.115 0.749,0.208 0.933,0.277c0.185,0.069 0.577,0.173 1.176,0.311c0.6,0.138 1.038,0.254 1.315,0.346c1.521,0.415 2.398,0.83 2.628,1.245c0.046,0.138 0.069,0.3 0.069,0.484c0,1.107 -0.53,1.66 -1.591,1.66c-0.184,0 -0.645,-0.046 -1.383,-0.138c-0.738,-0.092 -1.983,-0.184 -3.735,-0.277c-1.753,-0.092 -3.92,-0.138 -6.503,-0.138c-2.306,0 -4.254,0.046 -5.845,0.138c-1.591,0.093 -2.755,0.185 -3.493,0.277c-0.738,0.092 -1.245,0.138 -1.522,0.138c-0.415,0 -0.807,-0.138 -1.176,-0.415c-0.369,-0.276 -0.553,-0.691 -0.553,-1.245c-0,-0.415 0.23,-0.784 0.691,-1.106c0.462,-0.323 0.992,-0.531 1.591,-0.623c2.445,-0.323 4.047,-0.899 4.808,-1.729c0.761,-0.83 1.141,-2.237 1.141,-4.22Z" style="fill:#fffffa;fill-rule:nonzero;"/><path d="M497.286,91.516l-0,-79.203c-0,-1.107 -0.277,-1.902 -0.83,-2.387c-0.553,-0.484 -1.66,-0.864 -3.32,-1.141c-1.199,-0.231 -1.995,-0.438 -2.387,-0.623c-0.392,-0.184 -0.588,-0.507 -0.588,-0.968c0,-0.461 0.127,-0.807 0.381,-1.038c0.253,-0.23 0.795,-0.484 1.625,-0.76c4.658,-1.753 7.978,-3.136 9.961,-4.151c1.614,-0.83 2.606,-1.245 2.975,-1.245c0.461,-0 0.691,0.669 0.691,2.006l0,90.617c0,0.369 0.023,0.692 0.069,0.968c0.047,0.277 0.093,0.531 0.139,0.761c0.046,0.231 0.15,0.45 0.311,0.657c0.161,0.208 0.277,0.369 0.346,0.485c0.069,0.115 0.254,0.253 0.553,0.415c0.3,0.161 0.519,0.276 0.657,0.345c0.139,0.07 0.427,0.162 0.865,0.277c0.438,0.115 0.75,0.208 0.934,0.277c0.184,0.069 0.576,0.173 1.176,0.311c0.599,0.138 1.038,0.254 1.314,0.346c1.522,0.415 2.398,0.83 2.629,1.245c0.046,0.138 0.069,0.3 0.069,0.484c-0,1.107 -0.53,1.66 -1.591,1.66c-0.184,0 -0.646,-0.046 -1.383,-0.138c-0.738,-0.092 -1.983,-0.184 -3.736,-0.277c-1.752,-0.092 -3.92,-0.138 -6.502,-0.138c-2.306,0 -4.254,0.046 -5.845,0.138c-1.591,0.093 -2.756,0.185 -3.493,0.277c-0.738,0.092 -1.246,0.138 -1.522,0.138c-0.415,0 -0.807,-0.138 -1.176,-0.415c-0.369,-0.276 -0.554,-0.691 -0.554,-1.245c0,-0.415 0.231,-0.784 0.692,-1.106c0.461,-0.323 0.992,-0.531 1.591,-0.623c2.444,-0.323 4.047,-0.899 4.808,-1.729c0.761,-0.83 1.141,-2.237 1.141,-4.22Z" style="fill:#fffffa;fill-rule:nonzero;"/><path d="M544.67,102.03l-0.139,0c-4.704,0 -8.935,-1.567 -12.693,-4.703c-3.758,-3.136 -6.641,-7.264 -8.647,-12.382c-2.006,-5.119 -3.009,-10.676 -3.009,-16.671c0,-5.995 1.003,-11.552 3.009,-16.671c2.006,-5.119 4.9,-9.234 8.682,-12.347c3.781,-3.113 8.047,-4.669 12.797,-4.669c4.749,-0 9.027,1.556 12.831,4.669c3.805,3.113 6.71,7.228 8.716,12.347c2.006,5.119 3.009,10.676 3.009,16.671c0,5.995 -1.003,11.552 -3.009,16.671c-2.006,5.118 -4.911,9.246 -8.716,12.382c-3.804,3.136 -8.082,4.703 -12.831,4.703Zm-0,-3.458l0.138,-0c3.228,-0 6.018,-1.568 8.37,-4.704c2.352,-3.136 4.047,-6.94 5.084,-11.414c1.038,-4.473 1.557,-9.2 1.557,-14.18c-0,-4.981 -0.519,-9.707 -1.557,-14.181c-1.037,-4.473 -2.744,-8.277 -5.119,-11.413c-2.375,-3.136 -5.199,-4.704 -8.473,-4.704c-3.275,0 -6.099,1.568 -8.474,4.704c-2.375,3.136 -4.081,6.94 -5.119,11.413c-1.038,4.474 -1.556,9.2 -1.556,14.181c-0,4.98 0.518,9.707 1.556,14.18c1.038,4.474 2.744,8.278 5.119,11.414c2.375,3.136 5.199,4.704 8.474,4.704Z" style="fill:#fffffa;fill-rule:nonzero;"/><path d="M582.023,90.133l0,-40.536c0,-1.937 -0.23,-3.147 -0.692,-3.631c-0.461,-0.485 -1.637,-0.796 -3.527,-0.934c-1.199,-0.092 -1.972,-0.208 -2.318,-0.346c-0.346,-0.138 -0.519,-0.438 -0.519,-0.899c0,-0.646 0.9,-1.361 2.698,-2.145c3.274,-1.475 6.341,-3.366 9.2,-5.672c1.061,-0.922 1.73,-1.383 2.006,-1.383c0.646,-0 0.969,0.553 0.969,1.66l-0,5.81c0.046,0.554 0.08,0.992 0.103,1.315c0.023,0.322 0.07,0.564 0.139,0.726c0.069,0.161 0.127,0.265 0.173,0.311c0.046,0.046 0.138,0.069 0.276,0.069c0.277,0 0.658,-0.126 1.142,-0.38c0.484,-0.254 0.945,-0.553 1.383,-0.899c0.438,-0.346 1.061,-0.842 1.868,-1.488c0.807,-0.645 1.51,-1.176 2.11,-1.591c4.288,-3.135 8.37,-4.703 12.243,-4.703c4.566,-0 8.324,1.406 11.276,4.219c3.089,2.952 4.703,6.918 4.842,11.898l-0,39.29c-0,2.306 0.299,3.955 0.899,4.946c0.599,0.992 1.614,1.557 3.044,1.695c1.614,0.138 2.732,0.357 3.354,0.657c0.623,0.3 0.934,0.75 0.934,1.349c0,0.922 -0.668,1.383 -2.006,1.383l-0.968,-0.138c-0.692,-0.092 -1.856,-0.184 -3.493,-0.277c-1.637,-0.092 -3.632,-0.138 -5.984,-0.138c-2.859,0 -5.199,0.092 -7.021,0.277c-1.822,0.184 -2.755,0.276 -2.801,0.276c-0.784,0 -1.326,-0.115 -1.626,-0.345c-0.3,-0.231 -0.45,-0.623 -0.45,-1.176c0,-0.969 0.877,-1.591 2.629,-1.868c1.937,-0.277 3.251,-0.749 3.943,-1.418c0.692,-0.669 1.037,-1.902 1.037,-3.701l0,-39.636c0,-3.551 -0.945,-6.341 -2.836,-8.37c-2.075,-2.352 -5.003,-3.528 -8.785,-3.528c-3.966,0 -7.355,1.268 -10.168,3.805c-3.044,2.721 -4.566,5.695 -4.566,8.923l0,38.945c0,1.706 0.254,2.893 0.761,3.562c0.508,0.669 1.591,1.141 3.251,1.418c2.952,0.461 4.566,0.807 4.843,1.038c0.23,0.184 0.345,0.507 0.345,0.968c0,0.922 -0.645,1.383 -1.936,1.383c-0.093,0 -0.485,-0.046 -1.176,-0.138c-0.692,-0.092 -1.949,-0.184 -3.77,-0.277c-1.822,-0.092 -4.139,-0.138 -6.952,-0.138c-1.891,0 -3.482,0.046 -4.773,0.138c-1.291,0.093 -2.248,0.185 -2.871,0.277c-0.622,0.092 -1.049,0.138 -1.28,0.138c-1.706,0 -2.559,-0.553 -2.559,-1.66c0,-0.369 0.173,-0.738 0.519,-1.106c0.346,-0.369 0.818,-0.577 1.418,-0.623c2.352,-0.277 3.885,-0.876 4.6,-1.798c0.715,-0.923 1.072,-2.767 1.072,-5.534Z" style="fill:#fffffa;fill-rule:nonzero;"/><path d="M677.067,27.6l0,-0.138c0,-5.488 1.925,-9.88 5.776,-13.178c3.851,-3.297 8.543,-4.946 14.077,-4.946c5.856,0 10.526,1.557 14.007,4.67c3.482,3.112 5.223,6.998 5.223,11.655c-0,1.614 -0.254,3.159 -0.761,4.635c-0.507,1.476 -1.061,2.698 -1.66,3.666c-0.6,0.968 -1.568,2.029 -2.905,3.182c-1.338,1.153 -2.398,2.006 -3.182,2.559c-0.784,0.554 -2.053,1.395 -3.805,2.525c-1.752,1.13 -2.974,1.926 -3.666,2.387c-2.352,1.522 -3.528,2.513 -3.528,2.974c0,0.369 0.507,1.222 1.522,2.56c1.291,1.706 2.698,3.643 4.219,5.81c1.522,2.168 3.205,4.612 5.05,7.332c1.845,2.721 3.297,4.82 4.358,6.295c1.614,2.444 2.698,3.666 3.251,3.666c0.692,0 2.237,-2.628 4.635,-7.885c2.398,-5.258 3.597,-8.67 3.597,-10.238c-0,-1.337 -0.346,-2.271 -1.038,-2.801c-0.692,-0.531 -1.637,-0.888 -2.836,-1.073c-0.138,-0.046 -0.438,-0.092 -0.899,-0.138c-0.461,-0.046 -0.773,-0.081 -0.934,-0.104c-0.161,-0.023 -0.404,-0.08 -0.726,-0.173c-0.323,-0.092 -0.554,-0.207 -0.692,-0.346c-0.138,-0.138 -0.265,-0.311 -0.381,-0.518c-0.115,-0.208 -0.172,-0.473 -0.172,-0.796c-0,-1.245 0.853,-1.868 2.559,-1.868c0.876,0 2.444,0.093 4.704,0.277c2.259,0.185 3.943,0.277 5.049,0.277c0.923,-0 2.664,-0.092 5.223,-0.277c2.559,-0.184 3.977,-0.277 4.254,-0.277c0.922,0 1.533,0.162 1.833,0.485c0.3,0.322 0.45,0.83 0.45,1.521c-0,0.6 -0.323,1.038 -0.969,1.315c-0.645,0.276 -1.556,0.507 -2.732,0.691c-1.176,0.185 -2.018,0.369 -2.525,0.554c-1.014,0.369 -1.902,0.934 -2.663,1.695c-0.761,0.761 -1.349,1.498 -1.764,2.213c-0.415,0.715 -1.107,1.995 -2.075,3.839c-1.983,3.92 -4.312,8.07 -6.987,12.451c-0.092,0.139 -0.322,0.496 -0.691,1.073c-0.369,0.576 -0.646,1.026 -0.83,1.349c-0.185,0.322 -0.369,0.714 -0.554,1.175c-0.184,0.462 -0.276,0.831 -0.276,1.107c-0,0.692 0.507,1.868 1.521,3.528c0.923,1.522 2.906,4.174 5.949,7.955c2.306,2.905 4.174,4.98 5.603,6.226c1.43,1.245 3.159,2.052 5.188,2.421c2.721,0.507 4.289,0.945 4.704,1.314c0.277,0.277 0.415,0.646 0.415,1.107c0,0.645 -0.196,1.06 -0.588,1.245c-0.392,0.184 -1.187,0.276 -2.386,0.276c-0.554,0 -2.087,-0.092 -4.6,-0.276c-2.514,-0.185 -5.062,-0.277 -7.644,-0.277c-3.781,0 -6.767,0.092 -8.958,0.277c-2.19,0.184 -3.355,0.276 -3.493,0.276c-1.291,0 -1.937,-0.553 -1.937,-1.66c-0,-1.153 1.13,-1.821 3.389,-2.006c2.26,-0.184 3.39,-0.853 3.39,-2.006c-0,-0.922 -0.899,-2.732 -2.698,-5.43c-1.798,-2.698 -2.974,-4.046 -3.528,-4.046c-0.461,-0 -0.933,0.253 -1.418,0.76c-0.484,0.508 -1.164,1.361 -2.04,2.56c-0.877,1.199 -1.66,2.213 -2.352,3.043c-5.303,6.042 -11.506,9.062 -18.608,9.062c-7.055,0 -12.635,-2.202 -16.74,-6.606c-4.104,-4.404 -6.156,-10.18 -6.156,-17.328c-0,-9.315 4.15,-16.717 12.451,-22.204c1.199,-0.784 2.606,-1.626 4.22,-2.525c1.614,-0.899 2.778,-1.591 3.493,-2.075c0.715,-0.485 1.072,-0.888 1.072,-1.211c0,-0.461 -0.461,-1.36 -1.383,-2.698c-0.923,-1.337 -1.926,-2.801 -3.009,-4.392c-1.084,-1.591 -2.087,-3.724 -3.009,-6.399c-0.923,-2.674 -1.384,-5.372 -1.384,-8.093Zm19.23,-14.872l-0.138,-0c-3.136,-0 -5.684,1.187 -7.644,3.562c-1.96,2.375 -2.94,5.315 -2.94,8.82c0,2.675 0.681,5.591 2.041,8.75c1.36,3.159 2.721,5.672 4.081,7.54c1.361,1.868 2.248,2.802 2.663,2.802c0.231,-0 0.796,-0.208 1.695,-0.623c0.899,-0.415 2.006,-1.107 3.32,-2.075c1.315,-0.969 2.583,-2.098 3.805,-3.39c1.222,-1.291 2.271,-2.939 3.147,-4.945c0.877,-2.006 1.315,-4.139 1.315,-6.399c-0,-4.196 -0.923,-7.586 -2.767,-10.168c-1.845,-2.583 -4.704,-3.874 -8.578,-3.874Zm-23.173,60.941l0,0.139c0,2.398 0.381,4.83 1.142,7.298c0.76,2.467 1.844,4.761 3.251,6.882c1.406,2.122 3.285,3.851 5.637,5.188c2.352,1.338 4.958,2.006 7.817,2.006c2.075,0 4.116,-0.426 6.122,-1.279c2.006,-0.854 3.7,-1.88 5.084,-3.079c1.383,-1.199 2.617,-2.455 3.701,-3.77c1.083,-1.314 1.89,-2.432 2.421,-3.354c0.53,-0.923 0.795,-1.522 0.795,-1.799c0,-0.461 -1.279,-2.49 -3.839,-6.087c-2.559,-3.597 -5.407,-7.529 -8.543,-11.794c-3.136,-4.266 -5.003,-6.86 -5.603,-7.782c-1.568,-2.352 -2.721,-3.528 -3.458,-3.528c-0.231,-0 -0.831,0.231 -1.799,0.692c-0.968,0.461 -2.179,1.256 -3.632,2.386c-1.452,1.13 -2.847,2.456 -4.185,3.978c-1.337,1.521 -2.49,3.516 -3.458,5.983c-0.969,2.467 -1.453,5.107 -1.453,7.92Z" style="fill:#fffffa;fill-rule:nonzero;"/><path d="M827.173,75.952l-0.138,17.847c-0,1.291 -0.127,2.213 -0.381,2.767c-0.254,0.553 -0.749,1.083 -1.487,1.591c-1.384,1.199 -3.874,2.236 -7.471,3.113c-3.597,0.876 -7.056,1.314 -10.376,1.314c-10.007,-0 -18.227,-4.174 -24.66,-12.521c-6.433,-8.346 -9.65,-19.668 -9.65,-33.964c0,-14.065 3.125,-25.375 9.373,-33.929c6.249,-8.554 14.515,-12.832 24.799,-12.832c3.781,0 7.332,0.496 10.652,1.488c3.321,0.991 5.534,1.925 6.641,2.801c0.646,0.646 1.015,2.006 1.107,4.081c0.092,1.43 0.138,5.211 0.138,11.345c0,3.228 -0.057,5.142 -0.173,5.741c-0.115,0.6 -0.472,0.899 -1.072,0.899c-0.646,0 -1.153,-0.346 -1.522,-1.037c-0.369,-0.692 -1.083,-2.652 -2.144,-5.88c-3.459,-10.699 -8.67,-16.048 -15.633,-16.048c-1.937,-0 -3.839,0.438 -5.707,1.314c-1.868,0.876 -3.724,2.375 -5.568,4.496c-1.845,2.122 -3.471,4.727 -4.877,7.817c-1.407,3.09 -2.537,7.044 -3.39,11.863c-0.853,4.819 -1.279,10.203 -1.279,16.152c-0,6.502 0.415,12.348 1.245,17.536c0.83,5.188 1.948,9.465 3.355,12.831c1.406,3.367 3.066,6.157 4.98,8.37c1.914,2.214 3.908,3.782 5.984,4.704c2.075,0.922 4.265,1.383 6.571,1.383c8.024,0 13.258,-5.995 15.702,-17.985c1.015,-5.165 1.591,-7.932 1.73,-8.3c0.276,-0.646 0.645,-0.969 1.106,-0.969c0.508,0 0.888,0.058 1.142,0.173c0.253,0.115 0.484,0.484 0.692,1.107c0.207,0.622 0.311,1.533 0.311,2.732Z" style="fill:#fffffa;fill-rule:nonzero;"/><path d="M859.131,102.03l-0.138,0c-4.704,0 -8.935,-1.567 -12.694,-4.703c-3.758,-3.136 -6.64,-7.264 -8.646,-12.382c-2.006,-5.119 -3.009,-10.676 -3.009,-16.671c-0,-5.995 1.003,-11.552 3.009,-16.671c2.006,-5.119 4.899,-9.234 8.681,-12.347c3.781,-3.113 8.047,-4.669 12.797,-4.669c4.75,-0 9.027,1.556 12.831,4.669c3.805,3.113 6.71,7.228 8.716,12.347c2.006,5.119 3.009,10.676 3.009,16.671c0,5.995 -1.003,11.552 -3.009,16.671c-2.006,5.118 -4.911,9.246 -8.716,12.382c-3.804,3.136 -8.081,4.703 -12.831,4.703Zm-0,-3.458l0.138,-0c3.228,-0 6.018,-1.568 8.37,-4.704c2.352,-3.136 4.047,-6.94 5.084,-11.414c1.038,-4.473 1.557,-9.2 1.557,-14.18c-0,-4.981 -0.519,-9.707 -1.557,-14.181c-1.037,-4.473 -2.743,-8.277 -5.118,-11.413c-2.375,-3.136 -5.2,-4.704 -8.474,-4.704c-3.274,0 -6.099,1.568 -8.474,4.704c-2.375,3.136 -4.081,6.94 -5.119,11.413c-1.037,4.474 -1.556,9.2 -1.556,14.181c-0,4.98 0.519,9.707 1.556,14.18c1.038,4.474 2.744,8.278 5.119,11.414c2.375,3.136 5.2,4.704 8.474,4.704Z" style="fill:#fffffa;fill-rule:nonzero;"/><path d="M896.069,90.133l0,-40.536c0,-1.891 -0.23,-3.09 -0.691,-3.597c-0.462,-0.507 -1.637,-0.83 -3.528,-0.968c-0.139,-0 -0.346,-0.012 -0.623,-0.035c-0.276,-0.023 -0.484,-0.046 -0.622,-0.069c-0.139,-0.023 -0.312,-0.046 -0.519,-0.069c-0.208,-0.023 -0.358,-0.058 -0.45,-0.104c-0.092,-0.046 -0.196,-0.115 -0.311,-0.207c-0.115,-0.093 -0.196,-0.196 -0.242,-0.312c-0.046,-0.115 -0.069,-0.265 -0.069,-0.449c-0,-0.646 0.899,-1.361 2.697,-2.145c3.275,-1.475 6.341,-3.366 9.2,-5.672c1.061,-0.922 1.707,-1.383 1.937,-1.383c0.692,-0 1.038,0.553 1.038,1.66l-0,4.012c-0,1.014 0.011,1.787 0.034,2.317c0.024,0.53 0.058,0.945 0.104,1.245c0.046,0.3 0.116,0.484 0.208,0.554c0.092,0.069 0.207,0.103 0.346,0.103c0.23,0 0.507,-0.069 0.83,-0.207c0.323,-0.139 0.715,-0.381 1.176,-0.726c0.461,-0.346 0.876,-0.669 1.245,-0.969c0.369,-0.3 0.876,-0.726 1.522,-1.28c0.645,-0.553 1.176,-0.991 1.591,-1.314c4.15,-3.044 7.885,-4.565 11.206,-4.565c1.291,-0 2.478,0.092 3.562,0.276c1.084,0.185 2.041,0.496 2.871,0.934c0.83,0.438 1.545,0.83 2.144,1.176c0.6,0.346 1.165,0.865 1.695,1.557c0.53,0.691 0.922,1.187 1.176,1.487c0.253,0.3 0.588,0.818 1.003,1.556c0.415,0.738 0.645,1.153 0.692,1.245c0.553,0.83 1.037,1.245 1.452,1.245c0.323,0 0.899,-0.322 1.729,-0.968c0.231,-0.184 0.923,-0.772 2.076,-1.764c1.153,-0.991 2.144,-1.775 2.974,-2.352c0.83,-0.576 1.937,-1.256 3.32,-2.04c1.384,-0.784 2.86,-1.372 4.428,-1.764c1.567,-0.392 3.205,-0.588 4.911,-0.588c4.058,-0 7.494,1.129 10.307,3.389c3.504,2.721 5.257,6.456 5.257,11.206l-0,40.812c-0,2.26 0.3,3.805 0.899,4.635c0.6,0.83 1.799,1.499 3.597,2.006c2.398,0.646 3.597,1.268 3.597,1.868c0,0.553 -0.161,0.945 -0.484,1.176c-0.323,0.23 -0.922,0.345 -1.799,0.345c-0.599,0 -2.156,-0.092 -4.669,-0.276c-2.513,-0.185 -4.646,-0.277 -6.398,-0.277c-1.614,0 -3.586,0.092 -5.915,0.277c-2.329,0.184 -3.793,0.276 -4.392,0.276c-1.706,0 -2.56,-0.507 -2.56,-1.521c0,-0.877 0.9,-1.499 2.698,-1.868c2.859,-0.599 4.727,-1.349 5.603,-2.248c0.876,-0.899 1.314,-2.802 1.314,-5.707l0,-36.247c0,-4.196 -1.037,-7.32 -3.112,-9.373c-2.075,-2.052 -4.958,-3.078 -8.647,-3.078c-3.643,0 -6.756,1.084 -9.338,3.251c-2.675,2.352 -4.012,5.234 -4.012,8.647l-0,39.221c-0,2.075 0.299,3.413 0.899,4.012c0.599,0.6 2.236,1.107 4.911,1.522c0.969,0.138 1.637,0.323 2.006,0.553c0.369,0.231 0.554,0.623 0.554,1.176c-0,1.107 -0.946,1.66 -2.837,1.66c-0.507,0 -1.89,-0.092 -4.15,-0.276c-2.26,-0.185 -4.173,-0.277 -5.741,-0.277c-1.707,0 -3.701,0.092 -5.984,0.277c-2.282,0.184 -3.747,0.276 -4.392,0.276c-1.476,0 -2.214,-0.415 -2.214,-1.245c0,-0.461 0.185,-0.899 0.554,-1.314c0.369,-0.415 0.876,-0.692 1.521,-0.83c1.614,-0.323 2.744,-0.588 3.39,-0.795c0.645,-0.208 1.257,-0.6 1.833,-1.176c0.576,-0.577 0.922,-1.292 1.038,-2.145c0.115,-0.853 0.172,-2.133 0.172,-3.839l0,-34.794c0,-4.012 -0.714,-7.194 -2.144,-9.546c-1.706,-2.905 -4.45,-4.358 -8.231,-4.358c-3.736,0 -7.079,1.176 -10.031,3.528c-3.135,2.675 -4.703,5.741 -4.703,9.2l-0,38.945c-0,1.706 0.253,2.893 0.761,3.562c0.507,0.669 1.567,1.141 3.182,1.418c0.276,0.046 0.576,0.115 0.899,0.208c0.323,0.092 0.576,0.149 0.761,0.172c0.184,0.024 0.392,0.07 0.622,0.139c0.231,0.069 0.404,0.115 0.519,0.138c0.115,0.023 0.242,0.069 0.38,0.138c0.139,0.07 0.231,0.139 0.277,0.208c0.046,0.069 0.092,0.161 0.139,0.277c0.046,0.115 0.08,0.23 0.103,0.346c0.023,0.115 0.035,0.242 0.035,0.38c-0,0.922 -0.669,1.383 -2.006,1.383c-0.092,0 -0.484,-0.046 -1.176,-0.138c-0.692,-0.092 -1.948,-0.184 -3.77,-0.277c-1.822,-0.092 -4.139,-0.138 -6.952,-0.138c-1.983,0 -3.689,0.092 -5.119,0.277c-1.429,0.184 -2.19,0.276 -2.282,0.276c-1.661,0 -2.491,-0.553 -2.491,-1.66c0,-0.369 0.173,-0.738 0.519,-1.106c0.346,-0.369 0.819,-0.577 1.418,-0.623c2.352,-0.277 3.885,-0.876 4.6,-1.798c0.715,-0.923 1.072,-2.767 1.072,-5.534Z" style="fill:#fffffa;fill-rule:nonzero;"/><path d="M998.1,102.03l-0,19.646c-0,2.213 0.472,3.723 1.418,4.53c0.945,0.807 2.778,1.419 5.499,1.834c0.738,0.138 1.245,0.242 1.522,0.311c0.277,0.069 0.542,0.242 0.795,0.519c0.254,0.276 0.381,0.668 0.381,1.176c-0,0.968 -1.084,1.452 -3.251,1.452c-0.369,0 -1.441,-0.104 -3.217,-0.311c-1.775,-0.208 -3.862,-0.311 -6.26,-0.311c-2.214,-0 -4.485,0.103 -6.814,0.311c-2.328,0.207 -3.654,0.311 -3.977,0.311c-1.983,0 -2.974,-0.53 -2.974,-1.591c-0,-0.968 0.668,-1.591 2.006,-1.867c2.951,-0.646 4.749,-1.315 5.395,-2.006c0.646,-0.692 0.968,-2.514 0.968,-5.465l0,-70.833c0,-1.061 -0.207,-1.845 -0.622,-2.352c-0.415,-0.508 -1.291,-0.992 -2.629,-1.453c-2.121,-0.738 -3.251,-1.199 -3.389,-1.383c-0.092,-0.093 -0.138,-0.208 -0.138,-0.346c-0,-0.323 0.023,-0.577 0.069,-0.761c0.046,-0.185 0.184,-0.369 0.415,-0.554c0.23,-0.184 0.415,-0.311 0.553,-0.38c0.138,-0.069 0.438,-0.219 0.899,-0.45c3.321,-1.66 6.387,-3.504 9.2,-5.534c0.462,-0.322 0.934,-0.668 1.418,-1.037c0.485,-0.369 0.819,-0.611 1.003,-0.726c0.185,-0.116 0.369,-0.173 0.554,-0.173c0.692,-0 1.037,0.599 1.037,1.798l0,6.087c0,0.6 0.277,0.9 0.831,0.9c0.368,-0 1.498,-0.946 3.389,-2.837c3.828,-3.412 7.194,-5.118 10.099,-5.118c6.088,-0 11.126,3.136 15.115,9.407c3.989,6.272 5.983,14.411 5.983,24.418c0,9.546 -2.167,17.397 -6.502,23.554c-4.335,6.156 -9.915,9.234 -16.74,9.234c-2.444,0 -5.096,-0.53 -7.955,-1.591c-1.891,-0.83 -2.974,-1.245 -3.251,-1.245c-0.554,0 -0.83,0.946 -0.83,2.836Zm25.871,-33.341l-0,-0.138c-0,-8.44 -1.142,-15.172 -3.425,-20.199c-2.282,-5.027 -5.706,-7.54 -10.272,-7.54c-3.228,0 -6.064,1.084 -8.508,3.251c-2.444,1.983 -3.666,4.381 -3.666,7.194l-0,35.14c-0,4.658 1.083,8.071 3.251,10.238c1.891,1.891 4.381,2.836 7.471,2.836c4.519,0 8.174,-2.536 10.964,-7.609c2.79,-5.073 4.185,-12.797 4.185,-23.173Z" style="fill:#fffffa;fill-rule:nonzero;"/><path d="M1071.84,55.823l0,-8.094c0,-3.643 -0.461,-6.179 -1.383,-7.609c-0.922,-1.429 -2.444,-2.144 -4.566,-2.144c-3.597,0 -6.387,1.164 -8.369,3.493c-1.983,2.329 -3.574,5.684 -4.773,10.065c-0.646,2.167 -1.638,3.92 -2.975,5.257c-1.568,1.43 -3.412,2.145 -5.534,2.145c-1.106,-0 -1.879,-0.231 -2.317,-0.692c-0.438,-0.461 -0.657,-1.268 -0.657,-2.421c-0,-1.983 0.692,-4.174 2.075,-6.572c1.383,-2.398 3.251,-4.703 5.603,-6.917c2.352,-2.214 5.338,-4.058 8.958,-5.534c3.62,-1.476 7.413,-2.213 11.379,-2.213c4.565,-0 7.586,0.807 9.062,2.421c1.337,1.337 2.006,3.781 2.006,7.332l-0,44.34c-0,3.781 1.314,5.672 3.943,5.672c2.351,0 3.873,-1.083 4.565,-3.251c0.646,-1.798 1.153,-2.79 1.522,-2.974c0.138,-0.093 0.276,-0.139 0.415,-0.139c0.784,0 1.176,0.761 1.176,2.283c-0,0.738 -0.219,1.683 -0.657,2.836c-0.438,1.153 -1.073,2.375 -1.903,3.666c-0.83,1.292 -2.017,2.387 -3.562,3.286c-1.545,0.899 -3.286,1.349 -5.223,1.349c-1.383,-0 -2.582,-0.242 -3.597,-0.726c-1.014,-0.485 -1.798,-1.188 -2.352,-2.11c-0.553,-0.923 -0.945,-1.706 -1.175,-2.352c-0.231,-0.646 -0.462,-1.499 -0.692,-2.56c-0.323,-1.337 -0.738,-2.006 -1.245,-2.006c-0.323,0 -0.761,0.254 -1.315,0.761c-0.553,0.508 -1.337,1.257 -2.351,2.248c-1.015,0.992 -1.96,1.834 -2.837,2.525c-3.735,3.228 -8.047,4.842 -12.935,4.842c-3.044,0 -5.522,-1.095 -7.436,-3.285c-1.914,-2.191 -2.871,-5.269 -2.871,-9.235c0,-3.32 1.049,-6.272 3.148,-8.854c2.098,-2.583 6.006,-5.949 11.724,-10.099c6.641,-4.75 10.238,-7.356 10.791,-7.817c1.753,-1.291 2.917,-2.398 3.494,-3.32c0.576,-0.923 0.864,-2.122 0.864,-3.597Zm-20.682,31.889l-0,0.138c-0,2.675 0.657,4.715 1.971,6.122c1.314,1.406 3.009,2.11 5.084,2.11c2.721,-0 5.857,-1.614 9.408,-4.843c1.568,-1.429 2.663,-2.79 3.286,-4.081c0.622,-1.291 0.933,-2.905 0.933,-4.842l0,-15.564c0,-1.245 -0.322,-1.868 -0.968,-1.868c-0.83,0 -2.075,0.577 -3.735,1.73c-3.551,2.398 -6.48,4.75 -8.785,7.055c-4.796,4.428 -7.194,9.108 -7.194,14.043Z" style="fill:#fffffa;fill-rule:nonzero;"/><path d="M1101.1,90.133l-0,-40.536c-0,-1.937 -0.231,-3.147 -0.692,-3.631c-0.461,-0.485 -1.637,-0.796 -3.528,-0.934c-1.199,-0.092 -1.971,-0.208 -2.317,-0.346c-0.346,-0.138 -0.519,-0.438 -0.519,-0.899c-0,-0.646 0.899,-1.361 2.698,-2.145c3.274,-1.475 6.341,-3.366 9.2,-5.672c1.06,-0.922 1.729,-1.383 2.006,-1.383c0.645,-0 0.968,0.553 0.968,1.66l0,5.81c0.046,0.554 0.081,0.992 0.104,1.315c0.023,0.322 0.069,0.564 0.138,0.726c0.069,0.161 0.127,0.265 0.173,0.311c0.046,0.046 0.139,0.069 0.277,0.069c0.277,0 0.657,-0.126 1.141,-0.38c0.485,-0.254 0.946,-0.553 1.384,-0.899c0.438,-0.346 1.06,-0.842 1.867,-1.488c0.807,-0.645 1.511,-1.176 2.11,-1.591c4.289,-3.135 8.37,-4.703 12.244,-4.703c4.565,-0 8.324,1.406 11.275,4.219c3.09,2.952 4.704,6.918 4.842,11.898l0,39.29c0,2.306 0.3,3.955 0.899,4.946c0.6,0.992 1.615,1.557 3.044,1.695c1.614,0.138 2.732,0.357 3.355,0.657c0.623,0.3 0.934,0.75 0.934,1.349c-0,0.922 -0.669,1.383 -2.006,1.383l-0.969,-0.138c-0.691,-0.092 -1.856,-0.184 -3.493,-0.277c-1.637,-0.092 -3.631,-0.138 -5.983,-0.138c-2.86,0 -5.2,0.092 -7.021,0.277c-1.822,0.184 -2.756,0.276 -2.802,0.276c-0.784,0 -1.326,-0.115 -1.626,-0.345c-0.299,-0.231 -0.449,-0.623 -0.449,-1.176c-0,-0.969 0.876,-1.591 2.628,-1.868c1.937,-0.277 3.252,-0.749 3.943,-1.418c0.692,-0.669 1.038,-1.902 1.038,-3.701l-0,-39.636c-0,-3.551 -0.945,-6.341 -2.836,-8.37c-2.075,-2.352 -5.004,-3.528 -8.785,-3.528c-3.966,0 -7.356,1.268 -10.169,3.805c-3.043,2.721 -4.565,5.695 -4.565,8.923l-0,38.945c-0,1.706 0.254,2.893 0.761,3.562c0.507,0.669 1.591,1.141 3.251,1.418c2.951,0.461 4.565,0.807 4.842,1.038c0.231,0.184 0.346,0.507 0.346,0.968c-0,0.922 -0.646,1.383 -1.937,1.383c-0.092,0 -0.484,-0.046 -1.176,-0.138c-0.692,-0.092 -1.948,-0.184 -3.77,-0.277c-1.821,-0.092 -4.139,-0.138 -6.952,-0.138c-1.89,0 -3.481,0.046 -4.773,0.138c-1.291,0.093 -2.248,0.185 -2.87,0.277c-0.623,0.092 -1.049,0.138 -1.28,0.138c-1.706,0 -2.559,-0.553 -2.559,-1.66c-0,-0.369 0.173,-0.738 0.518,-1.106c0.346,-0.369 0.819,-0.577 1.418,-0.623c2.352,-0.277 3.886,-0.876 4.6,-1.798c0.715,-0.923 1.073,-2.767 1.073,-5.534Z" style="fill:#fffffa;fill-rule:nonzero;"/><path d="M1159.9,123.958l-0,-0.138c-0,-2.306 1.36,-3.712 4.081,-4.22c0.185,-0.046 0.53,-0.115 1.038,-0.207c0.507,-0.092 0.876,-0.162 1.106,-0.208c0.231,-0.046 0.542,-0.115 0.934,-0.207c0.392,-0.092 0.715,-0.196 0.969,-0.311c0.253,-0.116 0.518,-0.254 0.795,-0.415c0.277,-0.162 0.507,-0.335 0.692,-0.519c0.646,-0.646 1.821,-3.482 3.528,-8.509c1.798,-5.303 2.697,-8.854 2.697,-10.652c0,-1.66 -0.126,-3.032 -0.38,-4.116c-0.254,-1.084 -0.934,-3.332 -2.041,-6.744c-1.291,-4.012 -3.32,-10.457 -6.087,-19.334c-2.767,-8.878 -4.888,-15.622 -6.364,-20.233c-1.199,-3.736 -2.19,-6.157 -2.974,-7.264c-0.784,-1.106 -1.591,-1.706 -2.421,-1.798c-1.199,-0.139 -1.995,-0.334 -2.387,-0.588c-0.392,-0.254 -0.588,-0.75 -0.588,-1.487c0,-0.877 0.715,-1.315 2.145,-1.315c1.106,0 2.767,0.093 4.98,0.277c2.214,0.185 3.874,0.277 4.981,0.277c1.014,-0 2.536,-0.092 4.565,-0.277c2.029,-0.184 3.182,-0.277 3.459,-0.277c1.614,0 2.421,0.577 2.421,1.73c-0,0.138 -0.023,0.265 -0.069,0.38c-0.047,0.115 -0.15,0.219 -0.312,0.311c-0.161,0.093 -0.311,0.173 -0.449,0.243c-0.139,0.069 -0.358,0.138 -0.657,0.207c-0.3,0.069 -0.565,0.115 -0.796,0.138c-0.231,0.023 -0.576,0.081 -1.038,0.173c-0.461,0.093 -0.853,0.162 -1.175,0.208c-1.983,0.323 -2.975,1.406 -2.975,3.251c0,0.968 0.992,4.796 2.975,11.483c1.752,6.133 3.735,12.578 5.948,19.334c2.214,6.756 3.528,10.134 3.943,10.134c0.415,-0 1.799,-3.724 4.151,-11.172c2.352,-7.448 4.265,-13.915 5.741,-19.403c1.522,-5.442 2.283,-8.946 2.283,-10.514c-0,-0.969 -0.392,-1.672 -1.176,-2.11c-0.784,-0.438 -2.145,-0.773 -4.081,-1.003c-0.093,-0 -0.254,-0.012 -0.485,-0.035c-0.23,-0.023 -0.403,-0.046 -0.518,-0.069c-0.116,-0.023 -0.277,-0.058 -0.485,-0.104c-0.207,-0.046 -0.369,-0.103 -0.484,-0.173c-0.115,-0.069 -0.242,-0.138 -0.38,-0.207c-0.139,-0.069 -0.231,-0.173 -0.277,-0.311c-0.046,-0.139 -0.069,-0.3 -0.069,-0.485c-0,-1.337 0.715,-2.006 2.144,-2.006c0.046,0 1.049,0.093 3.009,0.277c1.96,0.185 3.747,0.277 5.361,0.277c0.554,-0 1.476,-0.092 2.767,-0.277c1.291,-0.184 2.398,-0.277 3.32,-0.277c1.246,0 1.868,0.577 1.868,1.73c0,0.784 -0.761,1.337 -2.283,1.66c-1.014,0.184 -1.913,1.014 -2.697,2.49c-0.784,1.476 -1.822,4.15 -3.113,8.024c-9.5,29.145 -15.495,47.983 -17.985,56.515c-0.738,2.536 -2.26,8.162 -4.566,16.878c-1.014,3.182 -1.948,5.292 -2.801,6.329c-0.853,1.038 -2.133,1.557 -3.839,1.557c-2.629,-0 -4.277,-0.438 -4.946,-1.315c-0.669,-0.876 -1.003,-2.744 -1.003,-5.603Z" style="fill:#fffffa;fill-rule:nonzero;"/><path d="M1287.17,75.952l-0.138,17.847c0,1.291 -0.127,2.213 -0.38,2.767c-0.254,0.553 -0.75,1.083 -1.488,1.591c-1.383,1.199 -3.873,2.236 -7.47,3.113c-3.597,0.876 -7.056,1.314 -10.376,1.314c-10.007,-0 -18.227,-4.174 -24.66,-12.521c-6.434,-8.346 -9.65,-19.668 -9.65,-33.964c-0,-14.065 3.124,-25.375 9.373,-33.929c6.248,-8.554 14.515,-12.832 24.798,-12.832c3.782,0 7.333,0.496 10.653,1.488c3.32,0.991 5.534,1.925 6.641,2.801c0.645,0.646 1.014,2.006 1.106,4.081c0.093,1.43 0.139,5.211 0.139,11.345c-0,3.228 -0.058,5.142 -0.173,5.741c-0.115,0.6 -0.473,0.899 -1.072,0.899c-0.646,0 -1.153,-0.346 -1.522,-1.037c-0.369,-0.692 -1.084,-2.652 -2.144,-5.88c-3.459,-10.699 -8.67,-16.048 -15.634,-16.048c-1.936,-0 -3.839,0.438 -5.706,1.314c-1.868,0.876 -3.724,2.375 -5.569,4.496c-1.844,2.122 -3.47,4.727 -4.877,7.817c-1.406,3.09 -2.536,7.044 -3.389,11.863c-0.853,4.819 -1.28,10.203 -1.28,16.152c0,6.502 0.415,12.348 1.245,17.536c0.83,5.188 1.949,9.465 3.355,12.831c1.407,3.367 3.067,6.157 4.981,8.37c1.914,2.214 3.908,3.782 5.983,4.704c2.075,0.922 4.266,1.383 6.572,1.383c8.024,0 13.258,-5.995 15.702,-17.985c1.015,-5.165 1.591,-7.932 1.729,-8.3c0.277,-0.646 0.646,-0.969 1.107,-0.969c0.507,0 0.888,0.058 1.141,0.173c0.254,0.115 0.485,0.484 0.692,1.107c0.208,0.622 0.311,1.533 0.311,2.732Z" style="fill:#fffffa;fill-rule:nonzero;"/><path d="M1313.46,61.08l0,28.568c0,2.352 0.323,4.105 0.969,5.258c0.645,1.152 1.706,1.821 3.182,2.006c0.553,0.092 1.187,0.173 1.902,0.242c0.715,0.069 1.268,0.138 1.66,0.207c0.392,0.069 0.819,0.139 1.28,0.208c0.461,0.069 0.818,0.138 1.072,0.207c0.254,0.069 0.484,0.162 0.692,0.277c0.207,0.115 0.357,0.254 0.449,0.415c0.093,0.161 0.139,0.357 0.139,0.588c-0,1.199 -0.853,1.798 -2.56,1.798c-0.23,0 -1.614,-0.092 -4.15,-0.276c-2.536,-0.185 -5.396,-0.277 -8.578,-0.277c-2.398,0 -4.427,0.046 -6.087,0.138c-1.66,0.093 -2.894,0.185 -3.701,0.277c-0.807,0.092 -1.372,0.138 -1.694,0.138c-1.983,0 -2.975,-0.461 -2.975,-1.383c0,-0.83 0.335,-1.395 1.003,-1.695c0.669,-0.299 2.225,-0.588 4.669,-0.864c1.246,-0.139 2.122,-0.669 2.629,-1.591c0.507,-0.923 0.761,-2.329 0.761,-4.22l-0,-69.311c-0,-2.352 -0.3,-4.036 -0.899,-5.05c-0.6,-1.015 -1.568,-1.591 -2.906,-1.729c-2.905,-0.369 -4.519,-0.715 -4.842,-1.038c-0.276,-0.231 -0.415,-0.6 -0.415,-1.107c0,-1.199 0.761,-1.798 2.283,-1.798c1.43,-0 3.424,0.092 5.983,0.276c2.56,0.185 4.393,0.277 5.5,0.277c1.752,0 4.45,-0.092 8.093,-0.277c3.643,-0.184 6.318,-0.276 8.024,-0.276c7.609,-0 13.881,2.248 18.815,6.744c4.934,4.496 7.402,10.78 7.402,18.85c-0,6.917 -2.421,12.589 -7.264,17.016c-4.842,4.427 -10.767,6.641 -17.777,6.641c-3.182,0 -5.649,-0.231 -7.402,-0.692c-1.752,-0.461 -3.02,-0.691 -3.804,-0.691c-0.969,-0 -1.453,0.714 -1.453,2.144Zm0,-41.988l0,32.165c0,1.384 0.623,2.629 1.868,3.736c1.476,1.291 3.597,1.937 6.364,1.937c6.087,-0 10.779,-1.903 14.077,-5.707c3.297,-3.805 4.946,-8.889 4.946,-15.253c-0,-6.594 -1.695,-11.829 -5.085,-15.702c-3.389,-3.874 -8.174,-5.811 -14.353,-5.811c-2.859,0 -4.877,0.358 -6.053,1.072c-1.176,0.715 -1.764,1.903 -1.764,3.563Z" style="fill:#fffffa;fill-rule:nonzero;"/><path d="M1382.98,68.827l-16.255,0c-1.199,0 -2.076,0.404 -2.629,1.211c-0.553,0.807 -1.245,2.871 -2.075,6.191c-2.444,10.099 -3.666,15.864 -3.666,17.293c-0,1.015 0.276,1.845 0.83,2.49c0.553,0.646 1.637,1.084 3.251,1.315c0.23,0.046 0.588,0.103 1.072,0.173c0.484,0.069 0.83,0.115 1.038,0.138c0.207,0.023 0.472,0.069 0.795,0.138c0.323,0.069 0.565,0.15 0.726,0.242c0.162,0.093 0.323,0.196 0.485,0.312c0.161,0.115 0.276,0.253 0.346,0.415c0.069,0.161 0.103,0.357 0.103,0.588c0,1.014 -0.807,1.521 -2.421,1.521c-0.738,0 -2.075,-0.092 -4.012,-0.276c-1.937,-0.185 -3.481,-0.277 -4.634,-0.277c-1.153,0 -2.352,0.046 -3.597,0.138c-1.246,0.093 -2.26,0.185 -3.044,0.277c-0.784,0.092 -1.222,0.138 -1.314,0.138c-1.015,0 -1.522,-0.507 -1.522,-1.521c-0,-0.923 0.622,-1.545 1.868,-1.868c2.167,-0.461 3.481,-1.453 3.942,-2.974c5.534,-17.801 12.429,-43.211 20.683,-76.229c0.738,-2.998 1.107,-4.543 1.107,-4.635c0.184,-0.968 0.346,-1.706 0.484,-2.213c0.139,-0.508 0.381,-0.98 0.727,-1.418c0.345,-0.439 0.795,-0.658 1.348,-0.658c0.738,0 1.246,0.231 1.522,0.692c0.277,0.461 0.577,1.361 0.899,2.698c2.445,8.762 6.122,21.951 11.034,39.567c4.911,17.616 8.589,30.828 11.033,39.636c0.83,3.136 2.029,4.981 3.597,5.534c0.184,0.046 0.553,0.15 1.106,0.311c0.554,0.162 0.957,0.277 1.211,0.346c0.254,0.069 0.565,0.185 0.934,0.346c0.369,0.161 0.622,0.346 0.761,0.553c0.138,0.208 0.207,0.45 0.207,0.727c0,0.738 -0.991,1.106 -2.974,1.106c-1.015,0 -2.433,-0.092 -4.254,-0.276c-1.822,-0.185 -3.286,-0.277 -4.393,-0.277c-1.291,0 -3.078,0.092 -5.361,0.277c-2.282,0.184 -3.839,0.276 -4.669,0.276c-1.614,0 -2.421,-0.507 -2.421,-1.521c0,-1.245 1.222,-1.868 3.666,-1.868c1.153,0 2.052,-0.242 2.698,-0.726c0.646,-0.485 0.968,-1.418 0.968,-2.802c0,-0.507 -1.498,-6.502 -4.496,-17.985c-0.83,-3.043 -1.51,-4.992 -2.041,-5.845c-0.53,-0.853 -1.418,-1.28 -2.663,-1.28Zm-14.734,-3.389l13.074,-0c1.245,-0 2.029,-0.081 2.352,-0.242c0.323,-0.162 0.484,-0.45 0.484,-0.865c0,-0.646 -0.184,-1.683 -0.553,-3.113c-0.231,-0.876 -0.738,-2.651 -1.522,-5.326c-0.784,-2.675 -1.683,-5.868 -2.698,-9.581c-1.014,-3.712 -2.029,-7.574 -3.043,-11.586c-0.461,-1.891 -1.13,-2.836 -2.006,-2.836c-0.461,-0 -0.796,0.242 -1.003,0.726c-0.208,0.484 -0.565,1.787 -1.073,3.908c-3.643,14.85 -5.487,22.32 -5.533,22.413c-0.877,3.55 -1.315,5.395 -1.315,5.533c0,0.231 0.046,0.404 0.139,0.519c0.092,0.115 0.357,0.219 0.795,0.311c0.438,0.093 1.072,0.139 1.902,0.139Z" style="fill:#fffffa;fill-rule:nonzero;"/></g></svg>